SplineFontDB: 3.2
FontName: EggRollRegular
FullName: Egg Roll
FamilyName: Egg Roll
Weight: Regular
Copyright: 2019 Iconian Fonts - www.iconian.com
Version: 1.1; 2019
ItalicAngle: 0
UnderlinePosition: -175
UnderlineWidth: 50
Ascent: 800
Descent: 200
InvalidEm: 0
sfntRevision: 0x00010001
LayerCount: 2
Layer: 0 0 "Back" 1
Layer: 1 0 "Fore" 0
XUID: [1021 544 -9480482 5805961]
StyleMap: 0x0040
FSType: 0
OS2Version: 3
OS2_WeightWidthSlopeOnly: 0
OS2_UseTypoMetrics: 0
CreationTime: 1562333197
ModificationTime: 1759104162
PfmFamily: 81
TTFWeight: 400
TTFWidth: 5
LineGap: 30
VLineGap: 0
Panose: 0 0 0 0 0 0 0 0 0 0
OS2TypoAscent: 750
OS2TypoAOffset: 0
OS2TypoDescent: -170
OS2TypoDOffset: 0
OS2TypoLinegap: 30
OS2WinAscent: 882
OS2WinAOffset: 0
OS2WinDescent: 143
OS2WinDOffset: 0
HheadAscent: 882
HheadAOffset: 0
HheadDescent: -143
HheadDOffset: 0
OS2SubXSize: 100
OS2SubYSize: 100
OS2SubXOff: 0
OS2SubYOff: 140
OS2SupXSize: 100
OS2SupYSize: 100
OS2SupXOff: 0
OS2SupYOff: 140
OS2StrikeYSize: 50
OS2StrikeYPos: 250
OS2CapHeight: 706
OS2XHeight: 693
OS2Vendor: 'pyrs'
OS2CodePages: 00000001.00000000
OS2UnicodeRanges: 80000007.00000000.00000000.00000000
Lookup: 258 0 0 "'kern' Horizontal Kerning in Latin lookup 0" { "'kern' Horizontal Kerning in Latin lookup 0 subtable"  } ['kern' ('DFLT' <'dflt' > 'latn' <'dflt' > ) ]
MarkAttachClasses: 1
DEI: 91125
LangName: 1033 "" "" "" "" "" "Version 1.1; 2019" "" "" "" "Daniel Zadorozny" "" "" "http://www.iconian.com"
Encoding: UnicodeBmp
UnicodeInterp: none
NameList: AGL For New Fonts
DisplaySize: -48
AntiAlias: 1
FitToEm: 0
WinInfo: 64 16 4
BeginPrivate: 3
BlueValues 15 [-12 5 697 723]
BlueScale 6 0.0375
BlueShift 2 15
EndPrivate
BeginChars: 65540 223

StartChar: exclam
Encoding: 33 33 3
Width: 210
GlyphClass: 2
Flags: W
LayerCount: 2
Fore
SplineSet
193 80 m 2
 192.999023438 93.00390625 l 1
 183.999023438 112.00390625 l 1
 143.999023438 120.00390625 l 1
 143.999023438 146.00390625 l 2
 140.666015625 176.00390625 137.833007812 205.00390625 135.5 233.00390625 c 0
 133.166992188 261.00390625 132 290.00390625 132 320.00390625 c 0
 132 352.00390625 134 384.00390625 138 416.00390625 c 0
 142.666992188 441.336914062 147 463.169921875 151 481.502929688 c 0
 155 499.8359375 158.666992188 516.668945312 162 532.001953125 c 0
 165.333007812 547.334960938 168.5 562.501953125 171.5 577.501953125 c 0
 174.5 592.501953125 177.666992188 609.334960938 181 628.001953125 c 2
 187 663.001953125 l 1
 60 700.001953125 l 1
 55 700.001953125 l 2
 51.6669921875 700.001953125 48.333984375 697.168945312 45.0009765625 691.501953125 c 0
 41.66796875 685.834960938 38.8349609375 679.501953125 36.501953125 672.501953125 c 0
 34.1689453125 665.501953125 32.3359375 659.001953125 31.0029296875 653.001953125 c 2
 29.0029296875 644.001953125 l 1
 29.0029296875 582.001953125 l 1
 27.0029296875 582.001953125 l 1
 27.0029296875 565.001953125 l 2
 27.0029296875 531.001953125 27.5029296875 493.501953125 28.5029296875 452.501953125 c 0
 29.5029296875 411.501953125 33.0029296875 370.834960938 39.0029296875 330.501953125 c 0
 45.0029296875 290.168945312 54.169921875 251.8359375 66.5029296875 215.502929688 c 0
 78.8359375 179.169921875 96.0029296875 148.669921875 118.002929688 124.002929688 c 1
 89.0029296875 131.002929688 l 1
 81.0029296875 126.3359375 76.0029296875 122.668945312 74.0029296875 120.001953125 c 0
 72.0029296875 117.334960938 70.3359375 111.66796875 69.0029296875 103.000976562 c 2
 58.0029296875 48.0009765625 l 1
 57.0029296875 35.0009765625 l 1
 71.0029296875 10.0009765625 l 1
 83.669921875 6.66796875 97.169921875 2.66796875 111.502929688 -1.9990234375 c 0
 125.8359375 -6.666015625 137.668945312 -9.666015625 147.001953125 -10.9990234375 c 0
 147.668945312 -10.9990234375 149.168945312 -11.166015625 151.501953125 -11.4990234375 c 0
 153.834960938 -11.83203125 155.66796875 -11.9990234375 157.000976562 -11.9990234375 c 0
 162.333984375 -11.9990234375 166.166992188 -9.666015625 168.5 -4.9990234375 c 0
 170.833007812 -0.33203125 173 4.66796875 175 10.0009765625 c 2
 177 15.0009765625 l 2
 178.333007812 18.333984375 179.333007812 21.333984375 180 24.0009765625 c 0
 180.666992188 26.66796875 181.666992188 29.0009765625 183 31.0009765625 c 0
 186.333007812 40.333984375 188.5 46.6669921875 189.5 50 c 0
 190.5 53.3330078125 191 56.3330078125 191 59 c 0
 191 61.6669921875 191.333007812 64 192 66 c 0
 192.666992188 68 193 72.6669921875 193 80 c 2
EndSplineSet
EndChar

StartChar: quotedbl
Encoding: 34 34 4
Width: 254
GlyphClass: 2
Flags: W
LayerCount: 2
Fore
SplineSet
44 590 m 1
 23.0009765625 520.002929688 l 1
 39.0009765625 526.669921875 52.5009765625 533.169921875 63.5009765625 539.502929688 c 0
 74.5009765625 545.8359375 83.5009765625 553.168945312 90.5009765625 561.501953125 c 0
 97.5009765625 569.834960938 103.000976562 579.66796875 107.000976562 591.000976562 c 0
 111.000976562 602.333984375 114.333984375 616.666992188 117.000976562 634 c 2
 117.000976562 674 l 2
 117.000976562 674.666992188 116.500976562 676.833984375 115.500976562 680.500976562 c 0
 114.500976562 684.16796875 113.333984375 687.834960938 112.000976562 691.501953125 c 0
 110.66796875 695.168945312 109.16796875 698.501953125 107.500976562 701.501953125 c 0
 105.833984375 704.501953125 104.000976562 706.001953125 102.000976562 706.001953125 c 2
 70.0009765625 710.001953125 l 1
 68.0009765625 709.001953125 l 1
 64.0009765625 709.001953125 l 2
 60.0009765625 709.001953125 55.5009765625 708.834960938 50.5009765625 708.501953125 c 0
 45.5009765625 708.168945312 40.5009765625 707.668945312 35.5009765625 707.001953125 c 0
 30.5009765625 706.334960938 26.16796875 705.16796875 22.5009765625 703.500976562 c 0
 18.833984375 701.833984375 16.6669921875 699.666992188 16 697 c 2
 16 662 l 1
 22 650 27.8330078125 640.833007812 33.5 634.5 c 0
 39.1669921875 628.166992188 42 618.666992188 42 606 c 2
 44 590 l 1
163.000976562 590.002929688 m 1
 142.000976562 520.005859375 l 1
 158.000976562 526.672851562 171.500976562 533.172851562 182.500976562 539.505859375 c 0
 193.500976562 545.838867188 202.500976562 553.171875 209.500976562 561.504882812 c 0
 216.500976562 569.837890625 222.000976562 579.670898438 226.000976562 591.00390625 c 0
 230.000976562 602.336914062 233.333984375 616.669921875 236.000976562 634.002929688 c 2
 236.000976562 674.002929688 l 2
 236.000976562 674.669921875 235.66796875 676.836914062 235.000976562 680.50390625 c 0
 234.333984375 684.170898438 233.333984375 687.837890625 232.000976562 691.504882812 c 0
 230.66796875 695.171875 229.334960938 698.504882812 228.001953125 701.504882812 c 0
 226.668945312 704.504882812 225.001953125 706.004882812 223.001953125 706.004882812 c 2
 189.001953125 710.004882812 l 1
 187.001953125 709.004882812 l 1
 183.001953125 709.004882812 l 2
 179.001953125 709.004882812 174.501953125 708.837890625 169.501953125 708.504882812 c 0
 164.501953125 708.171875 159.501953125 707.671875 154.501953125 707.004882812 c 0
 149.501953125 706.337890625 145.168945312 705.170898438 141.501953125 703.50390625 c 0
 137.834960938 701.836914062 135.66796875 699.669921875 135.000976562 697.002929688 c 2
 135.000976562 662.002929688 l 1
 141.000976562 650.002929688 146.833984375 640.8359375 152.500976562 634.502929688 c 0
 158.16796875 628.169921875 161.000976562 618.669921875 161.000976562 606.002929688 c 2
 163.000976562 590.002929688 l 1
EndSplineSet
EndChar

StartChar: numbersign
Encoding: 35 35 5
Width: 558
GlyphClass: 2
Flags: W
LayerCount: 2
Fore
SplineSet
128 414 m 2
 131.99609375 414.000976562 l 1
 131.99609375 331.000976562 l 1
 15.99609375 338.000976562 l 1
 12.99609375 336.000976562 l 1
 24.99609375 326.000976562 l 1
 30.49609375 320.500976562 l 2
 34.1630859375 316.833984375 36.6630859375 314.000976562 37.99609375 312.000976562 c 0
 40.6630859375 308.66796875 45.6630859375 304.834960938 52.99609375 300.501953125 c 0
 60.3291015625 296.168945312 68.662109375 292.001953125 77.9951171875 288.001953125 c 2
 105.995117188 276.001953125 l 2
 115.328125 272.001953125 123.328125 268.334960938 129.995117188 265.001953125 c 2
 131.995117188 264.001953125 l 1
 131.995117188 220.001953125 l 2
 131.995117188 218.001953125 132.662109375 210.834960938 133.995117188 198.501953125 c 0
 135.328125 186.168945312 136.828125 172.501953125 138.495117188 157.501953125 c 0
 140.162109375 142.501953125 141.829101562 127.668945312 143.49609375 113.001953125 c 0
 145.163085938 98.3349609375 146.663085938 87.3349609375 147.99609375 80.001953125 c 0
 152.663085938 52.001953125 163.49609375 34.001953125 180.49609375 26.001953125 c 0
 197.49609375 18.001953125 216.99609375 14.001953125 238.99609375 14.001953125 c 0
 264.99609375 15.3349609375 281.329101562 16.8349609375 287.99609375 18.501953125 c 0
 294.663085938 20.1689453125 298.663085938 23.001953125 299.99609375 27.001953125 c 0
 288.663085938 61.6689453125 279.663085938 96.501953125 272.99609375 131.501953125 c 0
 266.329101562 166.501953125 260.662109375 200.001953125 255.995117188 232.001953125 c 1
 335.995117188 212.001953125 l 1
 333.995117188 177.001953125 l 2
 333.995117188 175.001953125 334.495117188 169.501953125 335.495117188 160.501953125 c 0
 336.495117188 151.501953125 337.828125 141.001953125 339.495117188 129.001953125 c 0
 341.162109375 117.001953125 342.829101562 104.834960938 344.49609375 92.501953125 c 0
 346.163085938 80.1689453125 347.663085938 69.6689453125 348.99609375 61.001953125 c 0
 348.99609375 59.6689453125 349.163085938 58.3359375 349.49609375 57.0029296875 c 0
 349.829101562 55.669921875 349.99609375 54.3369140625 349.99609375 53.00390625 c 0
 354.663085938 25.00390625 363.830078125 6.6708984375 377.497070312 -1.99609375 c 0
 391.1640625 -10.6630859375 408.997070312 -14.99609375 430.997070312 -14.99609375 c 2
 459.997070312 -14.99609375 l 2
 470.6640625 -14.99609375 479.331054688 -14.8291015625 485.998046875 -14.49609375 c 0
 492.665039062 -14.1630859375 497.665039062 -13.6630859375 500.998046875 -12.99609375 c 0
 504.331054688 -12.3291015625 506.498046875 -11.49609375 507.498046875 -10.49609375 c 0
 508.498046875 -9.49609375 509.331054688 -7.99609375 509.998046875 -5.99609375 c 0
 498.665039062 28.00390625 487.83203125 62.1708984375 477.499023438 96.50390625 c 0
 467.166015625 130.836914062 457.333007812 166.00390625 448 202.00390625 c 1
 537 179.00390625 l 1
 535 184.336914062 533.666992188 190.336914062 533 197.00390625 c 0
 532.333007812 203.670898438 532 210.337890625 532 217.004882812 c 0
 531.333007812 225.671875 530.833007812 232.504882812 530.5 237.504882812 c 0
 530.166992188 242.504882812 530 246.671875 530 250.004882812 c 0
 530 254.004882812 529.833007812 257.837890625 529.5 261.504882812 c 0
 529.166992188 265.171875 529 270.338867188 529 277.005859375 c 2
 535 307.005859375 l 1
 435 298.005859375 l 2
 434.333007812 297.338867188 433 297.005859375 431 297.005859375 c 0
 429 297.005859375 427.666992188 296.672851562 427 296.005859375 c 1
 423.666992188 310.005859375 421 323.838867188 419 337.505859375 c 0
 417 351.172851562 415 365.005859375 413 379.005859375 c 1
 534 372.005859375 l 1
 537 374.005859375 l 1
 525 384.005859375 l 1
 519.5 389.505859375 l 2
 515.833007812 393.172851562 513.333007812 396.005859375 512 398.005859375 c 0
 508.666992188 401.338867188 503.833984375 405.005859375 497.500976562 409.005859375 c 0
 491.16796875 413.005859375 484.000976562 417.005859375 476.000976562 421.005859375 c 2
 451.000976562 433.505859375 l 1
 428.000976562 445.005859375 l 1
 412.000976562 449.005859375 l 1
 410.66796875 468.338867188 409.834960938 487.671875 409.501953125 507.004882812 c 0
 409.168945312 526.337890625 409.001953125 545.670898438 409.001953125 565.00390625 c 2
 417.001953125 683.00390625 l 1
 412.334960938 679.00390625 408.001953125 672.836914062 404.001953125 664.50390625 c 0
 400.001953125 656.170898438 396.334960938 647.337890625 393.001953125 638.004882812 c 0
 389.668945312 628.671875 386.668945312 619.504882812 384.001953125 610.504882812 c 0
 381.334960938 601.504882812 379.001953125 594.337890625 377.001953125 589.004882812 c 0
 375.001953125 584.337890625 372.668945312 576.670898438 370.001953125 566.00390625 c 0
 367.334960938 555.336914062 364.66796875 544.169921875 362.000976562 532.502929688 c 0
 359.333984375 520.8359375 357.000976562 510.3359375 355.000976562 501.002929688 c 0
 353.000976562 491.669921875 351.66796875 486.002929688 351.000976562 484.002929688 c 0
 349.000976562 478.669921875 347.000976562 468.669921875 345.000976562 454.002929688 c 1
 233.000976562 485.002929688 l 1
 220.000976562 479.002929688 l 1
 218.66796875 498.3359375 217.500976562 517.668945312 216.500976562 537.001953125 c 0
 215.500976562 556.334960938 215.000976562 575.66796875 215.000976562 595.000976562 c 2
 215.000976562 713.000976562 l 1
 210.333984375 709.000976562 206.000976562 702.833984375 202.000976562 694.500976562 c 0
 198.000976562 686.16796875 194.333984375 677.334960938 191.000976562 668.001953125 c 0
 187.66796875 658.668945312 184.66796875 649.501953125 182.000976562 640.501953125 c 0
 179.333984375 631.501953125 177.000976562 624.334960938 175.000976562 619.001953125 c 0
 173.000976562 614.334960938 170.66796875 607.334960938 168.000976562 598.001953125 c 0
 165.333984375 588.668945312 162.666992188 579.001953125 160 569.001953125 c 0
 157.333007812 559.001953125 155 550.001953125 153 542.001953125 c 0
 151 534.001953125 149.666992188 529.001953125 149 527.001953125 c 0
 147 521.668945312 145 511.668945312 143 497.001953125 c 1
 13 531.001953125 l 1
 15 525.668945312 16.3330078125 519.668945312 17 513.001953125 c 0
 17.6669921875 506.334960938 18 499.66796875 18 493.000976562 c 0
 18.6669921875 484.333984375 19.1669921875 477.500976562 19.5 472.500976562 c 0
 19.8330078125 467.500976562 20 463.333984375 20 460.000976562 c 0
 20 456.000976562 20.1669921875 452.16796875 20.5 448.500976562 c 0
 20.8330078125 444.833984375 21 439.666992188 21 433 c 2
 15 403 l 1
 115 412 l 2
 117.666992188 412.666992188 120 413.166992188 122 413.5 c 0
 124 413.833007812 126 414 128 414 c 2
324.99609375 313.000976562 m 1
 242.99609375 328.001953125 l 2
 242.329101562 327.334960938 240.99609375 327.001953125 238.99609375 327.001953125 c 0
 236.99609375 327.001953125 235.663085938 326.668945312 234.99609375 326.001953125 c 1
 231.663085938 340.001953125 228.99609375 353.668945312 226.99609375 367.001953125 c 0
 224.99609375 380.334960938 222.99609375 394.001953125 220.99609375 408.001953125 c 1
 239.99609375 407.001953125 l 1
 297.99609375 396.001953125 l 2
 298.663085938 395.334960938 300.99609375 394.66796875 304.99609375 394.000976562 c 0
 308.99609375 393.333984375 312.99609375 392.500976562 316.99609375 391.500976562 c 0
 320.99609375 390.500976562 324.829101562 389.66796875 328.49609375 389.000976562 c 2
 333.99609375 388.000976562 l 1
 324.99609375 313.000976562 l 1
EndSplineSet
EndChar

StartChar: dollar
Encoding: 36 36 6
Width: 448
GlyphClass: 2
Flags: W
LayerCount: 2
Fore
SplineSet
286 658 m 1
 296.00390625 702.995117188 l 1
 299.00390625 727.995117188 l 1
 232.00390625 708.995117188 l 2
 228.00390625 706.995117188 224.00390625 705.995117188 220.00390625 705.995117188 c 0
 215.336914062 705.995117188 210.00390625 706.495117188 204.00390625 707.495117188 c 0
 198.00390625 708.495117188 191.336914062 708.995117188 184.00390625 708.995117188 c 2
 171.00390625 707.995117188 l 2
 170.336914062 708.662109375 171.336914062 704.329101562 174.00390625 694.99609375 c 0
 176.670898438 685.663085938 179.670898438 675.330078125 183.00390625 663.997070312 c 0
 186.336914062 652.6640625 189.336914062 642.1640625 192.00390625 632.497070312 c 0
 194.670898438 622.830078125 195.670898438 618.330078125 195.00390625 618.997070312 c 1
 195.00390625 614.997070312 195.336914062 611.330078125 196.00390625 607.997070312 c 2
 198.00390625 597.997070312 l 1
 162.00390625 584.6640625 129.336914062 565.1640625 100.00390625 539.497070312 c 0
 70.6708984375 513.830078125 45.6708984375 480.997070312 25.00390625 440.997070312 c 0
 21.6708984375 434.330078125 18.6708984375 427.163085938 16.00390625 419.49609375 c 0
 13.3369140625 411.829101562 12.00390625 403.99609375 12.00390625 395.99609375 c 1
 35.3369140625 395.99609375 59.169921875 394.329101562 83.5029296875 390.99609375 c 0
 107.8359375 387.663085938 131.3359375 380.663085938 154.002929688 369.99609375 c 0
 174.002929688 360.663085938 193.502929688 348.830078125 212.502929688 334.497070312 c 0
 231.502929688 320.1640625 248.502929688 303.497070312 263.502929688 284.497070312 c 0
 278.502929688 265.497070312 290.502929688 244.1640625 299.502929688 220.497070312 c 0
 308.502929688 196.830078125 313.002929688 171.330078125 313.002929688 143.997070312 c 0
 313.002929688 140.6640625 311.3359375 138.997070312 308.002929688 138.997070312 c 0
 291.3359375 138.997070312 274.168945312 141.497070312 256.501953125 146.497070312 c 0
 238.834960938 151.497070312 221.501953125 158.330078125 204.501953125 166.997070312 c 0
 187.501953125 175.6640625 171.501953125 185.6640625 156.501953125 196.997070312 c 0
 141.501953125 208.330078125 128.668945312 220.330078125 118.001953125 232.997070312 c 0
 110.668945312 240.330078125 103.168945312 249.997070312 95.501953125 261.997070312 c 0
 87.8349609375 273.997070312 80.001953125 282.997070312 72.001953125 288.997070312 c 1
 69.001953125 288.997070312 l 1
 61.6689453125 281.6640625 54.6689453125 271.831054688 48.001953125 259.498046875 c 0
 41.3349609375 247.165039062 35.501953125 233.83203125 30.501953125 219.499023438 c 0
 25.501953125 205.166015625 21.501953125 190.666015625 18.501953125 175.999023438 c 0
 15.501953125 161.33203125 14.001953125 148.665039062 14.001953125 137.998046875 c 0
 14.001953125 131.998046875 17.1689453125 127.165039062 23.501953125 123.498046875 c 0
 29.8349609375 119.831054688 35.66796875 115.6640625 41.0009765625 110.997070312 c 2
 50.0009765625 106.997070312 l 2
 53.333984375 105.6640625 57.5009765625 103.6640625 62.5009765625 100.997070312 c 0
 67.5009765625 98.330078125 70.66796875 96.330078125 72.0009765625 94.9970703125 c 0
 74.0009765625 94.330078125 77.833984375 93.1630859375 83.5009765625 91.49609375 c 0
 89.16796875 89.8291015625 93.0009765625 88.99609375 95.0009765625 88.99609375 c 0
 97.0009765625 87.6630859375 99.16796875 86.830078125 101.500976562 86.4970703125 c 0
 103.833984375 86.1640625 106.666992188 85.3310546875 110 83.998046875 c 0
 118 81.998046875 122.833007812 80.6650390625 124.5 79.998046875 c 0
 126.166992188 79.3310546875 128.666992188 78.998046875 132 78.998046875 c 0
 138 77.6650390625 144.333007812 76.6650390625 151 75.998046875 c 0
 157.666992188 75.3310546875 162 74.998046875 164 74.998046875 c 2
 169 74.998046875 l 2
 170.333007812 74.998046875 172.166015625 74.8310546875 174.499023438 74.498046875 c 0
 176.83203125 74.1650390625 179.33203125 73.998046875 181.999023438 73.998046875 c 2
 212.999023438 64.998046875 l 1
 216.999023438 43.6650390625 220.33203125 26.6650390625 222.999023438 13.998046875 c 0
 225.666015625 1.3310546875 227.666015625 -10.001953125 228.999023438 -20.001953125 c 0
 230.33203125 -30.001953125 231.499023438 -39.501953125 232.499023438 -48.501953125 c 0
 233.499023438 -57.501953125 234.33203125 -68.6689453125 234.999023438 -82.001953125 c 1
 240.999023438 -72.001953125 246.33203125 -63.501953125 250.999023438 -56.501953125 c 0
 255.666015625 -49.501953125 259.666015625 -42.501953125 262.999023438 -35.501953125 c 0
 266.33203125 -28.501953125 269.499023438 -20.501953125 272.499023438 -11.501953125 c 0
 275.499023438 -2.501953125 278.33203125 8.998046875 280.999023438 22.998046875 c 2
 283.999023438 47.998046875 l 1
 291.999023438 82.998046875 l 1
 325.999023438 90.998046875 355.83203125 105.998046875 381.499023438 127.998046875 c 0
 407.166015625 149.998046875 424.666015625 183.665039062 433.999023438 228.998046875 c 2
 435.499023438 236.498046875 l 2
 435.83203125 238.165039062 435.999023438 239.33203125 435.999023438 239.999023438 c 0
 435.999023438 244.666015625 433.666015625 251.333007812 428.999023438 260 c 0
 428.999023438 261.333007812 426.83203125 264.833007812 422.499023438 270.5 c 0
 418.166015625 276.166992188 415.333007812 280 414 282 c 0
 394.666992188 310 374.5 333.666992188 353.5 353 c 0
 332.5 372.333007812 308 388.333007812 280 401 c 0
 268.666992188 406.333007812 257.666992188 410.333007812 247 413 c 0
 236.333007812 415.666992188 225.666015625 420 214.999023438 426 c 0
 212.999023438 426.666992188 209.33203125 427.5 203.999023438 428.5 c 0
 198.666015625 429.5 192.999023438 430.333007812 186.999023438 431 c 0
 180.999023438 431.666992188 175.499023438 432.166992188 170.499023438 432.5 c 0
 165.499023438 432.833007812 161.999023438 433 159.999023438 433 c 0
 143.33203125 433.666992188 129.499023438 434.5 118.499023438 435.5 c 0
 107.499023438 436.5 98.666015625 439 91.9990234375 443 c 0
 91.33203125 443 90.9990234375 443.666992188 90.9990234375 445 c 2
 92.9990234375 452 l 1
 116.33203125 469.333007812 138.165039062 481 158.498046875 487 c 0
 178.831054688 493 202.998046875 496 230.998046875 496 c 0
 259.665039062 496 285.83203125 491.333007812 309.499023438 482 c 0
 333.166015625 472.666992188 357.333007812 460.666992188 382 446 c 1
 385 445 l 1
 385 453 383.333007812 466.5 380 485.5 c 0
 376.666992188 504.5 372 524 366 544 c 0
 360 564 353.333007812 581.666992188 346 597 c 0
 338.666992188 612.333007812 331 620 323 620 c 0
 316.333007812 620 310 619.833007812 304 619.5 c 0
 298 619.166992188 292 618.666992188 286 618 c 1
 286 658 l 1
EndSplineSet
EndChar

StartChar: percent
Encoding: 37 37 7
Width: 458
GlyphClass: 2
Flags: W
LayerCount: 2
Fore
SplineSet
235 308 m 1
 336.998046875 443.99609375 l 2
 345.665039062 452.663085938 354.665039062 463.99609375 363.998046875 477.99609375 c 0
 373.331054688 491.99609375 381.998046875 506.663085938 389.998046875 521.99609375 c 0
 397.998046875 537.329101562 404.498046875 552.662109375 409.498046875 567.995117188 c 0
 414.498046875 583.328125 416.998046875 596.661132812 416.998046875 607.994140625 c 2
 415.998046875 623.994140625 l 2
 415.331054688 624.661132812 414.331054688 625.328125 412.998046875 625.995117188 c 0
 411.665039062 626.662109375 409.998046875 628.329101562 407.998046875 630.99609375 c 0
 407.331054688 631.663085938 406.831054688 632.330078125 406.498046875 632.997070312 c 0
 406.165039062 633.6640625 405.33203125 634.331054688 403.999023438 634.998046875 c 0
 395.999023438 641.665039062 386.666015625 649.33203125 375.999023438 657.999023438 c 0
 365.33203125 666.666015625 354.33203125 674.666015625 342.999023438 681.999023438 c 0
 331.666015625 689.33203125 320.166015625 695.499023438 308.499023438 700.499023438 c 0
 296.83203125 705.499023438 285.665039062 707.999023438 274.998046875 707.999023438 c 2
 266.998046875 706.999023438 l 2
 265.665039062 706.33203125 263.998046875 704.83203125 261.998046875 702.499023438 c 0
 259.998046875 700.166015625 258.331054688 697.999023438 256.998046875 695.999023438 c 2
 256.998046875 685.999023438 l 2
 256.998046875 679.999023438 257.331054688 676.666015625 257.998046875 675.999023438 c 0
 259.331054688 662.666015625 260.498046875 647.666015625 261.498046875 630.999023438 c 0
 262.498046875 614.33203125 262.998046875 596.665039062 262.998046875 577.998046875 c 0
 262.998046875 560.665039062 261.831054688 542.83203125 259.498046875 524.499023438 c 0
 257.165039062 506.166015625 250.998046875 484.999023438 240.998046875 460.999023438 c 0
 230.998046875 436.999023438 215.498046875 409.33203125 194.498046875 377.999023438 c 0
 173.498046875 346.666015625 144.331054688 309.666015625 106.998046875 266.999023438 c 0
 98.3310546875 258.33203125 89.3310546875 246.999023438 79.998046875 232.999023438 c 0
 70.6650390625 218.999023438 61.998046875 204.33203125 53.998046875 188.999023438 c 0
 45.998046875 173.666015625 39.3310546875 158.333007812 33.998046875 143 c 0
 28.6650390625 127.666992188 25.998046875 114.333984375 25.998046875 103.000976562 c 2
 27.998046875 87.0009765625 l 1
 32.998046875 82.0009765625 l 2
 40.998046875 75.333984375 50.6650390625 67.5009765625 61.998046875 58.5009765625 c 0
 73.3310546875 49.5009765625 85.1640625 40.833984375 97.4970703125 32.5009765625 c 0
 109.830078125 24.16796875 122.330078125 17.16796875 134.997070312 11.5009765625 c 0
 147.6640625 5.833984375 159.331054688 3.0009765625 169.998046875 3.0009765625 c 2
 177.998046875 3.0009765625 l 2
 179.331054688 3.66796875 180.998046875 5.16796875 182.998046875 7.5009765625 c 0
 184.998046875 9.833984375 186.665039062 12.0009765625 187.998046875 14.0009765625 c 2
 185.998046875 41.0009765625 l 2
 184.665039062 53.0009765625 183.83203125 66.5009765625 183.499023438 81.5009765625 c 0
 183.166015625 96.5009765625 182.999023438 111.66796875 182.999023438 127.000976562 c 0
 182.999023438 145.000976562 183.666015625 163.16796875 184.999023438 181.500976562 c 0
 186.33203125 199.833984375 188.83203125 217.166992188 192.499023438 233.5 c 0
 196.166015625 249.833007812 201.333007812 264.5 208 277.5 c 0
 214.666992188 290.5 223.666992188 300.666992188 235 308 c 1
204.998046875 603.99609375 m 0
 204.998046875 614.663085938 204.165039062 626.49609375 202.498046875 639.49609375 c 0
 200.831054688 652.49609375 198.331054688 665.49609375 194.998046875 678.49609375 c 0
 191.665039062 691.49609375 186.83203125 703.663085938 180.499023438 714.99609375 c 0
 174.166015625 726.329101562 166.666015625 735.662109375 157.999023438 742.995117188 c 1
 157.999023438 739.662109375 158.166015625 737.162109375 158.499023438 735.495117188 c 0
 158.83203125 733.828125 158.999023438 731.995117188 158.999023438 729.995117188 c 0
 158.999023438 724.662109375 157.33203125 719.329101562 153.999023438 713.99609375 c 2
 148.999023438 708.99609375 l 1
 89.9990234375 755.99609375 l 1
 80.9990234375 750.99609375 l 2
 54.33203125 736.99609375 36.1650390625 718.49609375 26.498046875 695.49609375 c 0
 16.8310546875 672.49609375 11.998046875 645.99609375 11.998046875 615.99609375 c 0
 11.998046875 585.99609375 16.8310546875 558.163085938 26.498046875 532.49609375 c 0
 36.1650390625 506.829101562 48.6650390625 481.329101562 63.998046875 455.99609375 c 1
 64.498046875 454.49609375 l 2
 64.8310546875 453.49609375 64.998046875 452.663085938 64.998046875 451.99609375 c 0
 64.998046875 447.99609375 63.3310546875 445.329101562 59.998046875 443.99609375 c 0
 56.6650390625 442.663085938 54.998046875 440.330078125 54.998046875 436.997070312 c 0
 54.998046875 433.6640625 57.6650390625 429.6640625 62.998046875 424.997070312 c 0
 68.3310546875 420.330078125 74.498046875 415.830078125 81.498046875 411.497070312 c 0
 88.498046875 407.1640625 95.6650390625 403.1640625 102.998046875 399.497070312 c 0
 110.331054688 395.830078125 115.998046875 393.663085938 119.998046875 392.99609375 c 2
 120.498046875 392.49609375 l 2
 120.831054688 392.163085938 121.331054688 391.99609375 121.998046875 391.99609375 c 0
 122.665039062 391.99609375 123.165039062 392.163085938 123.498046875 392.49609375 c 2
 123.998046875 392.99609375 l 1
 131.998046875 400.99609375 l 1
 152.665039062 431.663085938 169.998046875 463.663085938 183.998046875 496.99609375 c 0
 197.998046875 530.329101562 204.998046875 565.99609375 204.998046875 603.99609375 c 0
133.998046875 634.99609375 m 2
 133.998046875 627.663085938 133.1640625 617.663085938 131.497070312 604.99609375 c 0
 129.830078125 592.329101562 127.330078125 579.662109375 123.997070312 566.995117188 c 0
 120.6640625 554.328125 116.6640625 543.328125 111.997070312 533.995117188 c 0
 107.330078125 524.662109375 101.663085938 519.995117188 94.99609375 519.995117188 c 0
 90.99609375 519.995117188 88.49609375 522.662109375 87.49609375 527.995117188 c 0
 86.49609375 533.328125 85.99609375 538.995117188 85.99609375 544.995117188 c 2
 85.99609375 557.995117188 l 2
 85.99609375 565.995117188 86.3291015625 575.828125 86.99609375 587.495117188 c 0
 87.6630859375 599.162109375 89.330078125 610.495117188 91.9970703125 621.495117188 c 0
 94.6640625 632.495117188 98.4970703125 641.828125 103.497070312 649.495117188 c 0
 108.497070312 657.162109375 115.6640625 660.995117188 124.997070312 660.995117188 c 0
 128.330078125 660.995117188 130.330078125 660.328125 130.997070312 658.995117188 c 0
 131.6640625 657.662109375 132.331054688 655.329101562 132.998046875 651.99609375 c 2
 133.998046875 647.99609375 l 1
 133.998046875 634.99609375 l 2
442.997070312 172.99609375 m 0
 442.997070312 183.663085938 442.1640625 195.49609375 440.497070312 208.49609375 c 0
 438.830078125 221.49609375 436.330078125 234.49609375 432.997070312 247.49609375 c 0
 429.6640625 260.49609375 424.831054688 272.663085938 418.498046875 283.99609375 c 0
 412.165039062 295.329101562 404.665039062 304.662109375 395.998046875 311.995117188 c 1
 395.998046875 308.662109375 396.165039062 306.162109375 396.498046875 304.495117188 c 0
 396.831054688 302.828125 396.998046875 300.995117188 396.998046875 298.995117188 c 0
 396.998046875 293.662109375 395.331054688 288.329101562 391.998046875 282.99609375 c 2
 386.998046875 277.99609375 l 1
 327.998046875 324.99609375 l 1
 318.998046875 319.99609375 l 2
 292.331054688 305.99609375 274.1640625 287.49609375 264.497070312 264.49609375 c 0
 254.830078125 241.49609375 249.997070312 214.99609375 249.997070312 184.99609375 c 0
 249.997070312 154.99609375 254.830078125 127.163085938 264.497070312 101.49609375 c 0
 274.1640625 75.8291015625 286.6640625 50.3291015625 301.997070312 24.99609375 c 1
 302.497070312 23.49609375 l 2
 302.830078125 22.49609375 302.997070312 21.6630859375 302.997070312 20.99609375 c 0
 302.997070312 16.99609375 301.330078125 14.3291015625 297.997070312 12.99609375 c 0
 294.6640625 11.6630859375 292.997070312 9.330078125 292.997070312 5.9970703125 c 0
 292.997070312 2.6640625 295.6640625 -1.3359375 300.997070312 -6.0029296875 c 0
 306.330078125 -10.669921875 312.497070312 -15.169921875 319.497070312 -19.5029296875 c 0
 326.497070312 -23.8359375 333.6640625 -27.8359375 340.997070312 -31.5029296875 c 0
 348.330078125 -35.169921875 353.997070312 -37.3369140625 357.997070312 -38.00390625 c 2
 358.497070312 -38.50390625 l 2
 358.830078125 -38.8369140625 359.330078125 -39.00390625 359.997070312 -39.00390625 c 0
 360.6640625 -39.00390625 361.1640625 -38.8369140625 361.497070312 -38.50390625 c 2
 361.997070312 -38.00390625 l 1
 369.997070312 -30.00390625 l 1
 390.6640625 0.6630859375 407.997070312 32.6630859375 421.997070312 65.99609375 c 0
 435.997070312 99.3291015625 442.997070312 134.99609375 442.997070312 172.99609375 c 0
371.997070312 203.99609375 m 2
 371.997070312 196.663085938 371.163085938 186.663085938 369.49609375 173.99609375 c 0
 367.829101562 161.329101562 365.329101562 148.662109375 361.99609375 135.995117188 c 0
 358.663085938 123.328125 354.663085938 112.328125 349.99609375 102.995117188 c 0
 345.329101562 93.662109375 339.662109375 88.9951171875 332.995117188 88.9951171875 c 0
 328.995117188 88.9951171875 326.495117188 91.662109375 325.495117188 96.9951171875 c 0
 324.495117188 102.328125 323.995117188 107.995117188 323.995117188 113.995117188 c 2
 323.995117188 126.995117188 l 2
 323.995117188 134.995117188 324.328125 144.828125 324.995117188 156.495117188 c 0
 325.662109375 168.162109375 327.329101562 179.495117188 329.99609375 190.495117188 c 0
 332.663085938 201.495117188 336.49609375 210.828125 341.49609375 218.495117188 c 0
 346.49609375 226.162109375 353.663085938 229.995117188 362.99609375 229.995117188 c 0
 366.329101562 229.995117188 368.329101562 229.328125 368.99609375 227.995117188 c 0
 369.663085938 226.662109375 370.330078125 224.329101562 370.997070312 220.99609375 c 2
 371.997070312 216.99609375 l 1
 371.997070312 203.99609375 l 2
EndSplineSet
EndChar

StartChar: ampersand
Encoding: 38 38 8
Width: 530
GlyphClass: 2
Flags: W
LayerCount: 2
Fore
SplineSet
402 349 m 2
 367 351 l 1
 343.666992188 358.333007812 322.666992188 365.5 304 372.5 c 0
 285.333007812 379.5 274.333007812 383.666992188 271 385 c 0
 259.666992188 391 248.166992188 398.166992188 236.5 406.5 c 0
 224.833007812 414.833007812 214.166015625 423.833007812 204.499023438 433.5 c 0
 194.83203125 443.166992188 186.999023438 453.5 180.999023438 464.5 c 0
 174.999023438 475.5 171.999023438 487 171.999023438 499 c 0
 171.999023438 513 175.999023438 524 183.999023438 532 c 0
 191.999023438 540 201.999023438 546.166992188 213.999023438 550.5 c 0
 225.999023438 554.833007812 238.999023438 557.833007812 252.999023438 559.5 c 0
 266.999023438 561.166992188 279.999023438 562.333984375 291.999023438 563.000976562 c 2
 297.999023438 563.000976562 l 1
 285.999023438 512.000976562 l 1
 301.33203125 498.66796875 315.165039062 487.66796875 327.498046875 479.000976562 c 0
 339.831054688 470.333984375 347.6640625 462.000976562 350.997070312 454.000976562 c 1
 425.997070312 521.000976562 l 2
 431.330078125 523.66796875 437.330078125 525.66796875 443.997070312 527.000976562 c 0
 450.6640625 528.333984375 456.997070312 529.666992188 462.997070312 531 c 0
 468.997070312 532.333007812 473.997070312 533.666015625 477.997070312 534.999023438 c 0
 481.997070312 536.33203125 483.997070312 538.665039062 483.997070312 541.998046875 c 0
 483.997070312 550.665039062 479.997070312 561.165039062 471.997070312 573.498046875 c 0
 463.997070312 585.831054688 453.830078125 598.6640625 441.497070312 611.997070312 c 0
 429.1640625 625.330078125 415.6640625 638.663085938 400.997070312 651.99609375 c 0
 386.330078125 665.329101562 372.663085938 676.99609375 359.99609375 686.99609375 c 1
 343.99609375 692.99609375 l 1
 305.99609375 608.99609375 l 1
 251.99609375 663.99609375 l 1
 220.99609375 660.99609375 l 2
 195.663085938 660.99609375 172.163085938 658.663085938 150.49609375 653.99609375 c 0
 128.829101562 649.329101562 110.162109375 641.49609375 94.4951171875 630.49609375 c 0
 78.828125 619.49609375 66.4951171875 604.99609375 57.4951171875 586.99609375 c 0
 48.4951171875 568.99609375 43.9951171875 546.663085938 43.9951171875 519.99609375 c 2
 43.9951171875 516.99609375 l 2
 43.9951171875 501.663085938 45.828125 487.830078125 49.4951171875 475.497070312 c 0
 53.162109375 463.1640625 58.3291015625 451.497070312 64.99609375 440.497070312 c 0
 71.6630859375 429.497070312 79.6630859375 418.830078125 88.99609375 408.497070312 c 0
 98.3291015625 398.1640625 108.329101562 387.331054688 118.99609375 375.998046875 c 1
 90.3291015625 373.331054688 66.49609375 364.331054688 47.49609375 348.998046875 c 0
 28.49609375 333.665039062 18.99609375 307.33203125 18.99609375 269.999023438 c 0
 18.99609375 251.999023438 21.8291015625 231.999023438 27.49609375 209.999023438 c 0
 33.1630859375 187.999023438 40.830078125 166.499023438 50.4970703125 145.499023438 c 0
 60.1640625 124.499023438 71.1640625 104.83203125 83.4970703125 86.4990234375 c 0
 95.830078125 68.166015625 108.997070312 53.3330078125 122.997070312 42 c 0
 148.997070312 18 181.330078125 0 219.997070312 -12 c 1
 250.997070312 63 l 1
 299.997070312 12 l 2
 300.6640625 11.3330078125 303.331054688 11 307.998046875 11 c 2
 315.998046875 11 l 1
 331.998046875 11 l 2
 361.998046875 11 385.831054688 12 403.498046875 14 c 0
 421.165039062 16 434.83203125 22 444.499023438 32 c 0
 454.166015625 42 460.333007812 57.3330078125 463 78 c 0
 465.666992188 98.6669921875 467 127.666992188 467 165 c 0
 467 178.333007812 465.833007812 192.666015625 463.5 207.999023438 c 0
 461.166992188 223.33203125 457.666992188 236.665039062 453 247.998046875 c 1
 512 231.998046875 l 1
 510 237.331054688 508.666992188 243.331054688 508 249.998046875 c 0
 507.333007812 256.665039062 507 263.33203125 507 269.999023438 c 0
 506.333007812 278.666015625 505.833007812 285.499023438 505.5 290.499023438 c 0
 505.166992188 295.499023438 505 299.666015625 505 302.999023438 c 0
 505 306.999023438 504.833007812 310.83203125 504.5 314.499023438 c 0
 504.166992188 318.166015625 504 323.333007812 504 330 c 2
 510 360 l 1
 415 351 l 2
 412.333007812 350.333007812 410 349.833007812 408 349.5 c 0
 406 349.166992188 404 349 402 349 c 2
306 106 m 1
 227 134 l 1
 205.666992188 148.666992188 187.5 166.166992188 172.5 186.5 c 0
 157.5 206.833007812 150 229.666015625 150 254.999023438 c 0
 150 262.999023438 152 270.666015625 156 277.999023438 c 0
 160 285.33203125 165 291.83203125 171 297.499023438 c 0
 177 303.166015625 183.5 307.999023438 190.5 311.999023438 c 0
 197.5 315.999023438 204.333007812 318.999023438 211 320.999023438 c 1
 216.333007812 318.33203125 222 315.83203125 228 313.499023438 c 0
 234 311.166015625 240.333007812 308.999023438 247 306.999023438 c 0
 269.666992188 293.666015625 289.833984375 277.666015625 307.500976562 258.999023438 c 0
 325.16796875 240.33203125 334.000976562 219.33203125 334.000976562 195.999023438 c 0
 334.000976562 187.999023438 334.66796875 178.33203125 336.000976562 166.999023438 c 0
 337.333984375 155.666015625 338.000976562 146.333007812 338.000976562 139 c 0
 338.000976562 131.666992188 336.66796875 125 334.000976562 119 c 0
 331.333984375 113 325.666992188 108 317 104 c 1
 306 106 l 1
EndSplineSet
EndChar

StartChar: quotesingle
Encoding: 39 39 9
Width: 164
GlyphClass: 2
Flags: W
LayerCount: 2
Fore
SplineSet
56 592 m 1
 31 523.001953125 l 1
 51 529.668945312 67.3330078125 536.001953125 80 542.001953125 c 0
 92.6669921875 548.001953125 103 555.001953125 111 563.001953125 c 0
 119 571.001953125 125.333007812 580.668945312 130 592.001953125 c 0
 134.666992188 603.334960938 138.666992188 617.66796875 142 635.000976562 c 0
 142.666992188 639.000976562 143.166992188 645.66796875 143.5 655.000976562 c 0
 143.833007812 664.333984375 144 670.666992188 144 674 c 2
 142.5 679 l 2
 141.5 682.333007812 140.333007812 686 139 690 c 0
 137.666992188 694 136 697.666992188 134 701 c 0
 132 704.333007812 129.666992188 706 127 706 c 2
 88 710 l 1
 85 709 l 1
 80 709 l 2
 75.3330078125 709 69.8330078125 708.833007812 63.5 708.5 c 0
 57.1669921875 708.166992188 51 707.5 45 706.5 c 0
 39 705.5 33.8330078125 704.333007812 29.5 703 c 0
 25.1669921875 701.666992188 22.6669921875 699.666992188 22 697 c 2
 22 663 l 1
 29.3330078125 651 36.5 641.833007812 43.5 635.5 c 0
 50.5 629.166992188 54 619.666992188 54 607 c 2
 56 592 l 1
EndSplineSet
EndChar

StartChar: parenleft
Encoding: 40 40 10
Width: 309
GlyphClass: 2
Flags: W
LayerCount: 2
Fore
SplineSet
133 234 m 0
 131 270.666992188 129.998046875 299.666992188 129.998046875 321 c 0
 129.998046875 333.666992188 130.165039062 343.833984375 130.498046875 351.500976562 c 0
 130.831054688 359.16796875 131.331054688 364.66796875 131.998046875 368.000976562 c 0
 145.331054688 408.000976562 160.498046875 443.16796875 177.498046875 473.500976562 c 0
 194.498046875 503.833984375 210.665039062 529.166992188 225.998046875 549.5 c 0
 241.331054688 569.833007812 254.831054688 585.666015625 266.498046875 596.999023438 c 0
 278.165039062 608.33203125 285.665039062 615.33203125 288.998046875 617.999023438 c 2
 295.998046875 623.999023438 l 1
 178.998046875 715.999023438 l 1
 160.998046875 706.999023438 l 1
 108.998046875 676.33203125 72.3310546875 638.83203125 50.998046875 594.499023438 c 0
 29.6650390625 550.166015625 18.998046875 497.666015625 18.998046875 436.999023438 c 0
 18.998046875 393.666015625 22.6650390625 354.499023438 29.998046875 319.499023438 c 0
 37.3310546875 284.499023438 46.998046875 250.83203125 58.998046875 218.499023438 c 0
 70.998046875 186.166015625 84.8310546875 153.666015625 100.498046875 120.999023438 c 0
 116.165039062 88.33203125 132.33203125 52.9990234375 148.999023438 14.9990234375 c 0
 150.999023438 9.666015625 156.33203125 5.3330078125 164.999023438 2 c 0
 173.666015625 -1.3330078125 180.333007812 -3 185 -3 c 0
 188.333007812 -3 192.166015625 -1.8330078125 196.499023438 0.5 c 0
 200.83203125 2.8330078125 202.999023438 5.666015625 202.999023438 8.9990234375 c 1
 202.999023438 7.666015625 202.83203125 7.3330078125 202.499023438 8 c 0
 202.166015625 8.6669921875 201.666015625 10.6669921875 200.999023438 14 c 0
 192.33203125 30 183.83203125 49.5 175.499023438 72.5 c 0
 167.166015625 95.5 159.833007812 118 153.5 140 c 0
 147.166992188 162 142.166992188 181.833007812 138.5 199.5 c 0
 134.833007812 217.166992188 133 228.666992188 133 234 c 0
EndSplineSet
EndChar

StartChar: parenright
Encoding: 41 41 11
Width: 315
GlyphClass: 2
Flags: W
LayerCount: 2
Fore
SplineSet
180 480 m 0
 182 442.666992188 183.00390625 413.66796875 183.00390625 393.000976562 c 0
 183.00390625 380.333984375 182.836914062 370.166992188 182.50390625 362.5 c 0
 182.170898438 354.833007812 181.670898438 349.333007812 181.00390625 346 c 0
 167.670898438 305.333007812 152.50390625 270 135.50390625 240 c 0
 118.50390625 210 102.170898438 184.833007812 86.50390625 164.5 c 0
 70.8369140625 144.166992188 57.169921875 128.333984375 45.5029296875 117.000976562 c 0
 33.8359375 105.66796875 26.6689453125 98.66796875 24.001953125 96.0009765625 c 2
 17.001953125 90.0009765625 l 1
 134.001953125 -1.9990234375 l 1
 152.001953125 7.0009765625 l 1
 204.001953125 37.66796875 240.668945312 75.16796875 262.001953125 119.500976562 c 0
 283.334960938 163.833984375 294.001953125 216.333984375 294.001953125 277.000976562 c 0
 294.001953125 320.333984375 290.334960938 359.500976562 283.001953125 394.500976562 c 0
 275.668945312 429.500976562 266.001953125 463.16796875 254.001953125 495.500976562 c 0
 242.001953125 527.833984375 228.168945312 560.333984375 212.501953125 593.000976562 c 0
 196.834960938 625.66796875 180.66796875 661.000976562 164.000976562 699.000976562 c 0
 162.000976562 704.333984375 156.66796875 708.666992188 148.000976562 712 c 0
 139.333984375 715.333007812 132.666992188 717 128 717 c 0
 124.666992188 717 120.833984375 715.833007812 116.500976562 713.5 c 0
 112.16796875 711.166992188 110.000976562 708.333984375 110.000976562 705.000976562 c 1
 110.000976562 706.333984375 110.16796875 706.666992188 110.500976562 706 c 0
 110.833984375 705.333007812 111.333984375 703.333007812 112.000976562 700 c 0
 120.66796875 684 129.16796875 664.5 137.500976562 641.5 c 0
 145.833984375 618.5 153.166992188 596 159.5 574 c 0
 165.833007812 552 170.833007812 532.166992188 174.5 514.5 c 0
 178.166992188 496.833007812 180 485.333007812 180 480 c 0
EndSplineSet
EndChar

StartChar: asterisk
Encoding: 42 42 12
Width: 271
GlyphClass: 2
Flags: W
LayerCount: 2
Fore
SplineSet
178 617 m 1
 211.001953125 644.002929688 l 1
 211.001953125 647.002929688 l 1
 242.001953125 675.002929688 l 1
 254.001953125 692.002929688 l 1
 206.001953125 721.002929688 l 2
 200.001953125 722.3359375 194.501953125 725.168945312 189.501953125 729.501953125 c 2
 167.001953125 749.001953125 l 1
 138.001953125 691.001953125 l 1
 126.001953125 672.001953125 l 1
 59.001953125 750.001953125 l 1
 55.001953125 751.001953125 l 1
 52.001953125 738.001953125 l 1
 52.001953125 722.001953125 l 2
 52.001953125 718.001953125 52.8349609375 713.001953125 54.501953125 707.001953125 c 0
 56.1689453125 701.001953125 58.1689453125 694.501953125 60.501953125 687.501953125 c 0
 62.8349609375 680.501953125 65.3349609375 673.501953125 68.001953125 666.501953125 c 0
 70.6689453125 659.501953125 73.001953125 653.334960938 75.001953125 648.001953125 c 2
 89.001953125 625.001953125 l 1
 73.001953125 603.001953125 l 2
 66.3349609375 593.668945312 60.8349609375 585.501953125 56.501953125 578.501953125 c 0
 52.1689453125 571.501953125 48.1689453125 565.001953125 44.501953125 559.001953125 c 0
 40.8349609375 553.001953125 37.001953125 547.168945312 33.001953125 541.501953125 c 0
 29.001953125 535.834960938 24.001953125 529.66796875 18.001953125 523.000976562 c 1
 26.6689453125 525.66796875 34.6689453125 528.000976562 42.001953125 530.000976562 c 0
 49.3349609375 532.000976562 56.3349609375 534.16796875 63.001953125 536.500976562 c 0
 69.6689453125 538.833984375 76.6689453125 541.833984375 84.001953125 545.500976562 c 0
 91.3349609375 549.16796875 99.66796875 554.000976562 109.000976562 560.000976562 c 2
 126.000976562 573.000976562 l 1
 172.000976562 492.000976562 l 1
 174.000976562 496.66796875 176.66796875 501.000976562 180.000976562 505.000976562 c 0
 183.333984375 509.000976562 186.666992188 512.66796875 190 516.000976562 c 0
 194.666992188 521.333984375 198 525.666992188 200 529 c 0
 202 532.333007812 204 535.333007812 206 538 c 2
 221 553 l 1
 243 564 l 1
 178 617 l 1
EndSplineSet
EndChar

StartChar: plus
Encoding: 43 43 13
Width: 374
GlyphClass: 2
Flags: W
LayerCount: 2
Fore
SplineSet
239 407 m 1
 244.001953125 460.997070312 l 1
 242.001953125 463.997070312 l 1
 244.001953125 521.997070312 l 1
 239.001953125 546.997070312 l 1
 175.001953125 528.997070312 l 2
 168.334960938 525.6640625 161.16796875 523.6640625 153.500976562 522.997070312 c 2
 119.000976562 519.997070312 l 2
 118.333984375 520.6640625 119.333984375 516.6640625 122.000976562 507.997070312 c 0
 124.66796875 499.330078125 127.66796875 489.830078125 131.000976562 479.497070312 c 0
 134.333984375 469.1640625 137.333984375 459.497070312 140.000976562 450.497070312 c 0
 142.66796875 441.497070312 143.66796875 437.330078125 143.000976562 437.997070312 c 1
 143.66796875 427.997070312 145.66796875 418.330078125 149.000976562 408.997070312 c 1
 16.0009765625 418.997070312 l 1
 13.0009765625 416.997070312 l 1
 25.0009765625 403.997070312 l 1
 30.5009765625 399.997070312 l 2
 34.16796875 397.330078125 36.66796875 394.997070312 38.0009765625 392.997070312 c 0
 40.66796875 389.6640625 45.66796875 385.831054688 53.0009765625 381.498046875 c 0
 60.333984375 377.165039062 68.6669921875 372.998046875 78 368.998046875 c 2
 106 356.998046875 l 2
 115.333007812 352.998046875 123.333007812 349.331054688 130 345.998046875 c 2
 161 336.998046875 l 1
 168.333007812 294.998046875 173.5 258.831054688 176.5 228.498046875 c 0
 179.5 198.165039062 181.666992188 169.665039062 183 142.998046875 c 1
 194.333007812 163.665039062 203.5 187.165039062 210.5 213.498046875 c 0
 217.5 239.831054688 223.666992188 266.998046875 229 294.998046875 c 2
 232 319.998046875 l 1
 354 289.998046875 l 1
 352 295.331054688 350.166992188 301.331054688 348.5 307.998046875 c 0
 346.833007812 314.665039062 346 321.33203125 346 327.999023438 c 0
 345.333007812 336.666015625 344.833007812 343.499023438 344.5 348.499023438 c 0
 344.166992188 353.499023438 344 357.666015625 344 360.999023438 c 0
 344 364.999023438 343.833007812 368.83203125 343.5 372.499023438 c 0
 343.166992188 376.166015625 343 381.333007812 343 388 c 2
 352 418 l 1
 252 409 l 2
 249.333007812 408.333007812 247 407.833007812 245 407.5 c 0
 243 407.166992188 241 407 239 407 c 1
EndSplineSet
EndChar

StartChar: comma
Encoding: 44 44 14
Width: 172
GlyphClass: 2
Flags: W
LayerCount: 2
Fore
SplineSet
43 -36 m 2
 19 -93 l 1
 43 -79.6669921875 63.1669921875 -68.333984375 79.5 -59.0009765625 c 0
 95.8330078125 -49.66796875 109 -40.5009765625 119 -31.5009765625 c 0
 129 -22.5009765625 136.833007812 -12.5009765625 142.5 -1.5009765625 c 0
 148.166992188 9.4990234375 152.666992188 23.666015625 156 40.9990234375 c 0
 156.666992188 44.9990234375 157.166992188 48.4990234375 157.5 51.4990234375 c 0
 157.833007812 54.4990234375 158 57.666015625 158 60.9990234375 c 0
 158 64.33203125 157.666992188 65.9990234375 157 65.9990234375 c 1
 157 67.9990234375 l 2
 157 71.33203125 156.666992188 73.33203125 156 73.9990234375 c 2
 156 74.9990234375 l 2
 156 75.666015625 155.333007812 75.9990234375 154 75.9990234375 c 0
 152 77.33203125 149.5 81.4990234375 146.5 88.4990234375 c 0
 143.5 95.4990234375 140.333007812 98.9990234375 137 98.9990234375 c 2
 96 104.999023438 l 1
 93 103.999023438 l 1
 88 103.999023438 l 2
 84 103.999023438 78.3330078125 103.666015625 71 102.999023438 c 0
 63.6669921875 102.33203125 56.5 101.33203125 49.5 99.9990234375 c 0
 42.5 98.666015625 36.3330078125 96.9990234375 31 94.9990234375 c 0
 25.6669921875 92.9990234375 22.6669921875 90.666015625 22 87.9990234375 c 2
 15 71.9990234375 l 1
 19.6669921875 63.9990234375 24.1669921875 57.33203125 28.5 51.9990234375 c 0
 32.8330078125 46.666015625 36.8330078125 41.8330078125 40.5 37.5 c 0
 44.1669921875 33.1669921875 47 28.333984375 49 23.0009765625 c 0
 51 17.66796875 52 10.66796875 52 2.0009765625 c 0
 52 -10.666015625 49 -23.3330078125 43 -36 c 2
EndSplineSet
EndChar

StartChar: hyphen
Encoding: 45 45 15
Width: 299
GlyphClass: 2
Flags: W
LayerCount: 2
Fore
SplineSet
25 280 m 1
 212.999023438 353.001953125 l 2
 226.33203125 359.668945312 236.999023438 367.001953125 244.999023438 375.001953125 c 0
 252.999023438 383.001953125 259.666015625 390.668945312 264.999023438 398.001953125 c 0
 265.666015625 398.668945312 266.666015625 401.001953125 267.999023438 405.001953125 c 0
 269.33203125 409.001953125 270.83203125 413.001953125 272.499023438 417.001953125 c 0
 274.166015625 421.001953125 275.499023438 424.668945312 276.499023438 428.001953125 c 0
 277.499023438 431.334960938 277.999023438 432.66796875 277.999023438 432.000976562 c 2
 144.999023438 405.000976562 l 2
 130.999023438 405.000976562 121.33203125 405.16796875 115.999023438 405.500976562 c 0
 110.666015625 405.833984375 104.333007812 406.666992188 97 408 c 0
 96.3330078125 408 95.166015625 408.333007812 93.4990234375 409 c 0
 91.83203125 409.666992188 90.33203125 410 88.9990234375 410 c 2
 22.9990234375 414 l 1
 34.9990234375 384 l 1
 34.9990234375 368 l 2
 34.9990234375 364.666992188 34.83203125 361.166992188 34.4990234375 357.5 c 0
 34.166015625 353.833007812 33.9990234375 349.333007812 33.9990234375 344 c 2
 33.9990234375 324 l 2
 33.9990234375 316 32.83203125 308.166992188 30.4990234375 300.5 c 0
 28.166015625 292.833007812 26.3330078125 286 25 280 c 1
EndSplineSet
EndChar

StartChar: period
Encoding: 46 46 16
Width: 172
GlyphClass: 2
Flags: W
LayerCount: 2
Fore
SplineSet
152 70 m 2
 152.002929688 83.0029296875 l 1
 143.002929688 102.002929688 l 1
 48.0029296875 121.002929688 l 1
 40.0029296875 116.3359375 35.0029296875 112.668945312 33.0029296875 110.001953125 c 0
 31.0029296875 107.334960938 29.3359375 101.66796875 28.0029296875 93.0009765625 c 2
 17.0029296875 38.0009765625 l 1
 16.0029296875 25.0009765625 l 1
 30.0029296875 0.0009765625 l 1
 42.669921875 -3.33203125 56.169921875 -7.33203125 70.5029296875 -11.9990234375 c 0
 84.8359375 -16.666015625 96.6689453125 -19.666015625 106.001953125 -20.9990234375 c 0
 106.668945312 -20.9990234375 108.168945312 -21.166015625 110.501953125 -21.4990234375 c 0
 112.834960938 -21.83203125 114.66796875 -21.9990234375 116.000976562 -21.9990234375 c 0
 121.333984375 -21.9990234375 125.166992188 -19.666015625 127.5 -14.9990234375 c 0
 129.833007812 -10.33203125 132 -5.33203125 134 0.0009765625 c 2
 136 5.0009765625 l 2
 137.333007812 8.333984375 138.333007812 11.333984375 139 14.0009765625 c 0
 139.666992188 16.66796875 140.666992188 19.0009765625 142 21.0009765625 c 0
 145.333007812 30.333984375 147.5 36.6669921875 148.5 40 c 0
 149.5 43.3330078125 150 46.3330078125 150 49 c 0
 150 51.6669921875 150.333007812 54 151 56 c 0
 151.666992188 58 152 62.6669921875 152 70 c 2
EndSplineSet
EndChar

StartChar: slash
Encoding: 47 47 17
Width: 414
GlyphClass: 2
Flags: W
LayerCount: 2
Fore
SplineSet
221 308 m 1
 322.997070312 443.998046875 l 2
 331.6640625 452.665039062 340.6640625 463.998046875 349.997070312 477.998046875 c 0
 359.330078125 491.998046875 367.997070312 506.665039062 375.997070312 521.998046875 c 0
 383.997070312 537.331054688 390.497070312 552.6640625 395.497070312 567.997070312 c 0
 400.497070312 583.330078125 402.997070312 596.663085938 402.997070312 607.99609375 c 0
 401.6640625 616.663085938 400.331054688 621.99609375 398.998046875 623.99609375 c 0
 397.665039062 625.99609375 395.998046875 628.329101562 393.998046875 630.99609375 c 0
 393.331054688 631.663085938 392.831054688 632.330078125 392.498046875 632.997070312 c 0
 392.165039062 633.6640625 391.33203125 634.331054688 389.999023438 634.998046875 c 0
 381.999023438 641.665039062 372.666015625 649.33203125 361.999023438 657.999023438 c 0
 351.33203125 666.666015625 340.33203125 674.666015625 328.999023438 681.999023438 c 0
 317.666015625 689.33203125 306.166015625 695.499023438 294.499023438 700.499023438 c 0
 282.83203125 705.499023438 271.665039062 707.999023438 260.998046875 707.999023438 c 2
 252.998046875 706.999023438 l 2
 251.665039062 706.33203125 249.998046875 704.83203125 247.998046875 702.499023438 c 0
 245.998046875 700.166015625 244.331054688 697.999023438 242.998046875 695.999023438 c 2
 242.998046875 685.999023438 l 2
 242.998046875 679.999023438 243.331054688 676.666015625 243.998046875 675.999023438 c 0
 245.331054688 662.666015625 246.498046875 647.666015625 247.498046875 630.999023438 c 0
 248.498046875 614.33203125 248.998046875 596.665039062 248.998046875 577.998046875 c 0
 248.998046875 560.665039062 247.831054688 542.83203125 245.498046875 524.499023438 c 0
 243.165039062 506.166015625 236.998046875 484.999023438 226.998046875 460.999023438 c 0
 216.998046875 436.999023438 201.498046875 409.33203125 180.498046875 377.999023438 c 0
 159.498046875 346.666015625 130.331054688 309.666015625 92.998046875 266.999023438 c 0
 84.3310546875 258.33203125 75.3310546875 246.999023438 65.998046875 232.999023438 c 0
 56.6650390625 218.999023438 47.998046875 204.33203125 39.998046875 188.999023438 c 0
 31.998046875 173.666015625 25.3310546875 158.333007812 19.998046875 143 c 0
 14.6650390625 127.666992188 11.998046875 114.333984375 11.998046875 103.000976562 c 2
 13.998046875 87.0009765625 l 1
 18.998046875 82.0009765625 l 2
 26.998046875 75.333984375 36.6650390625 67.5009765625 47.998046875 58.5009765625 c 0
 59.3310546875 49.5009765625 71.1640625 40.833984375 83.4970703125 32.5009765625 c 0
 95.830078125 24.16796875 108.330078125 17.16796875 120.997070312 11.5009765625 c 0
 133.6640625 5.833984375 145.331054688 3.0009765625 155.998046875 3.0009765625 c 2
 163.998046875 3.0009765625 l 2
 165.331054688 3.66796875 166.998046875 5.16796875 168.998046875 7.5009765625 c 0
 170.998046875 9.833984375 172.665039062 12.0009765625 173.998046875 14.0009765625 c 2
 171.998046875 41.0009765625 l 2
 170.665039062 53.0009765625 169.83203125 66.5009765625 169.499023438 81.5009765625 c 0
 169.166015625 96.5009765625 168.999023438 111.66796875 168.999023438 127.000976562 c 0
 168.999023438 145.000976562 169.666015625 163.16796875 170.999023438 181.500976562 c 0
 172.33203125 199.833984375 174.83203125 217.166992188 178.499023438 233.5 c 0
 182.166015625 249.833007812 187.333007812 264.5 194 277.5 c 0
 200.666992188 290.5 209.666992188 300.666992188 221 308 c 1
EndSplineSet
EndChar

StartChar: zero
Encoding: 48 48 18
Width: 423
GlyphClass: 2
Flags: W
LayerCount: 2
Fore
SplineSet
405 423 m 0
 405 443.666992188 403.500976562 466.997070312 400.500976562 492.997070312 c 0
 397.500976562 518.997070312 392.500976562 544.830078125 385.500976562 570.497070312 c 0
 378.500976562 596.1640625 368.833984375 620.497070312 356.500976562 643.497070312 c 0
 344.16796875 666.497070312 329.000976562 685.330078125 311.000976562 699.997070312 c 1
 311.66796875 694.6640625 312.16796875 689.997070312 312.500976562 685.997070312 c 0
 312.833984375 681.997070312 313.000976562 678.330078125 313.000976562 674.997070312 c 0
 313.000976562 668.997070312 312.333984375 663.497070312 311.000976562 658.497070312 c 0
 309.66796875 653.497070312 307.000976562 647.997070312 303.000976562 641.997070312 c 0
 301.66796875 639.997070312 300.000976562 637.830078125 298.000976562 635.497070312 c 0
 296.000976562 633.1640625 294.66796875 632.331054688 294.000976562 632.998046875 c 2
 175.000976562 725.998046875 l 1
 158.000976562 716.998046875 l 2
 131.333984375 702.998046875 109.166992188 686.665039062 91.5 667.998046875 c 0
 73.8330078125 649.331054688 59.666015625 628.6640625 48.9990234375 605.997070312 c 0
 38.33203125 583.330078125 30.83203125 558.663085938 26.4990234375 531.99609375 c 0
 22.166015625 505.329101562 19.9990234375 476.99609375 19.9990234375 446.99609375 c 0
 19.9990234375 388.329101562 29.666015625 332.829101562 48.9990234375 280.49609375 c 0
 68.33203125 228.163085938 93.33203125 176.99609375 123.999023438 126.99609375 c 0
 123.999023438 126.329101562 124.166015625 124.99609375 124.499023438 122.99609375 c 0
 124.83203125 120.99609375 124.999023438 119.329101562 124.999023438 117.99609375 c 0
 124.999023438 113.99609375 123.999023438 110.99609375 121.999023438 108.99609375 c 0
 119.999023438 106.99609375 117.83203125 104.99609375 115.499023438 102.99609375 c 0
 113.166015625 100.99609375 110.999023438 98.8291015625 108.999023438 96.49609375 c 0
 106.999023438 94.1630859375 105.999023438 91.330078125 105.999023438 87.9970703125 c 0
 105.999023438 81.9970703125 111.33203125 74.330078125 121.999023438 64.9970703125 c 0
 132.666015625 55.6640625 144.999023438 46.4970703125 158.999023438 37.4970703125 c 0
 172.999023438 28.4970703125 187.166015625 20.4970703125 201.499023438 13.4970703125 c 0
 215.83203125 6.4970703125 226.999023438 1.9970703125 234.999023438 -0.0029296875 c 2
 236.499023438 -0.5029296875 l 2
 237.499023438 -0.8359375 238.33203125 -1.0029296875 238.999023438 -1.0029296875 c 0
 240.33203125 -1.0029296875 241.33203125 -0.8359375 241.999023438 -0.5029296875 c 2
 242.999023438 -0.0029296875 l 1
 259.999023438 16.9970703125 l 1
 280.666015625 47.6640625 299.833007812 78.8310546875 317.5 110.498046875 c 0
 335.166992188 142.165039062 350.5 174.83203125 363.5 208.499023438 c 0
 376.5 242.166015625 386.666992188 276.833007812 394 312.5 c 0
 401.333007812 348.166992188 405 385 405 423 c 0
305.000976562 515.997070312 m 2
 305.000976562 501.997070312 303.668945312 483.831054688 301.001953125 461.498046875 c 0
 298.334960938 439.165039062 294.334960938 415.165039062 289.001953125 389.498046875 c 0
 283.668945312 363.831054688 277.001953125 337.998046875 269.001953125 311.998046875 c 0
 261.001953125 285.998046875 251.668945312 262.498046875 241.001953125 241.498046875 c 0
 230.334960938 220.498046875 218.334960938 203.331054688 205.001953125 189.998046875 c 0
 191.668945312 176.665039062 177.001953125 169.998046875 161.001953125 169.998046875 c 0
 153.668945312 169.998046875 148.001953125 172.331054688 144.001953125 176.998046875 c 0
 140.001953125 181.665039062 136.834960938 187.498046875 134.501953125 194.498046875 c 0
 132.168945312 201.498046875 130.668945312 209.331054688 130.001953125 217.998046875 c 0
 129.334960938 226.665039062 129.001953125 235.33203125 129.001953125 243.999023438 c 0
 129.001953125 253.33203125 129.168945312 261.83203125 129.501953125 269.499023438 c 0
 129.834960938 277.166015625 130.001953125 282.999023438 130.001953125 286.999023438 c 0
 130.001953125 302.33203125 130.668945312 320.665039062 132.001953125 341.998046875 c 0
 133.334960938 363.331054688 135.66796875 385.498046875 139.000976562 408.498046875 c 0
 142.333984375 431.498046875 147.333984375 454.165039062 154.000976562 476.498046875 c 0
 160.66796875 498.831054688 169.334960938 518.998046875 180.001953125 536.998046875 c 0
 190.668945312 554.998046875 203.668945312 569.498046875 219.001953125 580.498046875 c 0
 234.334960938 591.498046875 252.66796875 596.998046875 274.000976562 596.998046875 c 0
 283.333984375 596.998046875 289.833984375 594.665039062 293.500976562 589.998046875 c 0
 297.16796875 585.331054688 300.66796875 578.6640625 304.000976562 569.997070312 c 2
 305.000976562 558.997070312 l 1
 305.000976562 515.997070312 l 2
EndSplineSet
EndChar

StartChar: one
Encoding: 49 49 19
Width: 195
GlyphClass: 2
Flags: W
LayerCount: 2
Fore
SplineSet
170 489 m 2
 169.999023438 561 l 2
 169.999023438 572.333007812 169.33203125 584 167.999023438 596 c 0
 166.666015625 608 164.333007812 624 161 644 c 2
 159.5 653 l 2
 158.5 659 157.166992188 665.5 155.5 672.5 c 0
 153.833007812 679.5 151.833007812 685.833007812 149.5 691.5 c 0
 147.166992188 697.166992188 144.333984375 700 141.000976562 700 c 2
 136.000976562 700 l 1
 9.0009765625 663 l 1
 19.0009765625 628 l 2
 21.66796875 609.333007812 24.16796875 586.333007812 26.5009765625 559 c 0
 28.833984375 531.666992188 31.1669921875 503.333984375 33.5 474.000976562 c 0
 35.8330078125 444.66796875 38.166015625 416.000976562 40.4990234375 388.000976562 c 0
 42.83203125 360.000976562 45.33203125 336.000976562 47.9990234375 316.000976562 c 2
 48.9990234375 309.000976562 l 1
 48.9990234375 74.0009765625 l 1
 42.9990234375 39.0009765625 l 1
 42.9990234375 -1.9990234375 l 1
 61.666015625 14.0009765625 77.8330078125 33.833984375 91.5 57.5009765625 c 0
 105.166992188 81.16796875 116.666992188 107.16796875 126 135.500976562 c 0
 135.333007812 163.833984375 142.833007812 193.666992188 148.5 225 c 0
 154.166992188 256.333007812 158.666992188 287.5 162 318.5 c 0
 165.333007812 349.5 167.5 379.666992188 168.5 409 c 0
 169.5 438.333007812 170 465 170 489 c 2
EndSplineSet
EndChar

StartChar: two
Encoding: 50 50 20
Width: 441
GlyphClass: 2
Flags: W
LayerCount: 2
Fore
SplineSet
425 80 m 0
 425 94 423.333984375 111.170898438 420.000976562 131.50390625 c 0
 416.66796875 151.836914062 412.500976562 172.169921875 407.500976562 192.502929688 c 0
 402.500976562 212.8359375 396.66796875 231.668945312 390.000976562 249.001953125 c 0
 383.333984375 266.334960938 376.666992188 279.334960938 370 288.001953125 c 1
 367 288.001953125 l 1
 363 284.001953125 358.833007812 278.168945312 354.5 270.501953125 c 0
 350.166992188 262.834960938 345.833984375 254.501953125 341.500976562 245.501953125 c 0
 337.16796875 236.501953125 332.834960938 227.834960938 328.501953125 219.501953125 c 0
 324.168945312 211.168945312 320.3359375 204.668945312 317.002929688 200.001953125 c 0
 305.669921875 184.001953125 295.502929688 168.834960938 286.502929688 154.501953125 c 0
 277.502929688 140.168945312 268.3359375 127.668945312 259.002929688 117.001953125 c 0
 249.669921875 106.334960938 239.169921875 97.8349609375 227.502929688 91.501953125 c 0
 215.8359375 85.1689453125 201.668945312 82.001953125 185.001953125 82.001953125 c 0
 181.668945312 82.001953125 180.001953125 83.6689453125 180.001953125 87.001953125 c 0
 180.001953125 159.668945312 187.668945312 220.8359375 203.001953125 270.502929688 c 0
 218.334960938 320.169921875 246.001953125 356.669921875 286.001953125 380.002929688 c 0
 330.668945312 406.669921875 377.668945312 420.002929688 427.001953125 420.002929688 c 1
 427.001953125 429.3359375 425.834960938 439.502929688 423.501953125 450.502929688 c 0
 421.168945312 461.502929688 418.3359375 470.669921875 415.002929688 478.002929688 c 2
 414.002929688 481.002929688 l 2
 398.002929688 520.3359375 378.002929688 553.3359375 354.002929688 580.002929688 c 0
 330.002929688 606.669921875 304.002929688 628.336914062 276.002929688 645.00390625 c 0
 248.002929688 661.670898438 218.669921875 673.50390625 188.002929688 680.50390625 c 0
 157.3359375 687.50390625 127.002929688 691.00390625 97.0029296875 691.00390625 c 0
 89.0029296875 691.00390625 82.5029296875 681.00390625 77.5029296875 661.00390625 c 0
 72.5029296875 641.00390625 68.5029296875 618.00390625 65.5029296875 592.00390625 c 0
 62.5029296875 566.00390625 60.3359375 540.670898438 59.0029296875 516.00390625 c 0
 57.669921875 491.336914062 57.0029296875 474.00390625 57.0029296875 464.00390625 c 1
 58.5029296875 464.50390625 l 2
 59.5029296875 464.836914062 60.0029296875 465.336914062 60.0029296875 466.00390625 c 0
 72.0029296875 474.670898438 84.0029296875 484.00390625 96.0029296875 494.00390625 c 0
 108.002929688 504.00390625 120.002929688 513.00390625 132.002929688 521.00390625 c 0
 144.002929688 529.00390625 156.3359375 535.670898438 169.002929688 541.00390625 c 0
 181.669921875 546.336914062 195.002929688 549.00390625 209.002929688 549.00390625 c 0
 236.3359375 549.00390625 259.668945312 543.836914062 279.001953125 533.50390625 c 0
 298.334960938 523.170898438 319.66796875 508.00390625 343.000976562 488.00390625 c 2
 347.000976562 484.00390625 l 1
 349.000976562 475.00390625 l 2
 349.000976562 473.670898438 348.66796875 473.00390625 348.000976562 473.00390625 c 0
 341.333984375 467.670898438 333.000976562 464.337890625 323.000976562 463.004882812 c 0
 313.000976562 461.671875 303.000976562 461.004882812 293.000976562 461.004882812 c 2
 280.000976562 460.004882812 l 2
 278.000976562 460.004882812 274.500976562 459.337890625 269.500976562 458.004882812 c 0
 264.500976562 456.671875 259.000976562 455.171875 253.000976562 453.504882812 c 0
 247.000976562 451.837890625 241.333984375 450.170898438 236.000976562 448.50390625 c 0
 230.66796875 446.836914062 227.000976562 445.669921875 225.000976562 445.002929688 c 0
 215.000976562 437.669921875 206.16796875 432.336914062 198.500976562 429.00390625 c 0
 190.833984375 425.670898438 181.333984375 420.670898438 170.000976562 414.00390625 c 0
 156.66796875 406.00390625 144.000976562 392.670898438 132.000976562 374.00390625 c 0
 120.000976562 355.336914062 108.500976562 334.669921875 97.5009765625 312.002929688 c 0
 86.5009765625 289.3359375 76.0009765625 266.668945312 66.0009765625 244.001953125 c 0
 56.0009765625 221.334960938 46.333984375 201.66796875 37.0009765625 185.000976562 c 0
 35.66796875 182.333984375 32.8349609375 177.333984375 28.501953125 170.000976562 c 0
 24.1689453125 162.66796875 22.001953125 158.000976562 22.001953125 156.000976562 c 2
 15.001953125 136.000976562 l 2
 15.001953125 135.333984375 14.8349609375 134.666992188 14.501953125 134 c 2
 14.001953125 133 l 2
 14.001953125 131.666992188 14.1689453125 128 14.501953125 122 c 2
 15.001953125 113 l 2
 20.3349609375 85.6669921875 28.001953125 64.333984375 38.001953125 49.0009765625 c 0
 48.001953125 33.66796875 59.6689453125 22.16796875 73.001953125 14.5009765625 c 0
 86.3349609375 6.833984375 100.834960938 2.0009765625 116.501953125 0.0009765625 c 0
 132.168945312 -1.9990234375 148.668945312 -2.9990234375 166.001953125 -2.9990234375 c 2
 244.001953125 -2.9990234375 l 2
 258.668945312 -0.9990234375 267.668945312 0.0009765625 271.001953125 0.0009765625 c 2
 276.001953125 0.0009765625 l 2
 278.001953125 0.0009765625 282.334960938 0.5009765625 289.001953125 1.5009765625 c 0
 295.668945312 2.5009765625 302.001953125 3.66796875 308.001953125 5.0009765625 c 0
 311.334960938 5.66796875 313.834960938 6.3349609375 315.501953125 7.001953125 c 0
 317.168945312 7.6689453125 322.001953125 9.001953125 330.001953125 11.001953125 c 0
 333.334960938 12.3349609375 336.16796875 13.3349609375 338.500976562 14.001953125 c 0
 340.833984375 14.6689453125 343.000976562 16.001953125 345.000976562 18.001953125 c 0
 347.000976562 18.001953125 350.66796875 19.001953125 356.000976562 21.001953125 c 0
 361.333984375 23.001953125 365.000976562 24.6689453125 367.000976562 26.001953125 c 0
 368.333984375 27.3349609375 371.500976562 29.66796875 376.500976562 33.0009765625 c 0
 381.500976562 36.333984375 385.66796875 38.6669921875 389.000976562 40 c 2
 398.000976562 46 l 2
 403.333984375 51.3330078125 409.166992188 56.5 415.5 61.5 c 0
 421.833007812 66.5 425 72.6669921875 425 80 c 0
EndSplineSet
EndChar

StartChar: three
Encoding: 51 51 21
Width: 425
GlyphClass: 2
Flags: W
LayerCount: 2
Fore
SplineSet
280 365 m 1
 291.998046875 367.000976562 l 1
 282.665039062 345.000976562 270.665039062 324.000976562 255.998046875 304.000976562 c 0
 227.998046875 268.000976562 194.998046875 242.66796875 156.998046875 228.000976562 c 0
 118.998046875 213.333984375 78.6650390625 204.666992188 35.998046875 202 c 1
 35.998046875 197 l 2
 35.998046875 183.666992188 37.1650390625 169 39.498046875 153 c 0
 41.8310546875 137 44.498046875 120.833007812 47.498046875 104.5 c 0
 50.498046875 88.1669921875 53.6650390625 72 56.998046875 56 c 0
 60.3310546875 40 62.998046875 25.6669921875 64.998046875 13 c 2
 66.998046875 8 l 2
 68.3310546875 4.6669921875 69.3310546875 2.333984375 69.998046875 1.0009765625 c 0
 70.6650390625 -0.33203125 72.6650390625 -0.9990234375 75.998046875 -0.9990234375 c 0
 101.331054688 -0.9990234375 126.998046875 3.333984375 152.998046875 12.0009765625 c 0
 178.998046875 20.66796875 203.498046875 32.66796875 226.498046875 48.0009765625 c 0
 249.498046875 63.333984375 270.165039062 81.333984375 288.498046875 102.000976562 c 0
 306.831054688 122.66796875 321.331054688 145.000976562 331.998046875 169.000976562 c 0
 347.331054688 203.000976562 357.6640625 237.16796875 362.997070312 271.500976562 c 0
 368.330078125 305.833984375 370.997070312 341.000976562 370.997070312 377.000976562 c 2
 370.997070312 383.000976562 l 1
 386.997070312 386.000976562 l 2
 387.6640625 388.66796875 388.1640625 391.500976562 388.497070312 394.500976562 c 0
 388.830078125 397.500976562 388.997070312 401.66796875 388.997070312 407.000976562 c 0
 388.997070312 410.333984375 389.1640625 413.833984375 389.497070312 417.500976562 c 0
 389.830078125 421.16796875 389.997070312 423.334960938 389.997070312 424.001953125 c 2
 423.997070312 455.001953125 l 2
 425.330078125 457.001953125 427.830078125 460.001953125 431.497070312 464.001953125 c 2
 436.997070312 470.001953125 l 1
 433.997070312 480.001953125 l 1
 430.997070312 482.001953125 l 1
 419.997070312 482.001953125 l 2
 413.330078125 482.001953125 405.997070312 481.668945312 397.997070312 481.001953125 c 0
 389.997070312 480.334960938 385.330078125 479.334960938 383.997070312 478.001953125 c 2
 361.997070312 474.001953125 l 1
 360.6640625 484.001953125 358.831054688 493.834960938 356.498046875 503.501953125 c 0
 354.165039062 513.168945312 351.665039062 523.668945312 348.998046875 535.001953125 c 2
 348.998046875 539.001953125 l 1
 356.998046875 539.001953125 361.831054688 538.001953125 363.498046875 536.001953125 c 0
 365.165039062 534.001953125 369.33203125 531.334960938 375.999023438 528.001953125 c 1
 371.33203125 541.334960938 364.83203125 553.001953125 356.499023438 563.001953125 c 0
 348.166015625 573.001953125 339.666015625 583.334960938 330.999023438 594.001953125 c 0
 328.999023438 596.001953125 326.83203125 600.834960938 324.499023438 608.501953125 c 0
 322.166015625 616.168945312 319.666015625 624.168945312 316.999023438 632.501953125 c 0
 314.33203125 640.834960938 311.665039062 648.16796875 308.998046875 654.500976562 c 0
 306.331054688 660.833984375 302.998046875 664.000976562 298.998046875 664.000976562 c 1
 301.998046875 607.000976562 l 2
 301.998046875 603.000976562 300.665039062 601.000976562 297.998046875 601.000976562 c 0
 297.331054688 601.000976562 296.998046875 600.66796875 296.998046875 600.000976562 c 0
 296.998046875 599.333984375 296.665039062 599.333984375 295.998046875 600.000976562 c 0
 263.998046875 628.000976562 229.998046875 651.500976562 193.998046875 670.500976562 c 0
 157.998046875 689.500976562 118.665039062 699.000976562 75.998046875 699.000976562 c 0
 64.6650390625 699.000976562 55.498046875 698.66796875 48.498046875 698.000976562 c 0
 41.498046875 697.333984375 31.3310546875 695.333984375 17.998046875 692.000976562 c 0
 15.998046875 692.000976562 14.6650390625 690.66796875 13.998046875 688.000976562 c 0
 11.998046875 682.66796875 10.998046875 674.66796875 10.998046875 664.000976562 c 2
 10.998046875 611.000976562 l 1
 11.998046875 607.000976562 l 2
 11.998046875 604.333984375 13.498046875 597.500976562 16.498046875 586.500976562 c 0
 19.498046875 575.500976562 23.1650390625 564.000976562 27.498046875 552.000976562 c 0
 31.8310546875 540.000976562 36.6640625 529.16796875 41.9970703125 519.500976562 c 0
 47.330078125 509.833984375 52.330078125 505.000976562 56.9970703125 505.000976562 c 2
 59.9970703125 506.000976562 l 1
 89.9970703125 527.333984375 119.6640625 543.166992188 148.997070312 553.5 c 0
 178.330078125 563.833007812 210.997070312 569 246.997070312 569 c 0
 263.6640625 569 276.6640625 568.5 285.997070312 567.5 c 0
 295.330078125 566.5 302.330078125 563.5 306.997070312 558.5 c 0
 311.6640625 553.5 314.331054688 546 314.998046875 536 c 0
 315.665039062 526 315.998046875 512 315.998046875 494 c 0
 315.998046875 488.666992188 315.831054688 483.666992188 315.498046875 479 c 0
 315.165039062 474.333007812 314.665039062 469.333007812 313.998046875 464 c 1
 232.998046875 449 l 2
 217.665039062 449 202.498046875 449.5 187.498046875 450.5 c 0
 172.498046875 451.5 160.665039062 452.666992188 151.998046875 454 c 2
 85.998046875 466 l 1
 83.998046875 459 l 1
 85.3310546875 445.666992188 86.8310546875 429 88.498046875 409 c 0
 90.1650390625 389 90.998046875 369 90.998046875 349 c 0
 90.998046875 341 90.8310546875 333.333007812 90.498046875 326 c 0
 90.1650390625 318.666992188 89.33203125 312 87.9990234375 306 c 1
 120.666015625 314 152.833007812 322.666992188 184.5 332 c 0
 216.166992188 341.333007812 248 352.333007812 280 365 c 1
EndSplineSet
EndChar

StartChar: four
Encoding: 52 52 22
Width: 481
GlyphClass: 2
Flags: W
LayerCount: 2
Fore
SplineSet
31 400 m 0
 28.3330078125 397.333007812 23.6650390625 392.497070312 16.998046875 385.497070312 c 0
 10.3310546875 378.497070312 6.3310546875 372.997070312 4.998046875 368.997070312 c 2
 4.498046875 367.497070312 l 2
 4.1650390625 366.497070312 3.998046875 365.330078125 3.998046875 363.997070312 c 0
 3.998046875 363.330078125 4.1650390625 362.497070312 4.498046875 361.497070312 c 2
 4.998046875 359.997070312 l 2
 5.6650390625 359.330078125 7.6650390625 356.997070312 10.998046875 352.997070312 c 0
 14.3310546875 348.997070312 17.998046875 344.497070312 21.998046875 339.497070312 c 0
 25.998046875 334.497070312 29.6650390625 329.997070312 32.998046875 325.997070312 c 0
 36.3310546875 321.997070312 38.6640625 319.997070312 39.9970703125 319.997070312 c 0
 51.9970703125 316.6640625 62.9970703125 314.331054688 72.9970703125 312.998046875 c 0
 82.9970703125 311.665039062 93.330078125 310.498046875 103.997070312 309.498046875 c 0
 114.6640625 308.498046875 125.997070312 307.331054688 137.997070312 305.998046875 c 0
 149.997070312 304.665039062 163.997070312 302.665039062 179.997070312 299.998046875 c 2
 311.997070312 299.998046875 l 1
 273.997070312 89.998046875 l 2
 272.6640625 85.998046875 270.997070312 79.3310546875 268.997070312 69.998046875 c 0
 266.997070312 60.6650390625 265.997070312 53.998046875 265.997070312 49.998046875 c 2
 264.997070312 38.998046875 l 2
 264.997070312 30.998046875 271.6640625 24.498046875 284.997070312 19.498046875 c 0
 298.330078125 14.498046875 313.497070312 10.498046875 330.497070312 7.498046875 c 0
 347.497070312 4.498046875 364.1640625 2.498046875 380.497070312 1.498046875 c 0
 396.830078125 0.498046875 407.997070312 -0.001953125 413.997070312 -0.001953125 c 2
 433.997070312 -0.001953125 l 1
 435.997070312 14.6650390625 437.6640625 27.1650390625 438.997070312 37.498046875 c 0
 440.330078125 47.8310546875 441.163085938 57.498046875 441.49609375 66.498046875 c 2
 442.49609375 93.498046875 l 2
 442.829101562 102.498046875 442.99609375 112.665039062 442.99609375 123.998046875 c 2
 442.99609375 149.998046875 l 2
 442.99609375 155.998046875 442.663085938 166.998046875 441.99609375 182.998046875 c 0
 441.329101562 198.998046875 440.49609375 215.665039062 439.49609375 232.998046875 c 0
 438.49609375 250.331054688 437.49609375 266.831054688 436.49609375 282.498046875 c 0
 435.49609375 298.165039062 434.663085938 308.998046875 433.99609375 314.998046875 c 1
 468.99609375 314.998046875 l 1
 468.99609375 320.998046875 l 2
 468.99609375 325.665039062 468.663085938 328.33203125 467.99609375 328.999023438 c 2
 451.99609375 399.999023438 l 1
 459.99609375 482.999023438 l 1
 455.329101562 480.33203125 449.329101562 478.999023438 441.99609375 478.999023438 c 2
 437.99609375 478.999023438 l 2
 427.99609375 480.999023438 418.99609375 487.666015625 410.99609375 498.999023438 c 0
 402.99609375 510.33203125 395.663085938 523.665039062 388.99609375 538.998046875 c 0
 382.329101562 554.331054688 375.662109375 570.998046875 368.995117188 588.998046875 c 0
 362.328125 606.998046875 354.995117188 623.331054688 346.995117188 637.998046875 c 0
 338.995117188 652.665039062 329.995117188 664.998046875 319.995117188 674.998046875 c 0
 309.995117188 684.998046875 298.328125 689.998046875 284.995117188 689.998046875 c 2
 275.995117188 688.998046875 l 1
 283.995117188 652.331054688 288.995117188 616.998046875 290.995117188 582.998046875 c 0
 292.995117188 548.998046875 293.995117188 515.998046875 293.995117188 483.998046875 c 2
 293.995117188 438.998046875 l 1
 288.662109375 429.665039062 281.162109375 421.83203125 271.495117188 415.499023438 c 0
 261.828125 409.166015625 251.328125 404.166015625 239.995117188 400.499023438 c 0
 228.662109375 396.83203125 217.329101562 394.165039062 205.99609375 392.498046875 c 0
 194.663085938 390.831054688 184.99609375 389.998046875 176.99609375 389.998046875 c 2
 167.99609375 389.998046875 l 1
 168.663085938 395.998046875 170.163085938 408.665039062 172.49609375 427.998046875 c 0
 174.829101562 447.331054688 177.329101562 467.998046875 179.99609375 489.998046875 c 0
 182.663085938 511.998046875 185.330078125 532.498046875 187.997070312 551.498046875 c 0
 190.6640625 570.498046875 192.6640625 582.998046875 193.997070312 588.998046875 c 0
 195.330078125 598.331054688 196.497070312 605.331054688 197.497070312 609.998046875 c 0
 198.497070312 614.665039062 199.497070312 618.165039062 200.497070312 620.498046875 c 0
 201.497070312 622.831054688 202.330078125 624.831054688 202.997070312 626.498046875 c 0
 203.6640625 628.165039062 203.997070312 630.665039062 203.997070312 633.998046875 c 0
 203.997070312 635.331054688 203.830078125 637.331054688 203.497070312 639.998046875 c 0
 203.1640625 642.665039062 202.997070312 645.665039062 202.997070312 648.998046875 c 2
 201.997070312 668.998046875 l 1
 200.997070312 669.498046875 l 2
 200.330078125 669.831054688 199.330078125 669.998046875 197.997070312 669.998046875 c 0
 192.6640625 671.998046875 184.331054688 674.498046875 172.998046875 677.498046875 c 0
 161.665039062 680.498046875 149.998046875 683.498046875 137.998046875 686.498046875 c 0
 125.998046875 689.498046875 114.831054688 692.165039062 104.498046875 694.498046875 c 0
 94.1650390625 696.831054688 86.998046875 698.331054688 82.998046875 698.998046875 c 0
 82.3310546875 698.998046875 80.8310546875 699.165039062 78.498046875 699.498046875 c 0
 76.1650390625 699.831054688 74.33203125 699.998046875 72.9990234375 699.998046875 c 0
 66.9990234375 699.998046875 63.4990234375 699.331054688 62.4990234375 697.998046875 c 0
 61.4990234375 696.665039062 60.33203125 692.998046875 58.9990234375 686.998046875 c 2
 57.9990234375 682.998046875 l 2
 57.9990234375 682.331054688 57.83203125 681.831054688 57.4990234375 681.498046875 c 0
 57.166015625 681.165039062 56.9990234375 680.33203125 56.9990234375 678.999023438 c 0
 51.666015625 654.33203125 47.3330078125 630.83203125 44 608.499023438 c 0
 40.6669921875 586.166015625 38 563.833007812 36 541.5 c 0
 34 519.166992188 32.6669921875 496.5 32 473.5 c 0
 31.3330078125 450.5 31 426 31 400 c 0
EndSplineSet
EndChar

StartChar: five
Encoding: 53 53 23
Width: 439
GlyphClass: 2
Flags: W
LayerCount: 2
Fore
SplineSet
423 610 m 0
 423 617.333007812 419.828125 623.498046875 413.495117188 628.498046875 c 0
 407.162109375 633.498046875 401.329101562 638.665039062 395.99609375 643.998046875 c 2
 386.99609375 649.998046875 l 2
 383.663085938 651.331054688 379.49609375 653.6640625 374.49609375 656.997070312 c 0
 369.49609375 660.330078125 366.329101562 662.663085938 364.99609375 663.99609375 c 0
 362.99609375 665.329101562 359.329101562 666.99609375 353.99609375 668.99609375 c 0
 348.663085938 670.99609375 344.99609375 671.99609375 342.99609375 671.99609375 c 0
 340.99609375 673.99609375 338.829101562 675.329101562 336.49609375 675.99609375 c 0
 334.163085938 676.663085938 331.330078125 677.663085938 327.997070312 678.99609375 c 0
 319.997070312 680.99609375 315.1640625 682.329101562 313.497070312 682.99609375 c 0
 311.830078125 683.663085938 309.330078125 684.330078125 305.997070312 684.997070312 c 0
 299.997070312 686.330078125 293.6640625 687.497070312 286.997070312 688.497070312 c 0
 280.330078125 689.497070312 275.997070312 689.997070312 273.997070312 689.997070312 c 2
 268.997070312 690.997070312 l 1
 114.997070312 690.997070312 l 2
 96.9970703125 690.997070312 83.330078125 692.330078125 73.9970703125 694.997070312 c 0
 64.6640625 697.6640625 57.3310546875 698.997070312 51.998046875 698.997070312 c 0
 47.3310546875 698.997070312 43.998046875 696.6640625 41.998046875 691.997070312 c 0
 39.998046875 687.330078125 37.6650390625 678.330078125 34.998046875 664.997070312 c 2
 10.998046875 534.997070312 l 1
 10.998046875 473.997070312 l 1
 17.998046875 455.997070312 l 2
 17.998046875 453.997070312 20.1650390625 449.330078125 24.498046875 441.997070312 c 0
 28.8310546875 434.6640625 31.6640625 429.6640625 32.9970703125 426.997070312 c 0
 43.6640625 406.330078125 55.4970703125 388.497070312 68.4970703125 373.497070312 c 0
 81.4970703125 358.497070312 95.1640625 345.6640625 109.497070312 334.997070312 c 0
 123.830078125 324.330078125 138.997070312 314.997070312 154.997070312 306.997070312 c 0
 170.997070312 298.997070312 186.997070312 291.6640625 202.997070312 284.997070312 c 0
 204.997070312 284.330078125 208.6640625 283.497070312 213.997070312 282.497070312 c 0
 219.330078125 281.497070312 225.330078125 280.497070312 231.997070312 279.497070312 c 0
 238.6640625 278.497070312 245.497070312 277.497070312 252.497070312 276.497070312 c 0
 259.497070312 275.497070312 265.6640625 274.997070312 270.997070312 274.997070312 c 0
 280.997070312 274.997070312 290.997070312 274.330078125 300.997070312 272.997070312 c 0
 310.997070312 271.6640625 319.330078125 268.331054688 325.997070312 262.998046875 c 0
 326.6640625 262.998046875 326.997070312 262.331054688 326.997070312 260.998046875 c 2
 324.997070312 251.998046875 l 1
 312.997070312 241.331054688 301.997070312 230.331054688 291.997070312 218.998046875 c 0
 281.997070312 207.665039062 271.997070312 197.33203125 261.997070312 187.999023438 c 0
 251.997070312 178.666015625 241.497070312 170.999023438 230.497070312 164.999023438 c 0
 219.497070312 158.999023438 206.997070312 155.999023438 192.997070312 155.999023438 c 0
 164.997070312 155.999023438 139.497070312 161.999023438 116.497070312 173.999023438 c 0
 93.4970703125 185.999023438 69.9970703125 200.999023438 45.9970703125 218.999023438 c 0
 45.9970703125 219.666015625 45.4970703125 220.166015625 44.4970703125 220.499023438 c 2
 42.9970703125 220.999023438 l 1
 42.9970703125 210.999023438 44.6640625 193.83203125 47.9970703125 169.499023438 c 0
 51.330078125 145.166015625 55.830078125 120.333007812 61.4970703125 95 c 0
 67.1640625 69.6669921875 73.6640625 47.333984375 80.9970703125 28.0009765625 c 0
 88.330078125 8.66796875 95.9970703125 -0.9990234375 103.997070312 -0.9990234375 c 0
 164.6640625 -0.9990234375 220.831054688 20.333984375 272.498046875 63.0009765625 c 0
 324.165039062 105.66796875 365.998046875 166.334960938 397.998046875 245.001953125 c 0
 399.998046875 249.001953125 401.831054688 254.501953125 403.498046875 261.501953125 c 0
 405.165039062 268.501953125 406.498046875 275.668945312 407.498046875 283.001953125 c 0
 408.498046875 290.334960938 409.331054688 297.66796875 409.998046875 305.000976562 c 0
 410.665039062 312.333984375 410.998046875 318.333984375 410.998046875 323.000976562 c 1
 387.665039062 323.000976562 363.998046875 325.333984375 339.998046875 330.000976562 c 0
 315.998046875 334.66796875 292.665039062 343.66796875 269.998046875 357.000976562 c 0
 249.998046875 368.333984375 232.498046875 380.833984375 217.498046875 394.500976562 c 0
 202.498046875 408.16796875 189.831054688 424.500976562 179.498046875 443.500976562 c 0
 169.165039062 462.500976562 161.33203125 485.000976562 155.999023438 511.000976562 c 0
 150.666015625 537.000976562 147.999023438 567.66796875 147.999023438 603.000976562 c 0
 147.999023438 606.333984375 149.666015625 608.000976562 152.999023438 608.000976562 c 0
 170.33203125 608.000976562 186.665039062 607.000976562 201.998046875 605.000976562 c 0
 217.331054688 603.000976562 231.831054688 599.16796875 245.498046875 593.500976562 c 0
 259.165039062 587.833984375 272.33203125 579.833984375 284.999023438 569.500976562 c 0
 297.666015625 559.16796875 309.666015625 546.000976562 320.999023438 530.000976562 c 0
 327.666015625 520.000976562 334.833007812 507.500976562 342.5 492.500976562 c 0
 350.166992188 477.500976562 357.666992188 466.333984375 365 459.000976562 c 1
 368 459.000976562 l 1
 382 476.333984375 394.666992188 498.666992188 406 526 c 0
 417.333007812 553.333007812 423 581.333007812 423 610 c 0
EndSplineSet
EndChar

StartChar: six
Encoding: 54 54 24
Width: 447
GlyphClass: 2
Flags: W
LayerCount: 2
Fore
SplineSet
223 374 m 0
 216.333007812 370.666992188 209.337890625 366 202.004882812 360 c 0
 194.671875 354 187.671875 347.5 181.004882812 340.5 c 0
 174.337890625 333.5 168.337890625 326.833007812 163.004882812 320.5 c 0
 157.671875 314.166992188 153.671875 309.333984375 151.004882812 306.000976562 c 1
 147.004882812 320.66796875 144.171875 335.834960938 142.504882812 351.501953125 c 0
 140.837890625 367.168945312 140.004882812 383.001953125 140.004882812 399.001953125 c 0
 140.004882812 407.668945312 141.337890625 421.668945312 144.004882812 441.001953125 c 0
 146.671875 460.334960938 150.671875 480.001953125 156.004882812 500.001953125 c 0
 161.337890625 520.001953125 167.837890625 538.001953125 175.504882812 554.001953125 c 0
 183.171875 570.001953125 191.671875 579.001953125 201.004882812 581.001953125 c 0
 201.671875 581.668945312 204.004882812 582.001953125 208.004882812 582.001953125 c 0
 218.671875 582.001953125 231.504882812 578.001953125 246.504882812 570.001953125 c 0
 261.504882812 562.001953125 276.337890625 552.668945312 291.004882812 542.001953125 c 0
 305.671875 531.334960938 319.004882812 520.66796875 331.004882812 510.000976562 c 0
 343.004882812 499.333984375 351.671875 491.333984375 357.004882812 486.000976562 c 1
 365.004882812 486.000976562 l 1
 375.671875 506.000976562 384.671875 524.333984375 392.004882812 541.000976562 c 0
 399.337890625 557.66796875 409.670898438 574.66796875 423.00390625 592.000976562 c 1
 416.336914062 601.333984375 408.50390625 608.666992188 399.50390625 614 c 0
 390.50390625 619.333007812 381.336914062 624 372.00390625 628 c 0
 368.00390625 630 361.170898438 632.833007812 351.50390625 636.5 c 0
 341.836914062 640.166992188 331.50390625 643.833984375 320.50390625 647.500976562 c 0
 309.50390625 651.16796875 299.170898438 654.66796875 289.50390625 658.000976562 c 0
 279.836914062 661.333984375 273.00390625 663.666992188 269.00390625 665 c 1
 269.00390625 673 l 2
 269.670898438 675 270.170898438 678.833007812 270.50390625 684.5 c 0
 270.836914062 690.166992188 271.669921875 694 273.002929688 696 c 1
 251.002929688 702 l 2
 243.669921875 704 237.002929688 705 231.002929688 705 c 0
 217.669921875 705 205.336914062 703 194.00390625 699 c 0
 182.670898438 695 171.670898438 690.166992188 161.00390625 684.5 c 0
 150.336914062 678.833007812 139.50390625 672.5 128.50390625 665.5 c 0
 117.50390625 658.5 106.00390625 652 94.00390625 646 c 1
 94.00390625 642 l 2
 94.00390625 632.666992188 93.3369140625 625.166992188 92.00390625 619.5 c 0
 90.6708984375 613.833007812 90.00390625 609.333007812 90.00390625 606 c 0
 90.00390625 602.666992188 91.00390625 600 93.00390625 598 c 0
 95.00390625 596 99.3369140625 594 106.00390625 592 c 1
 75.3369140625 548 53.50390625 504 40.50390625 460 c 0
 27.50390625 416 21.00390625 367.333007812 21.00390625 314 c 0
 21.00390625 218.666992188 40.50390625 148.166992188 79.50390625 102.5 c 0
 118.50390625 56.8330078125 180.336914062 34 265.00390625 34 c 0
 281.670898438 34 300.00390625 35 320.00390625 37 c 1
 321.336914062 31.6669921875 323.169921875 25 325.502929688 17 c 0
 327.8359375 9 331.668945312 3.3330078125 337.001953125 -0 c 1
 346.334960938 9.3330078125 357.16796875 21 369.500976562 35 c 0
 381.833984375 49 393.333984375 63.8330078125 404.000976562 79.5 c 0
 414.66796875 95.1669921875 423.66796875 111.166992188 431.000976562 127.5 c 0
 438.333984375 143.833007812 442.000976562 159 442.000976562 173 c 1
 415.000976562 173 l 1
 423.000976562 278 l 1
 423.000976562 303 l 2
 423.000976562 323 419.16796875 343.166992188 411.500976562 363.5 c 0
 403.833984375 383.833007812 397.666992188 404 393 424 c 1
 382 423 l 2
 356 421 330 417.333007812 304 412 c 0
 278 406.666992188 251 394 223 374 c 0
310.004882812 159 m 1
 290.004882812 159 272.837890625 160.5 258.504882812 163.5 c 0
 244.171875 166.5 231.838867188 171.5 221.505859375 178.5 c 0
 211.172851562 185.5 202.172851562 195 194.505859375 207 c 0
 186.838867188 219 180.005859375 233.666992188 174.005859375 251 c 1
 224.005859375 289 l 1
 268.005859375 298 l 1
 279.338867188 276 289.171875 253.166992188 297.504882812 229.5 c 0
 305.837890625 205.833007812 310.004882812 182.333007812 310.004882812 159 c 1
EndSplineSet
EndChar

StartChar: seven
Encoding: 55 55 25
Width: 462
GlyphClass: 2
Flags: W
LayerCount: 2
Fore
SplineSet
216 26 m 2
 290.99609375 140.997070312 l 1
 308.99609375 182.997070312 322.163085938 216.997070312 330.49609375 242.997070312 c 0
 338.829101562 268.997070312 344.829101562 290.830078125 348.49609375 308.497070312 c 0
 352.163085938 326.1640625 354.99609375 341.831054688 356.99609375 355.498046875 c 0
 358.99609375 369.165039062 362.329101562 385.165039062 366.99609375 403.498046875 c 0
 371.663085938 421.831054688 379.330078125 444.331054688 389.997070312 470.998046875 c 0
 400.6640625 497.665039062 416.6640625 532.665039062 437.997070312 575.998046875 c 2
 446.997070312 592.998046875 l 1
 434.997070312 612.998046875 416.997070312 628.831054688 392.997070312 640.498046875 c 0
 368.997070312 652.165039062 343.1640625 661.165039062 315.497070312 667.498046875 c 0
 287.830078125 673.831054688 260.497070312 677.831054688 233.497070312 679.498046875 c 0
 206.497070312 681.165039062 183.997070312 681.998046875 165.997070312 681.998046875 c 0
 150.6640625 681.998046875 138.997070312 681.665039062 130.997070312 680.998046875 c 0
 122.997070312 680.331054688 116.6640625 679.998046875 111.997070312 679.998046875 c 2
 101.997070312 679.998046875 l 2
 93.330078125 679.331054688 83.330078125 676.998046875 71.9970703125 672.998046875 c 0
 60.6640625 668.998046875 50.6640625 664.665039062 41.9970703125 659.998046875 c 0
 38.6640625 658.665039062 34.9970703125 656.83203125 30.9970703125 654.499023438 c 0
 26.9970703125 652.166015625 24.9970703125 650.666015625 24.9970703125 649.999023438 c 2
 24.9970703125 497.999023438 l 1
 39.6640625 504.666015625 59.3310546875 511.833007812 83.998046875 519.5 c 0
 108.665039062 527.166992188 134.498046875 534.5 161.498046875 541.5 c 0
 188.498046875 548.5 214.498046875 554.333007812 239.498046875 559 c 0
 264.498046875 563.666992188 284.665039062 566 299.998046875 566 c 2
 316.998046875 566 l 2
 323.665039062 566 326.998046875 565.333007812 326.998046875 564 c 0
 302.331054688 512 280.498046875 467.166992188 261.498046875 429.5 c 0
 242.498046875 391.833007812 225.331054688 359.166015625 209.998046875 331.499023438 c 0
 194.665039062 303.83203125 180.998046875 280.33203125 168.998046875 260.999023438 c 0
 156.998046875 241.666015625 145.665039062 224.999023438 134.998046875 210.999023438 c 0
 124.331054688 196.999023438 113.831054688 184.33203125 103.498046875 172.999023438 c 0
 93.1650390625 161.666015625 82.6650390625 150.333007812 71.998046875 139 c 0
 70.6650390625 137.666992188 68.998046875 136.166992188 66.998046875 134.5 c 0
 64.998046875 132.833007812 63.3310546875 131 61.998046875 129 c 2
 55.998046875 105 l 1
 64.6650390625 91 74.6650390625 77.6669921875 85.998046875 65 c 0
 97.3310546875 52.3330078125 108.831054688 41.3330078125 120.498046875 32 c 0
 132.165039062 22.6669921875 143.33203125 15.1669921875 153.999023438 9.5 c 0
 164.666015625 3.8330078125 173.666015625 1 180.999023438 1 c 0
 193.666015625 1 205.333007812 9.3330078125 216 26 c 2
EndSplineSet
EndChar

StartChar: eight
Encoding: 56 56 26
Width: 509
GlyphClass: 2
Flags: W
LayerCount: 2
Fore
SplineSet
220 -12 m 1
 245.999023438 62.9990234375 l 1
 299.999023438 11.9990234375 l 1
 323.999023438 12.666015625 346.166015625 15.4990234375 366.499023438 20.4990234375 c 0
 386.83203125 25.4990234375 404.499023438 33.83203125 419.499023438 45.4990234375 c 0
 434.499023438 57.166015625 446.166015625 72.666015625 454.499023438 91.9990234375 c 0
 462.83203125 111.33203125 466.999023438 135.665039062 466.999023438 164.998046875 c 0
 466.999023438 196.998046875 459.999023438 226.998046875 445.999023438 254.998046875 c 0
 431.999023438 282.998046875 413.999023438 308.665039062 391.999023438 331.998046875 c 1
 420.666015625 334.665039062 444.499023438 343.665039062 463.499023438 358.998046875 c 0
 482.499023438 374.331054688 491.999023438 400.6640625 491.999023438 437.997070312 c 0
 491.999023438 461.997070312 487.999023438 483.6640625 479.999023438 502.997070312 c 0
 471.999023438 522.330078125 461.33203125 540.163085938 447.999023438 556.49609375 c 0
 434.666015625 572.829101562 419.666015625 587.99609375 402.999023438 601.99609375 c 0
 386.33203125 615.99609375 369.33203125 629.663085938 351.999023438 642.99609375 c 2
 343.999023438 648.99609375 l 1
 305.999023438 573.99609375 l 1
 251.999023438 685.99609375 l 1
 220.999023438 682.99609375 l 2
 195.666015625 682.99609375 172.166015625 678.99609375 150.499023438 670.99609375 c 0
 128.83203125 662.99609375 110.165039062 651.49609375 94.498046875 636.49609375 c 0
 78.8310546875 621.49609375 66.498046875 603.329101562 57.498046875 581.99609375 c 0
 48.498046875 560.663085938 43.998046875 536.663085938 43.998046875 509.99609375 c 2
 43.998046875 506.99609375 l 2
 43.998046875 491.663085938 45.8310546875 477.830078125 49.498046875 465.497070312 c 0
 53.1650390625 453.1640625 58.33203125 441.497070312 64.9990234375 430.497070312 c 0
 71.666015625 419.497070312 79.666015625 408.830078125 88.9990234375 398.497070312 c 0
 98.33203125 388.1640625 108.33203125 377.331054688 118.999023438 365.998046875 c 1
 90.33203125 363.331054688 66.4990234375 354.331054688 47.4990234375 338.998046875 c 0
 28.4990234375 323.665039062 18.9990234375 297.33203125 18.9990234375 259.999023438 c 0
 18.9990234375 241.999023438 21.83203125 222.499023438 27.4990234375 201.499023438 c 0
 33.166015625 180.499023438 40.8330078125 160.166015625 50.5 140.499023438 c 0
 60.1669921875 120.83203125 71.1669921875 102.33203125 83.5 84.9990234375 c 0
 95.8330078125 67.666015625 109 53.3330078125 123 42 c 0
 149 18 181.333007812 0 220 -12 c 1
291.999023438 552.999023438 m 2
 298 552.998046875 l 1
 286 517.998046875 l 1
 293.333007812 511.331054688 300.833007812 505.831054688 308.5 501.498046875 c 0
 316.166992188 497.165039062 323.166992188 492.998046875 329.5 488.998046875 c 0
 335.833007812 484.998046875 341 480.331054688 345 474.998046875 c 0
 349 469.665039062 351 462.33203125 351 452.999023438 c 0
 351 444.33203125 350 434.999023438 348 424.999023438 c 0
 346 414.999023438 343.166992188 405.666015625 339.5 396.999023438 c 0
 335.833007812 388.33203125 331.333007812 380.665039062 326 373.998046875 c 0
 320.666992188 367.331054688 314.666992188 362.998046875 308 360.998046875 c 0
 302 362.998046875 296 365.165039062 290 367.498046875 c 0
 284 369.831054688 277.666992188 372.331054688 271 374.998046875 c 0
 259.666992188 380.998046875 248.166992188 388.165039062 236.5 396.498046875 c 0
 224.833007812 404.831054688 214.166015625 413.831054688 204.499023438 423.498046875 c 0
 194.83203125 433.165039062 186.999023438 443.498046875 180.999023438 454.498046875 c 0
 174.999023438 465.498046875 171.999023438 476.998046875 171.999023438 488.998046875 c 0
 171.999023438 502.998046875 175.999023438 513.998046875 183.999023438 521.998046875 c 0
 191.999023438 529.998046875 201.999023438 536.165039062 213.999023438 540.498046875 c 0
 225.999023438 544.831054688 238.999023438 547.831054688 252.999023438 549.498046875 c 0
 266.999023438 551.165039062 279.999023438 552.33203125 291.999023438 552.999023438 c 2
262 103.998046875 m 1
 261.999023438 140.997070312 l 1
 251.33203125 148.330078125 239.499023438 155.497070312 226.499023438 162.497070312 c 0
 213.499023438 169.497070312 201.33203125 176.997070312 189.999023438 184.997070312 c 0
 178.666015625 192.997070312 169.166015625 201.830078125 161.499023438 211.497070312 c 0
 153.83203125 221.1640625 149.999023438 232.331054688 149.999023438 244.998046875 c 0
 149.999023438 252.998046875 151.999023438 260.665039062 155.999023438 267.998046875 c 0
 159.999023438 275.331054688 164.999023438 281.831054688 170.999023438 287.498046875 c 0
 176.999023438 293.165039062 183.499023438 297.998046875 190.499023438 301.998046875 c 0
 197.499023438 305.998046875 204.33203125 308.998046875 210.999023438 310.998046875 c 1
 216.33203125 308.331054688 221.999023438 305.831054688 227.999023438 303.498046875 c 0
 233.999023438 301.165039062 240.33203125 298.998046875 246.999023438 296.998046875 c 0
 269.666015625 283.665039062 289.833007812 267.665039062 307.5 248.998046875 c 0
 325.166992188 230.331054688 334 209.331054688 334 185.998046875 c 0
 334 177.998046875 331.833007812 169.998046875 327.5 161.998046875 c 0
 323.166992188 153.998046875 317.5 146.331054688 310.5 138.998046875 c 0
 303.5 131.665039062 295.833007812 124.998046875 287.5 118.998046875 c 0
 279.166992188 112.998046875 270.666992188 107.998046875 262 103.998046875 c 1
EndSplineSet
EndChar

StartChar: nine
Encoding: 57 57 27
Width: 478
GlyphClass: 2
Flags: W
LayerCount: 2
Fore
SplineSet
387 48 m 1
 393.666992188 68 399.33203125 87.00390625 403.999023438 105.00390625 c 0
 408.666015625 123.00390625 412.666015625 141.00390625 415.999023438 159.00390625 c 0
 419.33203125 177.00390625 421.999023438 195.170898438 423.999023438 213.50390625 c 0
 425.999023438 231.836914062 427.666015625 251.336914062 428.999023438 272.00390625 c 0
 428.999023438 273.336914062 429.999023438 275.00390625 431.999023438 277.00390625 c 0
 433.999023438 279.00390625 435.666015625 280.00390625 436.999023438 280.00390625 c 0
 440.33203125 282.670898438 446.499023438 287.170898438 455.499023438 293.50390625 c 0
 464.499023438 299.836914062 470.666015625 304.00390625 473.999023438 306.00390625 c 2
 473.999023438 314.00390625 l 1
 436.999023438 331.00390625 l 1
 435.666015625 345.00390625 433.666015625 361.50390625 430.999023438 380.50390625 c 0
 428.33203125 399.50390625 425.499023438 419.336914062 422.499023438 440.00390625 c 0
 419.499023438 460.670898438 416.999023438 481.337890625 414.999023438 502.004882812 c 0
 412.999023438 522.671875 411.999023438 541.671875 411.999023438 559.004882812 c 1
 417.999023438 559.004882812 420.999023438 558.337890625 420.999023438 557.004882812 c 0
 420.999023438 556.337890625 422.999023438 556.004882812 426.999023438 556.004882812 c 0
 428.33203125 556.004882812 428.999023438 557.671875 428.999023438 561.004882812 c 0
 428.999023438 565.004882812 428.33203125 571.004882812 426.999023438 579.004882812 c 0
 425.666015625 587.004882812 424.166015625 595.171875 422.499023438 603.504882812 c 0
 420.83203125 611.837890625 419.33203125 619.670898438 417.999023438 627.00390625 c 0
 416.666015625 634.336914062 415.999023438 639.669921875 415.999023438 643.002929688 c 2
 404.999023438 649.502929688 l 2
 397.666015625 653.8359375 389.333007812 658.8359375 380 664.502929688 c 0
 370.666992188 670.169921875 361.666992188 676.002929688 353 682.002929688 c 0
 344.333007812 688.002929688 338.333007812 693.002929688 335 697.002929688 c 1
 301 671.002929688 l 1
 291 671.669921875 280.333007812 672.169921875 269 672.502929688 c 0
 257.666992188 672.8359375 246 673.002929688 234 673.002929688 c 0
 208.666992188 673.002929688 183 671.3359375 157 668.002929688 c 0
 131 664.669921875 107.5 658.002929688 86.5 648.002929688 c 0
 65.5 638.002929688 48.3330078125 623.669921875 35 605.002929688 c 0
 21.6669921875 586.3359375 15 561.668945312 15 531.001953125 c 0
 15 511.668945312 18 493.168945312 24 475.501953125 c 0
 30 457.834960938 38 441.001953125 48 425.001953125 c 0
 58 409.001953125 69.5 393.834960938 82.5 379.501953125 c 0
 95.5 365.168945312 108.666992188 352.001953125 122 340.001953125 c 0
 146 322.668945312 175.166992188 309.501953125 209.5 300.501953125 c 0
 243.833007812 291.501953125 278 283.001953125 312 275.001953125 c 0
 327.333007812 271.001953125 335 263.668945312 335 253.001953125 c 2
 335 250.001953125 l 1
 328.333007812 203.334960938 314 161.16796875 292 123.500976562 c 0
 270 85.833984375 239 54.333984375 199 29.0009765625 c 1
 230 0.0009765625 l 1
 246 -1.9990234375 260 -2.9990234375 272 -2.9990234375 c 0
 302 -2.9990234375 325.333007812 1.66796875 342 11.0009765625 c 0
 358.666992188 20.333984375 373.666992188 32.6669921875 387 48 c 1
318.998046875 507.00390625 m 0
 318.998046875 500.336914062 320.998046875 492.502929688 324.998046875 483.502929688 c 0
 328.998046875 474.502929688 330.998046875 465.002929688 330.998046875 455.002929688 c 2
 333.998046875 400.002929688 l 2
 333.998046875 392.669921875 333.331054688 385.836914062 331.998046875 379.50390625 c 0
 330.665039062 373.170898438 327.998046875 367.337890625 323.998046875 362.004882812 c 0
 321.998046875 363.337890625 319.998046875 364.170898438 317.998046875 364.50390625 c 0
 315.998046875 364.836914062 313.665039062 365.669921875 310.998046875 367.002929688 c 0
 296.998046875 373.002929688 281.498046875 380.8359375 264.498046875 390.502929688 c 0
 247.498046875 400.169921875 231.665039062 411.169921875 216.998046875 423.502929688 c 0
 202.331054688 435.8359375 189.998046875 449.3359375 179.998046875 464.002929688 c 0
 169.998046875 478.669921875 164.998046875 494.002929688 164.998046875 510.002929688 c 0
 164.998046875 525.3359375 167.998046875 537.668945312 173.998046875 547.001953125 c 0
 179.998046875 556.334960938 187.998046875 563.501953125 197.998046875 568.501953125 c 0
 207.998046875 573.501953125 218.998046875 576.668945312 230.998046875 578.001953125 c 0
 242.998046875 579.334960938 254.998046875 580.001953125 266.998046875 580.001953125 c 2
 275.998046875 580.001953125 l 2
 280.665039062 580.001953125 285.998046875 579.668945312 291.998046875 579.001953125 c 2
 300.998046875 578.001953125 l 1
 317.998046875 561.001953125 l 1
 317.998046875 539.001953125 l 2
 317.998046875 533.668945312 318.165039062 527.8359375 318.498046875 521.502929688 c 0
 318.831054688 515.169921875 318.998046875 510.336914062 318.998046875 507.00390625 c 0
EndSplineSet
EndChar

StartChar: colon
Encoding: 58 58 28
Width: 172
GlyphClass: 2
Flags: W
LayerCount: 2
Fore
SplineSet
152 70 m 2
 152.000976562 83.0029296875 l 1
 143.000976562 102.002929688 l 1
 48.0009765625 121.002929688 l 1
 40.0009765625 116.3359375 35.0009765625 112.668945312 33.0009765625 110.001953125 c 0
 31.0009765625 107.334960938 29.333984375 101.66796875 28.0009765625 93.0009765625 c 2
 17.0009765625 38.0009765625 l 1
 16.0009765625 25.0009765625 l 1
 30.0009765625 0.0009765625 l 1
 42.66796875 -3.33203125 56.16796875 -7.33203125 70.5009765625 -11.9990234375 c 0
 84.833984375 -16.666015625 96.6669921875 -19.666015625 106 -20.9990234375 c 0
 106.666992188 -20.9990234375 108.166992188 -21.166015625 110.5 -21.4990234375 c 0
 112.833007812 -21.83203125 114.666015625 -21.9990234375 115.999023438 -21.9990234375 c 0
 120.666015625 -21.9990234375 123.833007812 -20.33203125 125.5 -16.9990234375 c 2
 131 -5.9990234375 l 1
 136 5.0009765625 l 2
 137.333007812 8.333984375 138.333007812 11.333984375 139 14.0009765625 c 0
 139.666992188 16.66796875 140.666992188 19.0009765625 142 21.0009765625 c 0
 145.333007812 30.333984375 147.5 36.6669921875 148.5 40 c 0
 149.5 43.3330078125 150 46.3330078125 150 49 c 0
 150 51.6669921875 150.333007812 54 151 56 c 0
 151.666992188 58 152 62.6669921875 152 70 c 2
152.000976562 385.002929688 m 2
 152.001953125 398.005859375 l 1
 143.001953125 417.005859375 l 1
 48.001953125 436.005859375 l 1
 40.001953125 431.338867188 35.001953125 427.671875 33.001953125 425.004882812 c 0
 31.001953125 422.337890625 29.3349609375 416.670898438 28.001953125 408.00390625 c 2
 17.001953125 353.00390625 l 1
 16.001953125 340.00390625 l 1
 30.001953125 315.00390625 l 1
 42.6689453125 311.670898438 56.1689453125 307.670898438 70.501953125 303.00390625 c 0
 84.8349609375 298.336914062 96.66796875 295.336914062 106.000976562 294.00390625 c 0
 106.66796875 294.00390625 108.16796875 293.836914062 110.500976562 293.50390625 c 0
 112.833984375 293.170898438 114.666992188 293.00390625 116 293.00390625 c 0
 120.666992188 293.00390625 123.833984375 294.670898438 125.500976562 298.00390625 c 2
 131.000976562 309.00390625 l 1
 136.000976562 320.00390625 l 2
 137.333984375 323.336914062 138.333984375 326.336914062 139.000976562 329.00390625 c 0
 139.66796875 331.670898438 140.66796875 334.00390625 142.000976562 336.00390625 c 0
 145.333984375 345.336914062 147.500976562 351.669921875 148.500976562 355.002929688 c 0
 149.500976562 358.3359375 150.000976562 361.3359375 150.000976562 364.002929688 c 0
 150.000976562 366.669921875 150.333984375 369.002929688 151.000976562 371.002929688 c 0
 151.66796875 373.002929688 152.000976562 377.669921875 152.000976562 385.002929688 c 2
EndSplineSet
EndChar

StartChar: semicolon
Encoding: 59 59 29
Width: 177
GlyphClass: 2
Flags: W
LayerCount: 2
Fore
SplineSet
153 385 m 2
 153.002929688 398.002929688 l 1
 144.002929688 417.002929688 l 1
 49.0029296875 436.002929688 l 1
 41.0029296875 431.3359375 36.0029296875 427.668945312 34.0029296875 425.001953125 c 0
 32.0029296875 422.334960938 30.3359375 416.66796875 29.0029296875 408.000976562 c 2
 18.0029296875 353.000976562 l 1
 17.0029296875 340.000976562 l 1
 31.0029296875 315.000976562 l 1
 43.669921875 311.66796875 57.169921875 307.66796875 71.5029296875 303.000976562 c 0
 85.8359375 298.333984375 97.6689453125 295.333984375 107.001953125 294.000976562 c 0
 107.668945312 294.000976562 109.168945312 293.833984375 111.501953125 293.500976562 c 0
 113.834960938 293.16796875 115.66796875 293.000976562 117.000976562 293.000976562 c 0
 122.333984375 293.000976562 126.166992188 295.333984375 128.5 300.000976562 c 0
 130.833007812 304.66796875 133 309.66796875 135 315.000976562 c 2
 137 320.000976562 l 2
 138.333007812 323.333984375 139.333007812 326.333984375 140 329.000976562 c 0
 140.666992188 331.66796875 141.666992188 334.000976562 143 336.000976562 c 0
 146.333007812 345.333984375 148.5 351.666992188 149.5 355 c 0
 150.5 358.333007812 151 361.333007812 151 364 c 0
 151 366.666992188 151.333007812 369 152 371 c 0
 152.666992188 373 153 377.666992188 153 385 c 2
43.0029296875 -35.9970703125 m 2
 19.00390625 -92.9970703125 l 1
 43.00390625 -79.6640625 63.1708984375 -68.3310546875 79.50390625 -58.998046875 c 0
 95.8369140625 -49.6650390625 109.00390625 -40.498046875 119.00390625 -31.498046875 c 0
 129.00390625 -22.498046875 136.836914062 -12.498046875 142.50390625 -1.498046875 c 0
 148.170898438 9.501953125 152.670898438 23.6689453125 156.00390625 41.001953125 c 0
 156.670898438 45.001953125 157.170898438 48.501953125 157.50390625 51.501953125 c 0
 157.836914062 54.501953125 158.00390625 57.6689453125 158.00390625 61.001953125 c 0
 158.00390625 64.3349609375 157.670898438 66.001953125 157.00390625 66.001953125 c 1
 157.00390625 68.001953125 l 2
 157.00390625 71.3349609375 156.670898438 73.3349609375 156.00390625 74.001953125 c 2
 156.00390625 75.001953125 l 2
 156.00390625 75.6689453125 155.336914062 76.001953125 154.00390625 76.001953125 c 0
 152.00390625 77.3349609375 149.50390625 81.501953125 146.50390625 88.501953125 c 0
 143.50390625 95.501953125 140.336914062 99.001953125 137.00390625 99.001953125 c 2
 96.00390625 105.001953125 l 1
 93.00390625 104.001953125 l 1
 88.00390625 104.001953125 l 2
 83.3369140625 104.001953125 77.50390625 103.668945312 70.50390625 103.001953125 c 0
 63.50390625 102.334960938 56.6708984375 101.334960938 50.00390625 100.001953125 c 0
 43.3369140625 98.6689453125 37.3369140625 97.001953125 32.00390625 95.001953125 c 0
 26.6708984375 93.001953125 23.6708984375 90.6689453125 23.00390625 88.001953125 c 2
 16.00390625 72.001953125 l 1
 20.6708984375 64.001953125 25.1708984375 57.3349609375 29.50390625 52.001953125 c 0
 33.8369140625 46.6689453125 37.669921875 41.8359375 41.0029296875 37.5029296875 c 0
 44.3359375 33.169921875 47.0029296875 28.3369140625 49.0029296875 23.00390625 c 0
 51.0029296875 17.6708984375 52.0029296875 10.6708984375 52.0029296875 2.00390625 c 0
 52.0029296875 -10.6630859375 49.0029296875 -23.330078125 43.0029296875 -35.9970703125 c 2
EndSplineSet
EndChar

StartChar: less
Encoding: 60 60 30
Width: 342
GlyphClass: 2
Flags: W
LayerCount: 2
Fore
SplineSet
180 407 m 1
 188.666992188 415 195.665039062 422.333984375 200.998046875 429.000976562 c 0
 206.331054688 435.66796875 210.6640625 440.66796875 213.997070312 444.000976562 c 0
 222.6640625 452.66796875 233.6640625 464.000976562 246.997070312 478.000976562 c 0
 260.330078125 492.000976562 273.163085938 506.66796875 285.49609375 522.000976562 c 0
 297.829101562 537.333984375 308.329101562 552.666992188 316.99609375 568 c 0
 325.663085938 583.333007812 329.99609375 596.666015625 329.99609375 607.999023438 c 2
 328.99609375 623.999023438 l 2
 328.329101562 624.666015625 327.329101562 625.833007812 325.99609375 627.5 c 0
 324.663085938 629.166992188 322.99609375 631.333984375 320.99609375 634.000976562 c 0
 312.99609375 640.66796875 304.163085938 648.334960938 294.49609375 657.001953125 c 0
 284.829101562 665.668945312 274.662109375 673.668945312 263.995117188 681.001953125 c 0
 253.328125 688.334960938 242.495117188 694.66796875 231.495117188 700.000976562 c 0
 220.495117188 705.333984375 209.662109375 708.000976562 198.995117188 708.000976562 c 2
 190.995117188 707.000976562 l 1
 182.995117188 689.500976562 l 2
 177.662109375 677.833984375 171.829101562 664.666992188 165.49609375 650 c 0
 159.163085938 635.333007812 153.330078125 620.833007812 147.997070312 606.5 c 0
 142.6640625 592.166992188 139.997070312 582.666992188 139.997070312 578 c 0
 139.997070312 561.333007812 139.330078125 544.5 137.997070312 527.5 c 0
 136.6640625 510.5 134.1640625 494.166992188 130.497070312 478.5 c 0
 126.830078125 462.833007812 121.497070312 448.833007812 114.497070312 436.5 c 0
 107.497070312 424.166992188 98.330078125 414.333984375 86.9970703125 407.000976562 c 2
 -5.0029296875 374.000976562 l 1
 7.9970703125 356.000976562 l 1
 21.9970703125 352.66796875 32.830078125 350.334960938 40.4970703125 349.001953125 c 0
 48.1640625 347.668945312 55.3310546875 345.8359375 61.998046875 343.502929688 c 0
 68.6650390625 341.169921875 75.83203125 337.669921875 83.4990234375 333.002929688 c 0
 91.166015625 328.3359375 101.666015625 321.002929688 114.999023438 311.002929688 c 2
 125.999023438 302.002929688 l 2
 125.999023438 301.3359375 130.166015625 297.168945312 138.499023438 289.501953125 c 0
 146.83203125 281.834960938 156.165039062 272.834960938 166.498046875 262.501953125 c 0
 176.831054688 252.168945312 186.6640625 241.668945312 195.997070312 231.001953125 c 0
 205.330078125 220.334960938 210.997070312 212.001953125 212.997070312 206.001953125 c 2
 216.997070312 188.001953125 l 2
 218.997070312 180.668945312 220.330078125 168.3359375 220.997070312 151.002929688 c 0
 221.6640625 133.669921875 222.331054688 115.502929688 222.998046875 96.5029296875 c 0
 223.665039062 77.5029296875 224.33203125 59.5029296875 224.999023438 42.5029296875 c 0
 225.666015625 25.5029296875 226.666015625 14.0029296875 227.999023438 8.0029296875 c 1
 250.999023438 26.0029296875 l 2
 251.666015625 27.3359375 253.666015625 34.6689453125 256.999023438 48.001953125 c 0
 260.33203125 61.3349609375 263.83203125 76.8349609375 267.499023438 94.501953125 c 0
 271.166015625 112.168945312 274.499023438 129.668945312 277.499023438 147.001953125 c 0
 280.499023438 164.334960938 281.999023438 177.66796875 281.999023438 187.000976562 c 2
 281.999023438 195.000976562 l 2
 281.999023438 206.333984375 276.33203125 225.166992188 264.999023438 251.5 c 0
 253.666015625 277.833007812 241.333007812 307.333007812 228 340 c 0
 224.666992188 348 222.166992188 353.666992188 220.5 357 c 0
 218.833007812 360.333007812 217.333007812 364.333007812 216 369 c 2
 215 373 l 1
 180 407 l 1
EndSplineSet
EndChar

StartChar: equal
Encoding: 61 61 31
Width: 385
GlyphClass: 2
Flags: W
LayerCount: 2
Fore
SplineSet
246 296 m 2
 32.0009765625 307.997070312 l 1
 29.0009765625 305.997070312 l 1
 41.0009765625 295.997070312 l 1
 46.5009765625 290.497070312 l 2
 50.16796875 286.830078125 52.66796875 283.997070312 54.0009765625 281.997070312 c 0
 56.66796875 278.6640625 61.66796875 274.831054688 69.0009765625 270.498046875 c 0
 76.333984375 266.165039062 84.6669921875 261.998046875 94 257.998046875 c 2
 122 245.998046875 l 2
 131.333007812 241.998046875 139.333007812 238.331054688 146 234.998046875 c 2
 361 178.998046875 l 1
 359 184.331054688 357.666992188 190.331054688 357 196.998046875 c 0
 356.333007812 203.665039062 356 210.33203125 356 216.999023438 c 0
 355.333007812 225.666015625 354.833007812 232.499023438 354.5 237.499023438 c 0
 354.166992188 242.499023438 354 246.666015625 354 249.999023438 c 0
 354 253.999023438 353.833007812 257.83203125 353.5 261.499023438 c 0
 353.166992188 265.166015625 353 270.333007812 353 277 c 2
 359 307 l 1
 259 298 l 2
 256.333007812 297.333007812 254 296.833007812 252 296.5 c 0
 250 296.166992188 248 296 246 296 c 2
143.000976562 398.997070312 m 2
 357 387 l 1
 360 389 l 1
 348 399 l 1
 342.5 404.5 l 2
 338.833007812 408.166992188 336.333007812 411 335 413 c 0
 332.333007812 416.333007812 327.333007812 420.166015625 320 424.499023438 c 0
 312.666992188 428.83203125 304.333984375 432.999023438 295.000976562 436.999023438 c 2
 267.000976562 448.999023438 l 2
 257.66796875 452.999023438 249.66796875 456.666015625 243.000976562 459.999023438 c 2
 28.0009765625 515.999023438 l 1
 30.0009765625 510.666015625 31.333984375 504.666015625 32.0009765625 497.999023438 c 0
 32.66796875 491.33203125 33.0009765625 484.665039062 33.0009765625 477.998046875 c 0
 33.66796875 469.331054688 34.16796875 462.498046875 34.5009765625 457.498046875 c 0
 34.833984375 452.498046875 35.0009765625 448.331054688 35.0009765625 444.998046875 c 0
 35.0009765625 440.998046875 35.16796875 437.165039062 35.5009765625 433.498046875 c 0
 35.833984375 429.831054688 36.0009765625 424.6640625 36.0009765625 417.997070312 c 2
 30.0009765625 387.997070312 l 1
 130.000976562 396.997070312 l 2
 132.66796875 397.6640625 135.000976562 398.1640625 137.000976562 398.497070312 c 0
 139.000976562 398.830078125 141.000976562 398.997070312 143.000976562 398.997070312 c 2
EndSplineSet
EndChar

StartChar: greater
Encoding: 62 62 32
Width: 305
GlyphClass: 2
Flags: W
LayerCount: 2
Fore
SplineSet
298 369 m 1
 219.997070312 406.999023438 l 1
 209.997070312 415.999023438 l 1
 198.497070312 426.499023438 l 2
 190.830078125 433.499023438 182.163085938 441.666015625 172.49609375 450.999023438 c 0
 162.829101562 460.33203125 153.49609375 470.165039062 144.49609375 480.498046875 c 0
 135.49609375 490.831054688 129.99609375 498.998046875 127.99609375 504.998046875 c 2
 123.99609375 522.998046875 l 2
 121.99609375 529.665039062 120.663085938 541.665039062 119.99609375 558.998046875 c 0
 119.329101562 576.331054688 118.829101562 594.498046875 118.49609375 613.498046875 c 0
 118.163085938 632.498046875 117.663085938 650.498046875 116.99609375 667.498046875 c 0
 116.329101562 684.498046875 114.99609375 695.998046875 112.99609375 701.998046875 c 1
 89.99609375 683.998046875 l 2
 88.6630859375 682.665039062 86.330078125 675.165039062 82.9970703125 661.498046875 c 0
 79.6640625 647.831054688 76.1640625 632.331054688 72.4970703125 614.998046875 c 0
 68.830078125 597.665039062 65.6630859375 580.33203125 62.99609375 562.999023438 c 0
 60.3291015625 545.666015625 58.99609375 532.666015625 58.99609375 523.999023438 c 2
 58.99609375 432.999023438 l 2
 59.6630859375 428.999023438 61.830078125 424.166015625 65.4970703125 418.499023438 c 0
 69.1640625 412.83203125 73.3310546875 406.999023438 77.998046875 400.999023438 c 0
 82.6650390625 394.999023438 86.83203125 389.499023438 90.4990234375 384.499023438 c 0
 94.166015625 379.499023438 96.3330078125 375.999023438 97 373.999023438 c 2
 97 370.999023438 l 2
 97.6669921875 367.666015625 100.333984375 363.999023438 105.000976562 359.999023438 c 0
 109.66796875 355.999023438 115.16796875 351.499023438 121.500976562 346.499023438 c 0
 127.833984375 341.499023438 134.666992188 336.33203125 142 330.999023438 c 0
 149.333007812 325.666015625 156.333007812 319.999023438 163 313.999023438 c 1
 153 303.999023438 143.666992188 294.499023438 135 285.499023438 c 0
 126.333007812 276.499023438 120.333007812 270.33203125 117 266.999023438 c 0
 108.333007812 258.33203125 98 246.999023438 86 232.999023438 c 0
 74 218.999023438 62.3330078125 204.33203125 51 188.999023438 c 0
 39.6669921875 173.666015625 30 158.333007812 22 143 c 0
 14 127.666992188 10 114.333984375 10 103.000976562 c 2
 17 82.0009765625 l 1
 25 75.333984375 34.6669921875 67.5009765625 46 58.5009765625 c 0
 57.3330078125 49.5009765625 69.166015625 40.833984375 81.4990234375 32.5009765625 c 0
 93.83203125 24.16796875 106.33203125 17.16796875 118.999023438 11.5009765625 c 0
 131.666015625 5.833984375 143.333007812 3.0009765625 154 3.0009765625 c 2
 162 3.0009765625 l 2
 163.333007812 3.66796875 165 5.16796875 167 7.5009765625 c 0
 169 9.833984375 170.666992188 12.0009765625 172 14.0009765625 c 2
 170 41.0009765625 l 2
 168.666992188 53.0009765625 167.833984375 66.5009765625 167.500976562 81.5009765625 c 0
 167.16796875 96.5009765625 167.000976562 111.66796875 167.000976562 127.000976562 c 0
 167.000976562 145.000976562 169.16796875 163.16796875 173.500976562 181.500976562 c 0
 177.833984375 199.833984375 183.666992188 217.166992188 191 233.5 c 0
 198.333007812 249.833007812 206.833007812 264.5 216.5 277.5 c 0
 226.166992188 290.5 236.666992188 300.666992188 248 308 c 2
 299 365 l 1
 298 369 l 1
EndSplineSet
EndChar

StartChar: question
Encoding: 63 63 33
Width: 453
GlyphClass: 2
Flags: W
LayerCount: 2
Fore
SplineSet
14 610 m 0
 14 596 15.4921875 579.662109375 18.4921875 560.995117188 c 0
 21.4921875 542.328125 25.4921875 523.661132812 30.4921875 504.994140625 c 0
 35.4921875 486.327148438 41.3251953125 468.994140625 47.9921875 452.994140625 c 0
 54.6591796875 436.994140625 61.6591796875 424.661132812 68.9921875 415.994140625 c 1
 71.9921875 415.994140625 l 1
 79.3251953125 423.327148438 86.8251953125 434.494140625 94.4921875 449.494140625 c 0
 102.159179688 464.494140625 109.326171875 476.994140625 115.993164062 486.994140625 c 0
 127.326171875 502.994140625 140.493164062 518.327148438 155.493164062 532.994140625 c 0
 170.493164062 547.661132812 186.326171875 560.494140625 202.993164062 571.494140625 c 0
 219.66015625 582.494140625 236.827148438 591.327148438 254.494140625 597.994140625 c 0
 272.161132812 604.661132812 289.328125 607.994140625 305.995117188 607.994140625 c 0
 309.328125 607.994140625 310.995117188 606.327148438 310.995117188 602.994140625 c 0
 310.995117188 567.661132812 308.995117188 533.661132812 304.995117188 500.994140625 c 0
 300.995117188 468.327148438 294.495117188 438.327148438 285.495117188 410.994140625 c 0
 276.495117188 383.661132812 264.995117188 359.828125 250.995117188 339.495117188 c 0
 236.995117188 319.162109375 219.995117188 303.329101562 199.995117188 291.99609375 c 0
 177.328125 278.663085938 153.995117188 269.663085938 129.995117188 264.99609375 c 0
 105.995117188 260.329101562 82.328125 257.99609375 58.9951171875 257.99609375 c 1
 57.9951171875 232.99609375 l 2
 57.9951171875 224.99609375 58.828125 217.99609375 60.4951171875 211.99609375 c 0
 62.162109375 205.99609375 65.9951171875 202.329101562 71.9951171875 200.99609375 c 2
 114.995117188 193.99609375 l 1
 249.995117188 219.99609375 l 2
 254.662109375 223.99609375 259.829101562 226.99609375 265.49609375 228.99609375 c 0
 271.163085938 230.99609375 276.663085938 232.829101562 281.99609375 234.49609375 c 0
 287.329101562 236.163085938 292.829101562 238.163085938 298.49609375 240.49609375 c 0
 304.163085938 242.829101562 309.330078125 246.329101562 313.997070312 250.99609375 c 0
 329.330078125 266.329101562 344.330078125 282.329101562 358.997070312 298.99609375 c 0
 373.6640625 315.663085938 386.831054688 332.830078125 398.498046875 350.497070312 c 0
 410.165039062 368.1640625 419.498046875 385.831054688 426.498046875 403.498046875 c 0
 433.498046875 421.165039062 436.998046875 438.33203125 436.998046875 454.999023438 c 0
 436.998046875 468.999023438 435.665039062 478.33203125 432.998046875 482.999023438 c 0
 421.665039062 522.33203125 407.998046875 555.33203125 391.998046875 581.999023438 c 0
 375.998046875 608.666015625 357.831054688 629.999023438 337.498046875 645.999023438 c 0
 317.165039062 661.999023438 294.998046875 673.499023438 270.998046875 680.499023438 c 0
 246.998046875 687.499023438 221.665039062 690.999023438 194.998046875 690.999023438 c 2
 186.998046875 690.999023438 l 2
 183.665039062 690.999023438 180.165039062 690.83203125 176.498046875 690.499023438 c 0
 172.831054688 690.166015625 169.998046875 689.999023438 167.998046875 689.999023438 c 2
 162.998046875 689.999023438 l 2
 160.998046875 689.999023438 156.665039062 689.499023438 149.998046875 688.499023438 c 0
 143.331054688 687.499023438 136.998046875 686.33203125 130.998046875 684.999023438 c 0
 127.665039062 684.33203125 125.165039062 683.665039062 123.498046875 682.998046875 c 0
 121.831054688 682.331054688 116.998046875 680.998046875 108.998046875 678.998046875 c 0
 105.665039062 677.665039062 102.83203125 676.665039062 100.499023438 675.998046875 c 0
 98.166015625 675.331054688 95.9990234375 673.998046875 93.9990234375 671.998046875 c 0
 91.9990234375 671.998046875 88.33203125 670.998046875 82.9990234375 668.998046875 c 0
 77.666015625 666.998046875 73.9990234375 665.331054688 71.9990234375 663.998046875 c 0
 70.666015625 662.665039062 67.4990234375 660.33203125 62.4990234375 656.999023438 c 0
 57.4990234375 653.666015625 53.33203125 651.333007812 49.9990234375 650 c 2
 40.9990234375 644 l 2
 35.666015625 638.666992188 29.8330078125 633.5 23.5 628.5 c 0
 17.1669921875 623.5 14 617.333007812 14 610 c 0
191.9921875 80.9951171875 m 2
 191.995117188 92.9931640625 l 1
 183.995117188 110.993164062 l 1
 96.9951171875 128.993164062 l 1
 89.662109375 124.993164062 85.162109375 121.66015625 83.4951171875 118.993164062 c 0
 81.828125 116.326171875 80.328125 110.993164062 78.9951171875 102.993164062 c 2
 68.9951171875 50.9931640625 l 1
 67.9951171875 38.9931640625 l 1
 80.9951171875 15.9931640625 l 1
 92.328125 12.66015625 104.495117188 8.8271484375 117.495117188 4.494140625 c 0
 130.495117188 0.1611328125 141.328125 -2.671875 149.995117188 -4.0048828125 c 0
 150.662109375 -4.0048828125 152.162109375 -4.171875 154.495117188 -4.5048828125 c 0
 156.828125 -4.837890625 158.661132812 -5.0048828125 159.994140625 -5.0048828125 c 0
 163.327148438 -5.0048828125 165.827148438 -3.5048828125 167.494140625 -0.5048828125 c 0
 169.161132812 2.4951171875 170.994140625 5.9951171875 172.994140625 9.9951171875 c 2
 177.994140625 19.9951171875 l 2
 179.327148438 23.328125 180.16015625 26.1611328125 180.493164062 28.494140625 c 0
 180.826171875 30.8271484375 181.659179688 32.994140625 182.9921875 34.994140625 c 0
 186.325195312 43.6611328125 188.4921875 49.6611328125 189.4921875 52.994140625 c 0
 190.4921875 56.3271484375 190.9921875 58.994140625 190.9921875 60.994140625 c 0
 190.9921875 63.6611328125 191.159179688 65.828125 191.4921875 67.4951171875 c 0
 191.825195312 69.162109375 191.9921875 73.662109375 191.9921875 80.9951171875 c 2
EndSplineSet
EndChar

StartChar: at
Encoding: 64 64 34
Width: 449
GlyphClass: 2
Flags: W
LayerCount: 2
Fore
SplineSet
427 367 m 0
 427 377 426.498046875 387.162109375 425.498046875 397.495117188 c 0
 424.498046875 407.828125 422.665039062 418.328125 419.998046875 428.995117188 c 2
 411.998046875 536.995117188 l 1
 438.998046875 536.995117188 l 1
 438.998046875 550.995117188 435.331054688 566.162109375 427.998046875 582.495117188 c 0
 420.665039062 598.828125 411.665039062 614.828125 400.998046875 630.495117188 c 0
 390.331054688 646.162109375 378.831054688 660.995117188 366.498046875 674.995117188 c 0
 354.165039062 688.995117188 343.33203125 700.662109375 333.999023438 709.995117188 c 1
 328.666015625 706.662109375 324.833007812 703.162109375 322.5 699.495117188 c 0
 320.166992188 695.828125 318.333984375 691.328125 317.000976562 685.995117188 c 1
 297.000976562 687.995117188 278.66796875 688.995117188 262.000976562 688.995117188 c 0
 177.333984375 688.995117188 115.500976562 666.162109375 76.5009765625 620.495117188 c 0
 37.5009765625 574.828125 18.0009765625 504.328125 18.0009765625 408.995117188 c 0
 18.0009765625 382.328125 19.5009765625 353.995117188 22.5009765625 323.995117188 c 0
 25.5009765625 293.995117188 30.5009765625 263.995117188 37.5009765625 233.995117188 c 0
 44.5009765625 203.995117188 53.333984375 175.162109375 64.0009765625 147.495117188 c 0
 74.66796875 119.828125 87.66796875 94.9951171875 103.000976562 72.9951171875 c 0
 117.66796875 56.9951171875 130.334960938 41.9951171875 141.001953125 27.9951171875 c 0
 151.668945312 13.9951171875 161.501953125 1.828125 170.501953125 -8.5048828125 c 0
 179.501953125 -18.837890625 188.501953125 -27.1708984375 197.501953125 -33.50390625 c 0
 206.501953125 -39.8369140625 216.668945312 -43.669921875 228.001953125 -45.0029296875 c 2
 231.001953125 -45.0029296875 l 2
 236.334960938 -45.0029296875 242.001953125 -44.0029296875 248.001953125 -42.0029296875 c 2
 274.001953125 -36.0029296875 l 1
 272.668945312 -34.0029296875 271.168945312 -29.3359375 269.501953125 -22.0029296875 c 0
 267.834960938 -14.669921875 266.66796875 -10.0029296875 266.000976562 -8.0029296875 c 2
 266.000976562 -0.0029296875 l 1
 270.000976562 1.330078125 275.16796875 2.9970703125 281.500976562 4.9970703125 c 0
 287.833984375 6.9970703125 294.500976562 8.9970703125 301.500976562 10.9970703125 c 0
 308.500976562 12.9970703125 315.16796875 15.1640625 321.500976562 17.4970703125 c 0
 327.833984375 19.830078125 333.000976562 21.9970703125 337.000976562 23.9970703125 c 0
 341.66796875 25.9970703125 345.334960938 27.1640625 348.001953125 27.4970703125 c 0
 350.668945312 27.830078125 353.001953125 28.330078125 355.001953125 28.9970703125 c 0
 357.001953125 29.6640625 358.834960938 30.8310546875 360.501953125 32.498046875 c 0
 362.168945312 34.1650390625 364.668945312 37.33203125 368.001953125 41.9990234375 c 1
 350.668945312 53.33203125 336.001953125 67.4990234375 324.001953125 84.4990234375 c 0
 312.001953125 101.499023438 300.668945312 119.999023438 290.001953125 139.999023438 c 1
 282.001953125 139.999023438 l 1
 276.668945312 134.666015625 271.668945312 129.166015625 267.001953125 123.499023438 c 0
 262.334960938 117.83203125 257.16796875 112.499023438 251.500976562 107.499023438 c 0
 245.833984375 102.499023438 239.333984375 98.33203125 232.000976562 94.9990234375 c 0
 224.66796875 91.666015625 215.66796875 89.9990234375 205.000976562 89.9990234375 c 0
 201.000976562 89.9990234375 198.66796875 90.33203125 198.000976562 90.9990234375 c 0
 188.66796875 92.9990234375 180.16796875 103.83203125 172.500976562 123.499023438 c 0
 164.833984375 143.166015625 158.333984375 165.499023438 153.000976562 190.499023438 c 0
 147.66796875 215.499023438 143.66796875 239.499023438 141.000976562 262.499023438 c 0
 138.333984375 285.499023438 137.000976562 301.666015625 137.000976562 310.999023438 c 0
 137.000976562 340.999023438 140.333984375 371.166015625 147.000976562 401.499023438 c 0
 153.66796875 431.83203125 163.834960938 458.999023438 177.501953125 482.999023438 c 0
 191.168945312 506.999023438 208.668945312 526.499023438 230.001953125 541.499023438 c 0
 251.334960938 556.499023438 277.001953125 563.999023438 307.001953125 563.999023438 c 1
 314.334960938 554.666015625 322.66796875 544.833007812 332.000976562 534.5 c 0
 341.333984375 524.166992188 352.333984375 510.666992188 365.000976562 494 c 1
 360.000976562 489 l 1
 312.000976562 513 l 1
 303.000976562 508 l 2
 276.333984375 494 254.500976562 476.5 237.500976562 455.5 c 0
 220.500976562 434.5 212.000976562 409 212.000976562 379 c 0
 212.000976562 353 217.16796875 329.333007812 227.500976562 308 c 0
 237.833984375 286.666992188 249.666992188 265 263 243 c 2
 272 228 l 1
 271.5 226.5 l 2
 271.166992188 225.5 271 224.666992188 271 224 c 0
 271 220 269.666992188 217.333007812 267 216 c 0
 264.333007812 214.666992188 263 212.333984375 263 209.000976562 c 0
 263 205.66796875 266.333007812 201.66796875 273 197.000976562 c 0
 279.666992188 192.333984375 287.5 187.833984375 296.5 183.500976562 c 0
 305.5 179.16796875 314.333007812 175.16796875 323 171.500976562 c 0
 331.666992188 167.833984375 338 165.666992188 342 165 c 2
 342.5 164.5 l 2
 342.833007812 164.166992188 343.333007812 164 344 164 c 0
 344.666992188 164 345.166992188 164.166992188 345.5 164.5 c 2
 346 165 l 1
 354 173 l 1
 374.666992188 203.666992188 392 234.166992188 406 264.5 c 0
 420 294.833007812 427 329 427 367 c 0
344.998046875 390.995117188 m 2
 344.998046875 383.662109375 344.6640625 373.99609375 343.997070312 361.99609375 c 0
 343.330078125 349.99609375 341.830078125 337.99609375 339.497070312 325.99609375 c 0
 337.1640625 313.99609375 333.997070312 303.663085938 329.997070312 294.99609375 c 0
 325.997070312 286.329101562 320.6640625 281.99609375 313.997070312 281.99609375 c 0
 311.997070312 281.99609375 309.997070312 284.49609375 307.997070312 289.49609375 c 0
 305.997070312 294.49609375 303.997070312 300.163085938 301.997070312 306.49609375 c 0
 299.997070312 312.829101562 298.497070312 319.162109375 297.497070312 325.495117188 c 0
 296.497070312 331.828125 295.997070312 336.661132812 295.997070312 339.994140625 c 2
 295.997070312 352.994140625 l 2
 295.997070312 368.994140625 298.330078125 383.661132812 302.997070312 396.994140625 c 0
 307.6640625 410.327148438 318.6640625 416.994140625 335.997070312 416.994140625 c 0
 339.330078125 416.994140625 341.330078125 416.327148438 341.997070312 414.994140625 c 0
 342.6640625 413.661132812 343.331054688 411.328125 343.998046875 407.995117188 c 2
 344.998046875 403.995117188 l 1
 344.998046875 390.995117188 l 2
EndSplineSet
EndChar

StartChar: A
Encoding: 65 65 35
Width: 455
GlyphClass: 2
Flags: W
LayerCount: 2
Fore
SplineSet
342 166 m 0
 345.333007812 163.333007812 347.501953125 160.495117188 348.501953125 157.495117188 c 0
 349.501953125 154.495117188 350.668945312 151.328125 352.001953125 147.995117188 c 2
 354.001953125 140.995117188 l 1
 376.001953125 19.9951171875 l 2
 376.001953125 16.662109375 376.168945312 14.3291015625 376.501953125 12.99609375 c 0
 376.834960938 11.6630859375 377.001953125 10.330078125 377.001953125 8.9970703125 c 2
 387.001953125 -39.0029296875 l 1
 389.668945312 -32.3359375 392.668945312 -19.0029296875 396.001953125 0.9970703125 c 0
 397.334960938 9.6640625 399.16796875 17.8310546875 401.500976562 25.498046875 c 0
 403.833984375 33.1650390625 405.333984375 38.6650390625 406.000976562 41.998046875 c 0
 414.66796875 82.6650390625 421.334960938 122.498046875 426.001953125 161.498046875 c 0
 430.668945312 200.498046875 433.001953125 239.998046875 433.001953125 279.998046875 c 0
 433.001953125 347.998046875 426.168945312 413.331054688 412.501953125 475.998046875 c 0
 398.834960938 538.665039062 375.66796875 602.998046875 343.000976562 668.998046875 c 0
 339.66796875 676.331054688 336.66796875 680.498046875 334.000976562 681.498046875 c 0
 331.333984375 682.498046875 327.333984375 684.665039062 322.000976562 687.998046875 c 2
 232.000976562 687.998046875 l 1
 241.000976562 727.998046875 l 1
 142.000976562 652.998046875 l 1
 141.000976562 646.998046875 l 2
 141.000976562 638.331054688 144.66796875 629.331054688 152.000976562 619.998046875 c 1
 122.000976562 569.998046875 98.0009765625 519.998046875 80.0009765625 469.998046875 c 0
 62.0009765625 419.998046875 45.333984375 367.998046875 30.0009765625 313.998046875 c 0
 28.0009765625 310.665039062 23.0009765625 308.998046875 15.0009765625 308.998046875 c 0
 9.66796875 308.998046875 4.0009765625 310.665039062 -1.9990234375 313.998046875 c 0
 -7.9990234375 317.331054688 -13.9990234375 320.831054688 -19.9990234375 324.498046875 c 0
 -25.9990234375 328.165039062 -31.666015625 331.665039062 -36.9990234375 334.998046875 c 0
 -42.33203125 338.331054688 -47.33203125 339.998046875 -51.9990234375 339.998046875 c 0
 -53.33203125 339.998046875 -54.4990234375 339.831054688 -55.4990234375 339.498046875 c 2
 -59.9990234375 337.998046875 l 1
 -56.666015625 336.665039062 -52.166015625 333.165039062 -46.4990234375 327.498046875 c 0
 -40.83203125 321.831054688 -35.1650390625 315.6640625 -29.498046875 308.997070312 c 0
 -23.8310546875 302.330078125 -18.498046875 296.330078125 -13.498046875 290.997070312 c 0
 -8.498046875 285.6640625 -4.6650390625 282.6640625 -1.998046875 281.997070312 c 0
 3.3349609375 280.6640625 9.001953125 278.331054688 15.001953125 274.998046875 c 0
 21.001953125 271.665039062 25.001953125 267.665039062 27.001953125 262.998046875 c 2
 19.001953125 72.998046875 l 2
 19.001953125 60.998046875 23.001953125 50.8310546875 31.001953125 42.498046875 c 0
 39.001953125 34.1650390625 49.1689453125 27.498046875 61.501953125 22.498046875 c 0
 73.8349609375 17.498046875 87.16796875 13.498046875 101.500976562 10.498046875 c 0
 115.833984375 7.498046875 129.333984375 4.998046875 142.000976562 2.998046875 c 2
 155.000976562 -0.001953125 l 2
 161.000976562 -1.3349609375 168.833984375 -2.16796875 178.500976562 -2.5009765625 c 0
 188.16796875 -2.833984375 196.334960938 -3.0009765625 203.001953125 -3.0009765625 c 2
 212.001953125 -3.0009765625 l 1
 214.001953125 4.9990234375 l 2
 212.668945312 7.666015625 210.501953125 13.666015625 207.501953125 22.9990234375 c 0
 204.501953125 32.33203125 201.501953125 42.4990234375 198.501953125 53.4990234375 c 0
 195.501953125 64.4990234375 192.668945312 74.83203125 190.001953125 84.4990234375 c 0
 187.334960938 94.166015625 185.66796875 100.999023438 185.000976562 104.999023438 c 0
 182.333984375 113.666015625 178.833984375 125.499023438 174.500976562 140.499023438 c 0
 170.16796875 155.499023438 168.000976562 167.999023438 168.000976562 177.999023438 c 2
 170.000976562 186.999023438 l 1
 263.000976562 105.999023438 l 1
 265.000976562 105.499023438 l 2
 266.333984375 105.166015625 267.333984375 104.999023438 268.000976562 104.999023438 c 2
 270.000976562 104.999023438 l 2
 276.000976562 104.999023438 282.16796875 107.666015625 288.500976562 112.999023438 c 0
 294.833984375 118.33203125 301.166992188 124.499023438 307.5 131.499023438 c 0
 313.833007812 138.499023438 320 145.33203125 326 151.999023438 c 0
 332 158.666015625 337.333007812 163.333007812 342 166 c 0
161.001953125 297.995117188 m 0
 156.334960938 301.328125 153.170898438 307.993164062 151.50390625 317.993164062 c 0
 149.836914062 327.993164062 149.00390625 339.993164062 149.00390625 353.993164062 c 0
 149.00390625 367.326171875 150.00390625 381.993164062 152.00390625 397.993164062 c 0
 154.00390625 413.993164062 156.336914062 429.993164062 159.00390625 445.993164062 c 0
 161.670898438 461.993164062 164.50390625 477.66015625 167.50390625 492.993164062 c 0
 170.50390625 508.326171875 173.00390625 522.326171875 175.00390625 534.993164062 c 0
 176.336914062 540.326171875 180.169921875 545.993164062 186.502929688 551.993164062 c 0
 192.8359375 557.993164062 198.668945312 564.326171875 204.001953125 570.993164062 c 1
 224.001953125 547.66015625 241.001953125 521.493164062 255.001953125 492.493164062 c 0
 269.001953125 463.493164062 281.001953125 435.993164062 291.001953125 409.993164062 c 0
 295.001953125 399.993164062 298.834960938 386.993164062 302.501953125 370.993164062 c 0
 306.168945312 354.993164062 309.3359375 339.326171875 312.002929688 323.993164062 c 0
 314.669921875 308.66015625 316.836914062 295.16015625 318.50390625 283.493164062 c 0
 320.170898438 271.826171875 321.00390625 265.326171875 321.00390625 263.993164062 c 2
 319.00390625 254.993164062 l 1
 316.336914062 255.66015625 311.50390625 256.827148438 304.50390625 258.494140625 c 0
 297.50390625 260.161132812 292.336914062 261.661132812 289.00390625 262.994140625 c 0
 283.670898438 263.661132812 274.670898438 265.494140625 262.00390625 268.494140625 c 0
 249.336914062 271.494140625 236.169921875 274.827148438 222.502929688 278.494140625 c 0
 208.8359375 282.161132812 196.168945312 285.828125 184.501953125 289.495117188 c 0
 172.834960938 293.162109375 165.001953125 295.995117188 161.001953125 297.995117188 c 0
EndSplineSet
EndChar

StartChar: B
Encoding: 66 66 36
Width: 519
GlyphClass: 2
Flags: W
LayerCount: 2
Fore
SplineSet
77 0 m 2
 222.001953125 -0.0009765625 l 1
 238.001953125 4.9990234375 l 2
 238.668945312 5.666015625 240.001953125 5.9990234375 242.001953125 5.9990234375 c 0
 244.001953125 5.9990234375 245.334960938 6.33203125 246.001953125 6.9990234375 c 0
 258.001953125 10.33203125 270.668945312 13.9990234375 284.001953125 17.9990234375 c 0
 297.334960938 21.9990234375 310.501953125 26.4990234375 323.501953125 31.4990234375 c 0
 336.501953125 36.4990234375 348.834960938 42.166015625 360.501953125 48.4990234375 c 0
 372.168945312 54.83203125 382.3359375 61.6650390625 391.002929688 68.998046875 c 0
 405.002929688 79.6650390625 418.502929688 92.33203125 431.502929688 106.999023438 c 0
 444.502929688 121.666015625 456.3359375 137.333007812 467.002929688 154 c 0
 477.669921875 170.666992188 486.169921875 188 492.502929688 206 c 0
 498.8359375 224 502.002929688 241.666992188 502.002929688 259 c 0
 502.002929688 296.333007812 492.502929688 322.666015625 473.502929688 337.999023438 c 0
 454.502929688 353.33203125 430.669921875 362.33203125 402.002929688 364.999023438 c 1
 424.002929688 388.33203125 442.002929688 413.83203125 456.002929688 441.499023438 c 0
 470.002929688 469.166015625 477.002929688 498.999023438 477.002929688 530.999023438 c 0
 477.002929688 562.33203125 470.502929688 587.33203125 457.502929688 605.999023438 c 0
 444.502929688 624.666015625 427.669921875 638.999023438 407.002929688 648.999023438 c 0
 386.3359375 658.999023438 363.168945312 665.499023438 337.501953125 668.499023438 c 0
 311.834960938 671.499023438 286.334960938 672.999023438 261.001953125 672.999023438 c 0
 249.668945312 672.999023438 238.501953125 672.83203125 227.501953125 672.499023438 c 0
 216.501953125 672.166015625 206.001953125 671.666015625 196.001953125 670.999023438 c 1
 162.001953125 696.999023438 l 1
 158.668945312 692.999023438 150.668945312 684.33203125 138.001953125 670.999023438 c 0
 125.334960938 657.666015625 112.001953125 643.833007812 98.001953125 629.5 c 0
 84.001953125 615.166992188 71.3349609375 602.333984375 60.001953125 591.000976562 c 2
 43.001953125 574.000976562 l 1
 43.001953125 566.000976562 44.001953125 560.500976562 46.001953125 557.500976562 c 0
 48.001953125 554.500976562 50.6689453125 553.000976562 54.001953125 553.000976562 c 0
 57.3349609375 553.000976562 61.66796875 554.000976562 67.0009765625 556.000976562 c 0
 72.333984375 558.000976562 78.333984375 559.000976562 85.0009765625 559.000976562 c 1
 85.0009765625 541.66796875 84.0009765625 522.66796875 82.0009765625 502.000976562 c 0
 80.0009765625 481.333984375 77.5009765625 460.666992188 74.5009765625 440 c 0
 71.5009765625 419.333007812 68.66796875 399.5 66.0009765625 380.5 c 0
 63.333984375 361.5 61.333984375 345 60.0009765625 331 c 1
 9.0009765625 314 l 1
 9.0009765625 306 l 1
 52.0009765625 280 l 2
 53.333984375 280 55.0009765625 279 57.0009765625 277 c 0
 59.0009765625 275 60.0009765625 273.333007812 60.0009765625 272 c 0
 62.0009765625 244 64.833984375 216 68.5009765625 188 c 0
 72.16796875 160 76.66796875 131.666992188 82.0009765625 103 c 0
 80.66796875 97 79.66796875 91.3330078125 79.0009765625 86 c 0
 78.333984375 80.6669921875 77.6669921875 75.6669921875 77 71 c 2
 77 59 l 1
 26 42 l 1
 26 34 l 1
 69 8 l 2
 70.3330078125 8 72 7 74 5 c 0
 76 3 77 1.3330078125 77 0 c 2
177.001953125 506.999023438 m 1
 178.00390625 507 l 1
 178.00390625 566 l 1
 196.00390625 583 l 1
 205.00390625 584 l 2
 211.00390625 584.666992188 216.336914062 585 221.00390625 585 c 2
 230.00390625 585 l 2
 242.00390625 585 254.670898438 584 268.00390625 582 c 0
 281.336914062 580 293.669921875 576.166992188 305.002929688 570.5 c 0
 316.3359375 564.833007812 325.668945312 557.166015625 333.001953125 547.499023438 c 0
 340.334960938 537.83203125 344.001953125 525.33203125 344.001953125 509.999023438 c 0
 344.001953125 492.666015625 338.834960938 476.666015625 328.501953125 461.999023438 c 0
 318.168945312 447.33203125 305.501953125 434.33203125 290.501953125 422.999023438 c 0
 275.501953125 411.666015625 259.501953125 401.666015625 242.501953125 392.999023438 c 0
 225.501953125 384.33203125 210.001953125 376.999023438 196.001953125 370.999023438 c 1
 187.334960938 382.33203125 182.001953125 395.999023438 180.001953125 411.999023438 c 0
 178.001953125 427.999023438 177.001953125 443.666015625 177.001953125 458.999023438 c 2
 177.001953125 506.999023438 l 1
204.00390625 257 m 2
 205.0078125 278 l 1
 223.674804688 281.333007812 242.0078125 285.833007812 260.0078125 291.5 c 0
 278.0078125 297.166992188 294.674804688 303.333984375 310.0078125 310.000976562 c 1
 336.0078125 300.66796875 349.0078125 278.66796875 349.0078125 244.000976562 c 0
 349.0078125 229.333984375 345.674804688 215.000976562 339.0078125 201.000976562 c 0
 332.340820312 187.000976562 323.673828125 174.000976562 313.006835938 162.000976562 c 0
 302.33984375 150.000976562 290.672851562 139.16796875 278.005859375 129.500976562 c 0
 265.338867188 119.833984375 252.671875 111.666992188 240.004882812 105 c 1
 231.337890625 129 223.170898438 154.333007812 215.50390625 181 c 0
 207.836914062 207.666992188 204.00390625 233 204.00390625 257 c 2
EndSplineSet
EndChar

StartChar: C
Encoding: 67 67 37
Width: 397
GlyphClass: 2
Flags: W
LayerCount: 2
Fore
SplineSet
19 377 m 0
 19 341 21.6669921875 305.833007812 27 271.5 c 0
 32.3330078125 237.166992188 42.666015625 203 57.9990234375 169 c 0
 68.666015625 145 83.166015625 122.666992188 101.499023438 102 c 0
 119.83203125 81.3330078125 140.499023438 63.3330078125 163.499023438 48 c 0
 186.499023438 32.6669921875 210.999023438 20.6669921875 236.999023438 12 c 0
 262.999023438 3.3330078125 288.666015625 -1 313.999023438 -1 c 0
 317.33203125 -1 319.33203125 -0.3330078125 319.999023438 1 c 0
 320.666015625 2.3330078125 321.666015625 4.666015625 322.999023438 7.9990234375 c 2
 324.999023438 12.9990234375 l 2
 326.999023438 25.666015625 329.666015625 39.9990234375 332.999023438 55.9990234375 c 0
 336.33203125 71.9990234375 339.499023438 88.166015625 342.499023438 104.499023438 c 0
 345.499023438 120.83203125 348.166015625 136.999023438 350.499023438 152.999023438 c 0
 352.83203125 168.999023438 353.999023438 183.666015625 353.999023438 196.999023438 c 2
 353.999023438 201.999023438 l 1
 311.33203125 204.666015625 270.999023438 213.333007812 232.999023438 228 c 0
 194.999023438 242.666992188 161.999023438 268 133.999023438 304 c 0
 113.33203125 332 98.9990234375 361.333007812 90.9990234375 392 c 0
 82.9990234375 422.666992188 78.9990234375 455.333984375 78.9990234375 490.000976562 c 0
 78.9990234375 508.000976562 79.666015625 522.000976562 80.9990234375 532.000976562 c 0
 82.33203125 542.000976562 85.6650390625 549.500976562 90.998046875 554.500976562 c 0
 96.3310546875 559.500976562 103.831054688 562.500976562 113.498046875 563.500976562 c 0
 123.165039062 564.500976562 136.665039062 565.000976562 153.998046875 565.000976562 c 0
 171.998046875 565.000976562 188.331054688 564.000976562 202.998046875 562.000976562 c 0
 217.665039062 560.000976562 231.83203125 556.66796875 245.499023438 552.000976562 c 0
 259.166015625 547.333984375 272.666015625 541.166992188 285.999023438 533.5 c 0
 299.33203125 525.833007812 313.999023438 516.666015625 329.999023438 505.999023438 c 1
 332.999023438 504.999023438 l 2
 337.666015625 504.999023438 342.666015625 509.83203125 347.999023438 519.499023438 c 0
 353.33203125 529.166015625 358.165039062 539.999023438 362.498046875 551.999023438 c 0
 366.831054688 563.999023438 370.498046875 575.499023438 373.498046875 586.499023438 c 0
 376.498046875 597.499023438 377.998046875 604.33203125 377.998046875 606.999023438 c 2
 378.998046875 610.999023438 l 1
 378.998046875 663.999023438 l 2
 378.998046875 674.666015625 377.998046875 682.666015625 375.998046875 687.999023438 c 0
 375.331054688 690.666015625 373.998046875 691.999023438 371.998046875 691.999023438 c 0
 358.665039062 695.33203125 348.498046875 697.33203125 341.498046875 697.999023438 c 0
 334.498046875 698.666015625 325.331054688 698.999023438 313.998046875 698.999023438 c 0
 271.331054688 698.999023438 232.498046875 689.499023438 197.498046875 670.499023438 c 0
 162.498046875 651.499023438 128.998046875 627.999023438 96.998046875 599.999023438 c 0
 96.3310546875 599.33203125 95.3310546875 598.999023438 93.998046875 598.999023438 c 0
 91.998046875 598.999023438 90.998046875 601.33203125 90.998046875 605.999023438 c 2
 90.998046875 663.999023438 l 1
 86.998046875 663.999023438 83.498046875 660.83203125 80.498046875 654.499023438 c 0
 77.498046875 648.166015625 74.8310546875 640.833007812 72.498046875 632.5 c 0
 70.1650390625 624.166992188 67.83203125 616.166992188 65.4990234375 608.5 c 0
 63.166015625 600.833007812 60.9990234375 596 58.9990234375 594 c 0
 50.33203125 583.333007812 41.83203125 573 33.4990234375 563 c 0
 25.166015625 553 18.666015625 541.333007812 13.9990234375 528 c 1
 20.666015625 531.333007812 24.8330078125 533.5 26.5 534.5 c 0
 28.1669921875 535.5 33 536 41 536 c 1
 41 532 l 1
 33.6669921875 504 28.1669921875 478.5 24.5 455.5 c 0
 20.8330078125 432.5 19 406.333007812 19 377 c 0
EndSplineSet
EndChar

StartChar: D
Encoding: 68 68 38
Width: 485
GlyphClass: 2
Flags: W
LayerCount: 2
Fore
SplineSet
62 57 m 1
 101 -2.00390625 l 1
 102 -2.00390625 l 1
 102 -1.00390625 l 1
 127 -0.00390625 l 2
 133.666992188 -0.00390625 146.666992188 5.1630859375 166 15.49609375 c 0
 185.333007812 25.8291015625 207.5 40.3291015625 232.5 58.99609375 c 0
 257.5 77.6630859375 283.833007812 99.830078125 311.5 125.497070312 c 0
 339.166992188 151.1640625 364.5 179.331054688 387.5 209.998046875 c 0
 410.5 240.665039062 429.5 273.33203125 444.5 307.999023438 c 0
 459.5 342.666015625 467 378.333007812 467 415 c 0
 467 422.333007812 466.666992188 430 466 438 c 0
 465.333007812 446 464.333007812 453.666992188 463 461 c 0
 462.333007812 462.333007812 461.166015625 467.166015625 459.499023438 475.499023438 c 0
 457.83203125 483.83203125 455.665039062 492.33203125 452.998046875 500.999023438 c 2
 449.998046875 516.999023438 l 2
 441.331054688 548.999023438 429.498046875 576.166015625 414.498046875 598.499023438 c 0
 399.498046875 620.83203125 381.998046875 638.999023438 361.998046875 652.999023438 c 0
 341.998046875 666.999023438 320.165039062 676.999023438 296.498046875 682.999023438 c 0
 272.831054688 688.999023438 247.6640625 691.999023438 220.997070312 691.999023438 c 0
 211.6640625 691.999023438 202.331054688 691.666015625 192.998046875 690.999023438 c 0
 183.665039062 690.33203125 174.33203125 689.33203125 164.999023438 687.999023438 c 1
 163.999023438 698.999023438 l 1
 163.999023438 720.999023438 l 1
 156.999023438 733.999023438 l 1
 151.666015625 716.666015625 141.333007812 697.833007812 126 677.5 c 0
 110.666992188 657.166992188 94.6669921875 636.166992188 78 614.5 c 0
 61.3330078125 592.833007812 46.666015625 570.666015625 33.9990234375 547.999023438 c 0
 21.33203125 525.33203125 14.9990234375 502.999023438 14.9990234375 480.999023438 c 2
 14.9990234375 469.999023438 l 2
 14.9990234375 463.999023438 15.33203125 460.666015625 15.9990234375 459.999023438 c 2
 16.9990234375 454.999023438 l 1
 27.666015625 465.666015625 38.4990234375 472.833007812 49.4990234375 476.5 c 0
 60.4990234375 480.166992188 72.9990234375 484.666992188 86.9990234375 490 c 1
 83.666015625 452 81.3330078125 413 80 373 c 0
 78.6669921875 333 78 292 78 250 c 0
 78 220 78.3330078125 191.166992188 79 163.5 c 0
 79.6669921875 135.833007812 80.6669921875 109 82 83 c 1
 67.3330078125 81 60 75 60 65 c 2
 60.5 63 l 1
 62 57 l 1
166 504.99609375 m 2
 176 546.995117188 l 1
 177 546.995117188 l 2
 179 546.995117188 183.833007812 546.662109375 191.5 545.995117188 c 0
 199.166992188 545.328125 207.666992188 544.161132812 217 542.494140625 c 0
 226.333007812 540.827148438 235.833007812 538.994140625 245.5 536.994140625 c 0
 255.166992188 534.994140625 263 532.661132812 269 529.994140625 c 0
 277 526.661132812 286.333007812 517.994140625 297 503.994140625 c 0
 307.666992188 489.994140625 317 467.994140625 325 437.994140625 c 0
 325.666992188 432.661132812 326.5 425.828125 327.5 417.495117188 c 0
 328.5 409.162109375 329.333007812 400.495117188 330 391.495117188 c 0
 330.666992188 382.495117188 331.333984375 373.828125 332.000976562 365.495117188 c 0
 332.66796875 357.162109375 333.000976562 350.329101562 333.000976562 344.99609375 c 0
 333.000976562 320.329101562 330.000976562 295.829101562 324.000976562 271.49609375 c 0
 318.000976562 247.163085938 309.66796875 224.830078125 299.000976562 204.497070312 c 0
 288.333984375 184.1640625 275.500976562 166.331054688 260.500976562 150.998046875 c 0
 245.500976562 135.665039062 229.000976562 124.665039062 211.000976562 117.998046875 c 1
 209.000976562 123.331054688 206.833984375 132.831054688 204.500976562 146.498046875 c 0
 202.16796875 160.165039062 199.66796875 175.665039062 197.000976562 192.998046875 c 0
 194.333984375 210.331054688 191.666992188 228.6640625 189 247.997070312 c 0
 186.333007812 267.330078125 183.833007812 285.663085938 181.5 302.99609375 c 0
 179.166992188 320.329101562 177 335.662109375 175 348.995117188 c 0
 173 362.328125 171.333007812 371.661132812 170 376.994140625 c 0
 168.666992188 383.661132812 167.5 394.828125 166.5 410.495117188 c 0
 165.5 426.162109375 165 441.662109375 165 456.995117188 c 2
 165 484.995117188 l 2
 165 497.662109375 165.333007812 504.329101562 166 504.99609375 c 2
EndSplineSet
EndChar

StartChar: E
Encoding: 69 69 39
Width: 439
GlyphClass: 2
Flags: W
LayerCount: 2
Fore
SplineSet
52 77 m 1
 5.9951171875 71.0029296875 l 1
 45.9951171875 51.0029296875 86.9951171875 34.3359375 128.995117188 21.0029296875 c 0
 170.995117188 7.669921875 214.995117188 1.0029296875 260.995117188 1.0029296875 c 1
 267.995117188 5.0029296875 l 2
 271.328125 6.3359375 275.328125 7.8359375 279.995117188 9.5029296875 c 0
 284.662109375 11.169921875 288.995117188 12.669921875 292.995117188 14.0029296875 c 2
 298.995117188 18.0029296875 l 1
 299.495117188 18.5029296875 l 2
 299.828125 18.8359375 300.328125 19.0029296875 300.995117188 19.0029296875 c 0
 303.662109375 19.669921875 307.829101562 21.169921875 313.49609375 23.5029296875 c 0
 319.163085938 25.8359375 324.99609375 28.6689453125 330.99609375 32.001953125 c 0
 336.99609375 35.3349609375 342.663085938 39.001953125 347.99609375 43.001953125 c 0
 353.329101562 47.001953125 356.99609375 50.6689453125 358.99609375 54.001953125 c 0
 360.99609375 58.001953125 363.829101562 65.501953125 367.49609375 76.501953125 c 0
 371.163085938 87.501953125 374.99609375 99.6689453125 378.99609375 113.001953125 c 0
 382.99609375 126.334960938 386.329101562 139.501953125 388.99609375 152.501953125 c 0
 391.663085938 165.501953125 392.99609375 176.001953125 392.99609375 184.001953125 c 0
 392.99609375 188.668945312 392.663085938 191.3359375 391.99609375 192.002929688 c 2
 223.99609375 114.002929688 l 1
 211.99609375 143.002929688 l 2
 206.663085938 156.3359375 200.830078125 171.168945312 194.497070312 187.501953125 c 0
 188.1640625 203.834960938 182.331054688 220.001953125 176.998046875 236.001953125 c 0
 171.665039062 252.001953125 167.165039062 267.334960938 163.498046875 282.001953125 c 0
 159.831054688 296.668945312 157.998046875 309.001953125 157.998046875 319.001953125 c 0
 157.998046875 322.334960938 158.165039062 324.834960938 158.498046875 326.501953125 c 0
 158.831054688 328.168945312 158.998046875 329.668945312 158.998046875 331.001953125 c 1
 190.998046875 318.334960938 221.831054688 307.334960938 251.498046875 298.001953125 c 0
 281.165039062 288.668945312 312.33203125 280.001953125 344.999023438 272.001953125 c 1
 343.666015625 278.001953125 342.833007812 284.668945312 342.5 292.001953125 c 0
 342.166992188 299.334960938 342 307.001953125 342 315.001953125 c 0
 342 335.001953125 342.833007812 355.001953125 344.5 375.001953125 c 0
 346.166992188 395.001953125 347.666992188 411.668945312 349 425.001953125 c 1
 347 432.001953125 l 1
 285 420.001953125 l 2
 276.333007812 418.668945312 264.833007812 417.501953125 250.5 416.501953125 c 0
 236.166992188 415.501953125 221.333984375 415.001953125 206.000976562 415.001953125 c 0
 190.000976562 415.001953125 176.000976562 416.001953125 164.000976562 418.001953125 c 0
 152.000976562 420.001953125 144.333984375 424.334960938 141.000976562 431.001953125 c 0
 141.000976562 432.334960938 140.66796875 433.501953125 140.000976562 434.501953125 c 0
 139.333984375 435.501953125 139.000976562 436.334960938 139.000976562 437.001953125 c 2
 139.000976562 444.001953125 l 2
 139.000976562 450.668945312 139.333984375 459.668945312 140.000976562 471.001953125 c 0
 140.66796875 482.334960938 141.834960938 495.001953125 143.501953125 509.001953125 c 0
 145.168945312 523.001953125 147.168945312 538.001953125 149.501953125 554.001953125 c 0
 151.834960938 570.001953125 154.66796875 586.001953125 158.000976562 602.001953125 c 0
 158.66796875 602.668945312 159.000976562 605.668945312 159.000976562 611.001953125 c 0
 159.000976562 615.001953125 159.333984375 617.001953125 160.000976562 617.001953125 c 2
 160.500976562 618.001953125 l 2
 160.833984375 618.668945312 161.666992188 619.001953125 163 619.001953125 c 0
 164.333007812 620.334960938 166.333007812 621.001953125 169 621.001953125 c 2
 173 621.001953125 l 2
 183 621.001953125 193.333007812 618.834960938 204 614.501953125 c 0
 214.666992188 610.168945312 225.333984375 604.8359375 236.000976562 598.502929688 c 0
 246.66796875 592.169921875 257.334960938 585.169921875 268.001953125 577.502929688 c 0
 278.668945312 569.8359375 289.001953125 562.668945312 299.001953125 556.001953125 c 2
 310.001953125 548.001953125 l 2
 316.668945312 542.668945312 320.8359375 539.501953125 322.502929688 538.501953125 c 2
 325.002929688 537.001953125 l 2
 329.002929688 533.001953125 334.669921875 528.168945312 342.002929688 522.501953125 c 0
 349.3359375 516.834960938 357.002929688 511.001953125 365.002929688 505.001953125 c 0
 373.002929688 499.001953125 380.8359375 493.501953125 388.502929688 488.501953125 c 0
 396.169921875 483.501953125 402.002929688 479.668945312 406.002929688 477.001953125 c 2
 409.002929688 475.001953125 l 1
 417.002929688 475.001953125 l 1
 417.002929688 474.001953125 l 1
 417.002929688 476.001953125 416.8359375 480.501953125 416.502929688 487.501953125 c 0
 416.169921875 494.501953125 415.836914062 502.334960938 415.50390625 511.001953125 c 0
 415.170898438 519.668945312 414.670898438 528.501953125 414.00390625 537.501953125 c 0
 413.336914062 546.501953125 412.669921875 554.001953125 412.002929688 560.001953125 c 0
 408.002929688 577.334960938 405.3359375 591.001953125 404.002929688 601.001953125 c 0
 402.669921875 611.001953125 399.336914062 622.668945312 394.00390625 636.001953125 c 0
 390.00390625 646.668945312 383.00390625 655.668945312 373.00390625 663.001953125 c 0
 363.00390625 670.334960938 351.170898438 676.16796875 337.50390625 680.500976562 c 0
 323.836914062 684.833984375 308.669921875 688.000976562 292.002929688 690.000976562 c 0
 275.3359375 692.000976562 258.668945312 693.000976562 242.001953125 693.000976562 c 0
 219.334960938 693.000976562 199.66796875 691.833984375 183.000976562 689.500976562 c 0
 166.333984375 687.16796875 152.333984375 684.334960938 141.000976562 681.001953125 c 1
 140.000976562 683.001953125 l 1
 135.000976562 717.001953125 l 1
 133.000976562 723.001953125 l 1
 132.333984375 721.668945312 131.333984375 719.501953125 130.000976562 716.501953125 c 0
 128.66796875 713.501953125 127.000976562 710.334960938 125.000976562 707.001953125 c 2
 119.000976562 697.001953125 l 2
 117.000976562 693.668945312 115.66796875 691.668945312 115.000976562 691.001953125 c 0
 113.66796875 687.668945312 111.16796875 683.668945312 107.500976562 679.001953125 c 0
 103.833984375 674.334960938 101.666992188 672.001953125 101 672.001953125 c 2
 34 623.001953125 l 1
 36 617.001953125 l 1
 42.6669921875 619.001953125 48.5 621.001953125 53.5 623.001953125 c 0
 58.5 625.001953125 64.3330078125 626.001953125 71 626.001953125 c 0
 74.3330078125 626.001953125 79 625.001953125 85 623.001953125 c 0
 86.3330078125 622.334960938 88 621.834960938 90 621.501953125 c 2
 93 621.001953125 l 1
 53 447.001953125 l 1
 51.6669921875 448.334960938 47 449.334960938 39 450.001953125 c 0
 31 450.668945312 23.6669921875 451.001953125 17 451.001953125 c 2
 6 451.001953125 l 1
 3 449.001953125 l 1
 0 439.001953125 l 1
 5.5 433.001953125 l 2
 9.1669921875 429.001953125 11.6669921875 426.001953125 13 424.001953125 c 2
 47 393.001953125 l 2
 47 392.334960938 47.1669921875 390.16796875 47.5 386.500976562 c 0
 47.8330078125 382.833984375 48 379.333984375 48 376.000976562 c 0
 48 370.66796875 48.1669921875 366.500976562 48.5 363.500976562 c 0
 48.8330078125 360.500976562 49.3330078125 357.66796875 50 355.000976562 c 2
 50 264.000976562 l 1
 48 242.000976562 l 2
 48 215.333984375 48.3330078125 189.166992188 49 163.5 c 0
 49.6669921875 137.833007812 50.6669921875 109 52 77 c 1
EndSplineSet
EndChar

StartChar: F
Encoding: 70 70 40
Width: 422
GlyphClass: 2
Flags: W
LayerCount: 2
Fore
SplineSet
47 428 m 1
 -13.00390625 433.001953125 l 1
 4.99609375 397.001953125 l 1
 10.99609375 388.001953125 l 2
 13.6630859375 384.001953125 16.49609375 379.834960938 19.49609375 375.501953125 c 0
 22.49609375 371.168945312 24.99609375 367.168945312 26.99609375 363.501953125 c 0
 28.99609375 359.834960938 29.99609375 357.66796875 29.99609375 357.000976562 c 0
 29.99609375 356.333984375 30.1630859375 355.666992188 30.49609375 355 c 0
 30.8291015625 354.333007812 30.99609375 353.333007812 30.99609375 352 c 0
 30.99609375 350.666992188 30.8291015625 349.166992188 30.49609375 347.5 c 0
 30.1630859375 345.833007812 29.99609375 343.333007812 29.99609375 340 c 2
 29.99609375 263 l 2
 30.6630859375 251.666992188 31.99609375 238.333984375 33.99609375 223.000976562 c 0
 35.99609375 207.66796875 38.1630859375 192.16796875 40.49609375 176.500976562 c 0
 42.8291015625 160.833984375 45.3291015625 145.500976562 47.99609375 130.500976562 c 0
 50.6630859375 115.500976562 52.99609375 103.000976562 54.99609375 93.0009765625 c 0
 56.99609375 87.0009765625 59.3291015625 79.333984375 61.99609375 70.0009765625 c 0
 64.6630859375 60.66796875 67.330078125 51.5009765625 69.9970703125 42.5009765625 c 0
 72.6640625 33.5009765625 74.9970703125 25.66796875 76.9970703125 19.0009765625 c 0
 78.9970703125 12.333984375 80.330078125 8.6669921875 80.9970703125 8 c 2
 88.9970703125 0 l 1
 207.997070312 34 l 2
 213.330078125 35.3330078125 216.330078125 37.3330078125 216.997070312 40 c 0
 217.6640625 42.6669921875 217.997070312 45.6669921875 217.997070312 49 c 2
 217.997070312 51 l 2
 217.997070312 66.3330078125 215.330078125 83.666015625 209.997070312 102.999023438 c 0
 204.6640625 122.33203125 198.831054688 142.665039062 192.498046875 163.998046875 c 0
 186.165039062 185.331054688 180.33203125 207.1640625 174.999023438 229.497070312 c 0
 169.666015625 251.830078125 166.999023438 273.997070312 166.999023438 295.997070312 c 1
 355.999023438 288.997070312 l 1
 355.999023438 290.997070312 355.666015625 295.1640625 354.999023438 301.497070312 c 0
 354.33203125 307.830078125 353.665039062 311.997070312 352.998046875 313.997070312 c 0
 350.998046875 321.997070312 348.165039062 331.830078125 344.498046875 343.497070312 c 0
 340.831054688 355.1640625 337.1640625 366.6640625 333.497070312 377.997070312 c 0
 329.830078125 389.330078125 326.497070312 398.997070312 323.497070312 406.997070312 c 2
 318.997070312 418.997070312 l 1
 173.997070312 410.997070312 l 2
 170.6640625 410.997070312 167.831054688 414.330078125 165.498046875 420.997070312 c 0
 163.165039062 427.6640625 161.33203125 435.831054688 159.999023438 445.498046875 c 0
 158.666015625 455.165039062 157.833007812 465.498046875 157.5 476.498046875 c 0
 157.166992188 487.498046875 157 497.331054688 157 505.998046875 c 2
 157 560.998046875 l 1
 166 568.998046875 l 2
 166 569.665039062 170.666992188 568.83203125 180 566.499023438 c 0
 189.333007812 564.166015625 200.333007812 561.166015625 213 557.499023438 c 0
 225.666992188 553.83203125 238.833984375 549.83203125 252.500976562 545.499023438 c 0
 266.16796875 541.166015625 277.000976562 537.666015625 285.000976562 534.999023438 c 2
 344.000976562 509.999023438 l 2
 344.66796875 509.999023438 346.000976562 509.83203125 348.000976562 509.499023438 c 0
 350.000976562 509.166015625 351.66796875 508.999023438 353.000976562 508.999023438 c 0
 354.333984375 508.999023438 356.000976562 509.166015625 358.000976562 509.499023438 c 2
 361.000976562 509.999023438 l 1
 366.333984375 530.666015625 373.666992188 550.999023438 383 570.999023438 c 0
 392.333007812 590.999023438 402 610.33203125 412 628.999023438 c 0
 412 630.33203125 411 631.999023438 409 633.999023438 c 0
 407 635.999023438 405.333007812 636.999023438 404 636.999023438 c 2
 353 653.999023438 l 2
 349.666992188 655.33203125 344 656.999023438 336 658.999023438 c 0
 328 660.999023438 319.833007812 662.83203125 311.5 664.499023438 c 2
 289 668.999023438 l 2
 282.333007812 670.33203125 278 670.999023438 276 670.999023438 c 0
 272 671.666015625 265 672.499023438 255 673.499023438 c 0
 245 674.499023438 234.333007812 675.499023438 223 676.499023438 c 0
 211.666992188 677.499023438 201 678.33203125 191 678.999023438 c 0
 181 679.666015625 174 679.999023438 170 679.999023438 c 1
 170 721.999023438 l 1
 157 721.999023438 l 1
 115 670.999023438 l 2
 109 663.666015625 101.333007812 657.499023438 92 652.499023438 c 0
 82.6669921875 647.499023438 73.333984375 642.666015625 64.0009765625 637.999023438 c 0
 54.66796875 633.33203125 46.0009765625 628.33203125 38.0009765625 622.999023438 c 0
 30.0009765625 617.666015625 24.333984375 610.999023438 21.0009765625 602.999023438 c 0
 19.66796875 601.666015625 19.0009765625 599.333007812 19.0009765625 596 c 2
 19.0009765625 591 l 1
 72.0009765625 591 l 1
 72.0009765625 578 l 2
 70.66796875 567.333007812 68.66796875 553.5 66.0009765625 536.5 c 0
 63.333984375 519.5 60.6669921875 503 58 487 c 0
 55.3330078125 471 52.8330078125 457.166992188 50.5 445.5 c 2
 47 428 l 1
EndSplineSet
EndChar

StartChar: G
Encoding: 71 71 41
Width: 451
GlyphClass: 2
Flags: W
LayerCount: 2
Fore
SplineSet
317 21 m 1
 318.333007812 15.6669921875 320.169921875 8.1650390625 322.502929688 -1.501953125 c 0
 324.8359375 -11.1689453125 328.668945312 -17.6689453125 334.001953125 -21.001953125 c 1
 343.334960938 -11.6689453125 354.16796875 0.1640625 366.500976562 14.4970703125 c 0
 378.833984375 28.830078125 390.333984375 44.1630859375 401.000976562 60.49609375 c 0
 411.66796875 76.8291015625 420.66796875 93.3291015625 428.000976562 109.99609375 c 0
 435.333984375 126.663085938 439.000976562 142.330078125 439.000976562 156.997070312 c 1
 412.000976562 156.997070312 l 1
 420.000976562 261.997070312 l 1
 420.000976562 286.997070312 l 2
 420.000976562 295.6640625 419.66796875 304.6640625 419.000976562 313.997070312 c 0
 418.333984375 323.330078125 417.000976562 332.330078125 415.000976562 340.997070312 c 0
 413.000976562 349.6640625 410.333984375 357.331054688 407.000976562 363.998046875 c 0
 403.66796875 370.665039062 399.334960938 375.33203125 394.001953125 377.999023438 c 1
 370.668945312 365.999023438 346.168945312 356.33203125 320.501953125 348.999023438 c 0
 294.834960938 341.666015625 268.001953125 336.333007812 240.001953125 333 c 1
 247.334960938 319.666992188 255.001953125 305.333984375 263.001953125 290.000976562 c 0
 271.001953125 274.66796875 278.168945312 258.834960938 284.501953125 242.501953125 c 0
 290.834960938 226.168945312 296.16796875 209.501953125 300.500976562 192.501953125 c 0
 304.833984375 175.501953125 307.000976562 159.001953125 307.000976562 143.001953125 c 1
 277.000976562 143.001953125 251.333984375 150.001953125 230.000976562 164.001953125 c 0
 208.66796875 178.001953125 191.16796875 196.334960938 177.500976562 219.001953125 c 0
 163.833984375 241.668945312 153.666992188 267.668945312 147 297.001953125 c 0
 140.333007812 326.334960938 137 356.001953125 137 386.001953125 c 0
 137 394.668945312 138.333007812 410.168945312 141 432.501953125 c 0
 143.666992188 454.834960938 147.666992188 477.501953125 153 500.501953125 c 0
 158.333007812 523.501953125 164.833007812 544.334960938 172.5 563.001953125 c 0
 180.166992188 581.668945312 188.666992188 592.001953125 198 594.001953125 c 0
 198.666992188 594.668945312 201 595.001953125 205 595.001953125 c 0
 215.666992188 595.001953125 227.5 589.501953125 240.5 578.501953125 c 0
 253.5 567.501953125 266 555.001953125 278 541.001953125 c 0
 290 527.001953125 301 513.168945312 311 499.501953125 c 0
 321 485.834960938 328.666992188 476.334960938 334 471.001953125 c 1
 342 471.001953125 l 1
 352.666992188 491.001953125 365 511.501953125 379 532.501953125 c 0
 393 553.501953125 406.666992188 572.668945312 420 590.001953125 c 1
 413.333007812 599.334960938 405.5 606.66796875 396.5 612.000976562 c 0
 387.5 617.333984375 378.333007812 622.000976562 369 626.000976562 c 0
 365 628.000976562 358.166992188 630.833984375 348.5 634.500976562 c 0
 338.833007812 638.16796875 328.5 641.834960938 317.5 645.501953125 c 0
 306.5 649.168945312 296.166992188 652.668945312 286.5 656.001953125 c 0
 276.833007812 659.334960938 270 661.66796875 266 663.000976562 c 1
 266 671.000976562 l 2
 266.666992188 673.000976562 267.833984375 677.66796875 269.500976562 685.000976562 c 0
 271.16796875 692.333984375 272.66796875 697.000976562 274.000976562 699.000976562 c 1
 248.000976562 705.000976562 l 2
 240.66796875 707.000976562 234.000976562 708.000976562 228.000976562 708.000976562 c 0
 214.66796875 708.000976562 201.16796875 705.833984375 187.500976562 701.500976562 c 0
 173.833984375 697.16796875 160.166992188 691.66796875 146.5 685.000976562 c 0
 132.833007812 678.333984375 119.5 671.333984375 106.5 664.000976562 c 0
 93.5 656.66796875 81 650.000976562 69 644.000976562 c 2
 18 617.000976562 l 1
 18 608.000976562 l 1
 32 606.000976562 46.3330078125 603.66796875 61 601.000976562 c 0
 75.6669921875 598.333984375 89.6669921875 594.666992188 103 590 c 1
 72.3330078125 546 50.5 500.333007812 37.5 453 c 0
 24.5 405.666992188 18 355 18 301 c 0
 18 205.666992188 37.5 134.666992188 76.5 88 c 0
 115.5 41.3330078125 177.333007812 18 262 18 c 0
 278.666992188 18 297 19 317 21 c 1
EndSplineSet
EndChar

StartChar: H
Encoding: 72 72 42
Width: 478
GlyphClass: 2
Flags: W
LayerCount: 2
Fore
SplineSet
31 299 m 0
 31 273 31.3388671875 248.5 32.005859375 225.5 c 0
 32.6728515625 202.5 34.005859375 179.833007812 36.005859375 157.5 c 0
 38.005859375 135.166992188 40.6728515625 112.833984375 44.005859375 90.5009765625 c 0
 47.3388671875 68.16796875 51.671875 44.66796875 57.0048828125 20.0009765625 c 0
 57.0048828125 18.66796875 57.171875 17.8349609375 57.5048828125 17.501953125 c 0
 57.837890625 17.1689453125 58.0048828125 16.6689453125 58.0048828125 16.001953125 c 2
 60.0048828125 9.001953125 l 2
 61.337890625 4.3349609375 62.5048828125 1.501953125 63.5048828125 0.501953125 c 0
 64.5048828125 -0.498046875 67.671875 -0.998046875 73.0048828125 -0.998046875 c 0
 74.337890625 -0.998046875 76.1708984375 -0.8310546875 78.50390625 -0.498046875 c 0
 80.8369140625 -0.1650390625 82.3369140625 0.001953125 83.00390625 0.001953125 c 0
 87.00390625 0.6689453125 94.1708984375 2.1689453125 104.50390625 4.501953125 c 0
 114.836914062 6.8349609375 126.00390625 9.501953125 138.00390625 12.501953125 c 0
 150.00390625 15.501953125 161.50390625 18.501953125 172.50390625 21.501953125 c 0
 183.50390625 24.501953125 192.00390625 27.001953125 198.00390625 29.001953125 c 0
 199.336914062 29.001953125 200.336914062 29.1689453125 201.00390625 29.501953125 c 2
 202.00390625 30.001953125 l 1
 203.00390625 50.001953125 l 2
 203.00390625 53.3349609375 203.170898438 56.3349609375 203.50390625 59.001953125 c 0
 203.836914062 61.6689453125 204.00390625 63.6689453125 204.00390625 65.001953125 c 0
 204.00390625 68.3349609375 203.670898438 70.8349609375 203.00390625 72.501953125 c 0
 202.336914062 74.1689453125 201.50390625 76.1689453125 200.50390625 78.501953125 c 0
 199.50390625 80.8349609375 198.50390625 84.3349609375 197.50390625 89.001953125 c 0
 196.50390625 93.6689453125 195.336914062 100.668945312 194.00390625 110.001953125 c 0
 192.670898438 116.001953125 190.670898438 126.501953125 188.00390625 141.501953125 c 0
 185.336914062 156.501953125 182.669921875 172.501953125 180.002929688 189.501953125 c 0
 177.3359375 206.501953125 174.8359375 222.501953125 172.502929688 237.501953125 c 0
 170.169921875 252.501953125 168.669921875 263.001953125 168.002929688 269.001953125 c 1
 177.002929688 269.001953125 l 2
 185.669921875 269.001953125 196.502929688 268.168945312 209.502929688 266.501953125 c 0
 222.502929688 264.834960938 235.669921875 262.16796875 249.002929688 258.500976562 c 0
 262.3359375 254.833984375 274.668945312 249.833984375 286.001953125 243.500976562 c 0
 297.334960938 237.16796875 305.66796875 229.334960938 311.000976562 220.001953125 c 1
 311.000976562 175.001953125 l 2
 311.000976562 159.668945312 310.66796875 146.168945312 310.000976562 134.501953125 c 0
 309.333984375 122.834960938 308.166992188 111.334960938 306.5 100.001953125 c 0
 304.833007812 88.6689453125 302.666015625 76.8359375 299.999023438 64.5029296875 c 0
 297.33203125 52.169921875 294.33203125 38.0029296875 290.999023438 22.0029296875 c 2
 287.999023438 10.0029296875 l 1
 292.999023438 9.0029296875 l 2
 305.666015625 9.0029296875 316.333007812 13.5029296875 325 22.5029296875 c 0
 333.666992188 31.5029296875 341.333984375 43.0029296875 348.000976562 57.0029296875 c 0
 354.66796875 71.0029296875 361.000976562 85.8359375 367.000976562 101.502929688 c 0
 373.000976562 117.169921875 380.16796875 132.002929688 388.500976562 146.002929688 c 0
 396.833984375 160.002929688 406.500976562 171.502929688 417.500976562 180.502929688 c 0
 428.500976562 189.502929688 442.66796875 194.002929688 460.000976562 194.002929688 c 1
 452.000976562 299.002929688 l 1
 468.000976562 370.002929688 l 2
 468.66796875 370.669921875 469.000976562 373.336914062 469.000976562 378.00390625 c 2
 469.000976562 384.00390625 l 1
 434.000976562 384.00390625 l 1
 434.66796875 390.00390625 435.500976562 400.836914062 436.500976562 416.50390625 c 0
 437.500976562 432.170898438 438.500976562 448.670898438 439.500976562 466.00390625 c 0
 440.500976562 483.336914062 441.333984375 500.00390625 442.000976562 516.00390625 c 0
 442.66796875 532.00390625 443.000976562 543.00390625 443.000976562 549.00390625 c 2
 443.000976562 575.00390625 l 2
 443.000976562 586.336914062 442.833984375 596.50390625 442.500976562 605.50390625 c 2
 441.500976562 632.50390625 l 2
 441.16796875 641.50390625 440.334960938 651.170898438 439.001953125 661.50390625 c 0
 437.668945312 671.836914062 436.001953125 684.336914062 434.001953125 699.00390625 c 1
 426.001953125 699.00390625 l 2
 420.001953125 699.00390625 409.168945312 698.50390625 393.501953125 697.50390625 c 0
 377.834960938 696.50390625 361.66796875 694.50390625 345.000976562 691.50390625 c 0
 328.333984375 688.50390625 313.666992188 684.50390625 301 679.50390625 c 0
 288.333007812 674.50390625 282 668.00390625 282 660.00390625 c 2
 283 649.00390625 l 2
 283 645.00390625 284 638.336914062 286 629.00390625 c 0
 288 619.670898438 289.666992188 613.00390625 291 609.00390625 c 0
 296.333007812 585.00390625 301.5 562.170898438 306.5 540.50390625 c 0
 311.5 518.836914062 314 497.336914062 314 476.00390625 c 0
 314 462.670898438 313.666992188 449.670898438 313 437.00390625 c 0
 312.333007812 424.336914062 311.333007812 411.669921875 310 399.002929688 c 1
 161 399.002929688 l 1
 125 719.002929688 l 1
 117 719.002929688 l 1
 113.5 712.002929688 l 2
 111.166992188 707.3359375 108.666992188 701.8359375 106 695.502929688 c 0
 103.333007812 689.169921875 100.666015625 682.669921875 97.9990234375 676.002929688 c 0
 95.33203125 669.3359375 93.33203125 663.668945312 91.9990234375 659.001953125 c 0
 85.33203125 639.001953125 80.1650390625 616.168945312 76.498046875 590.501953125 c 0
 72.8310546875 564.834960938 69.3310546875 539.001953125 65.998046875 513.001953125 c 0
 62.6650390625 487.001953125 59.1650390625 462.168945312 55.498046875 438.501953125 c 0
 51.8310546875 414.834960938 46.6640625 395.001953125 39.9970703125 379.001953125 c 0
 39.330078125 377.668945312 37.330078125 375.001953125 33.9970703125 371.001953125 c 0
 30.6640625 367.001953125 26.8310546875 362.668945312 22.498046875 358.001953125 c 0
 18.1650390625 353.334960938 14.33203125 349.16796875 10.9990234375 345.500976562 c 0
 7.666015625 341.833984375 5.666015625 339.666992188 4.9990234375 339 c 2
 4.4990234375 337.5 l 2
 4.166015625 336.5 3.9990234375 335.666992188 3.9990234375 335 c 0
 3.9990234375 333.666992188 4.166015625 332.5 4.4990234375 331.5 c 2
 4.9990234375 330 l 2
 5.666015625 328.666992188 7.166015625 326.5 9.4990234375 323.5 c 0
 11.83203125 320.5 14.33203125 317.333007812 16.9990234375 314 c 0
 19.666015625 310.666992188 22.3330078125 307.5 25 304.5 c 0
 27.6669921875 301.5 29.6669921875 299.666992188 31 299 c 0
EndSplineSet
EndChar

StartChar: I
Encoding: 73 73 43
Width: 193
GlyphClass: 2
Flags: W
LayerCount: 2
Fore
SplineSet
18 211 m 2
 18.001953125 138.998046875 l 2
 18.001953125 127.665039062 19.3349609375 115.998046875 22.001953125 103.998046875 c 0
 24.6689453125 91.998046875 27.6689453125 75.998046875 31.001953125 55.998046875 c 2
 32.501953125 46.998046875 l 2
 33.501953125 40.998046875 34.8349609375 34.498046875 36.501953125 27.498046875 c 0
 38.1689453125 20.498046875 40.1689453125 14.1650390625 42.501953125 8.498046875 c 0
 44.8349609375 2.8310546875 47.66796875 -0.001953125 51.0009765625 -0.001953125 c 2
 56.0009765625 -0.001953125 l 1
 178.000976562 36.998046875 l 1
 179.000976562 55.998046875 l 2
 176.333984375 73.998046875 172.666992188 97.498046875 168 126.498046875 c 0
 163.333007812 155.498046875 158.833007812 185.831054688 154.5 217.498046875 c 0
 150.166992188 249.165039062 146.166992188 279.83203125 142.5 309.499023438 c 0
 138.833007812 339.166015625 136.666015625 363.999023438 135.999023438 383.999023438 c 2
 134.999023438 390.999023438 l 1
 134.999023438 432.999023438 l 2
 134.999023438 470.999023438 135.999023438 507.83203125 137.999023438 543.499023438 c 0
 139.999023438 579.166015625 142.33203125 614.999023438 144.999023438 650.999023438 c 1
 143.999023438 660.999023438 l 1
 143.999023438 701.999023438 l 1
 125.33203125 685.999023438 109.33203125 666.166015625 95.9990234375 642.499023438 c 0
 82.666015625 618.83203125 71.3330078125 592.83203125 62 564.499023438 c 0
 52.6669921875 536.166015625 45 506.333007812 39 475 c 0
 33 443.666992188 28.5 412.5 25.5 381.5 c 0
 22.5 350.5 20.5 320.333007812 19.5 291 c 0
 18.5 261.666992188 18 235 18 211 c 2
EndSplineSet
EndChar

StartChar: J
Encoding: 74 74 44
Width: 453
GlyphClass: 2
Flags: W
LayerCount: 2
Fore
SplineSet
9 80 m 0
 9 77.3330078125 10.66015625 73.3369140625 13.9931640625 68.00390625 c 2
 13.9931640625 65.00390625 l 2
 13.9931640625 58.3369140625 19.326171875 52.00390625 29.9931640625 46.00390625 c 0
 40.66015625 40.00390625 54.66015625 34.3369140625 71.9931640625 29.00390625 c 1
 75.9931640625 26.00390625 l 2
 77.9931640625 24.6708984375 81.826171875 23.00390625 87.4931640625 21.00390625 c 0
 93.16015625 19.00390625 97.66015625 18.00390625 100.993164062 18.00390625 c 0
 102.993164062 16.00390625 105.493164062 14.6708984375 108.493164062 14.00390625 c 0
 111.493164062 13.3369140625 114.66015625 12.3369140625 117.993164062 11.00390625 c 0
 126.66015625 9.00390625 131.827148438 7.6708984375 133.494140625 7.00390625 c 0
 135.161132812 6.3369140625 138.328125 5.669921875 142.995117188 5.0029296875 c 0
 170.995117188 3.669921875 191.162109375 2.5029296875 203.495117188 1.5029296875 c 0
 215.828125 0.5029296875 224.661132812 0.0029296875 229.994140625 0.0029296875 c 2
 258.994140625 -0.9970703125 l 2
 263.661132812 -0.9970703125 271.328125 -0.4970703125 281.995117188 0.5029296875 c 0
 292.662109375 1.5029296875 304.829101562 2.8359375 318.49609375 4.5029296875 c 0
 332.163085938 6.169921875 346.163085938 8.5029296875 360.49609375 11.5029296875 c 0
 374.829101562 14.5029296875 388.162109375 18.0029296875 400.495117188 22.0029296875 c 0
 412.828125 26.0029296875 422.828125 30.669921875 430.495117188 36.0029296875 c 0
 438.162109375 41.3359375 441.995117188 47.3359375 441.995117188 54.0029296875 c 2
 441.995117188 61.0029296875 l 1
 440.662109375 61.0029296875 438.995117188 61.169921875 436.995117188 61.5029296875 c 2
 433.995117188 62.0029296875 l 1
 378.995117188 80.0029296875 l 1
 378.995117188 89.0029296875 l 1
 386.995117188 116.002929688 l 2
 390.328125 126.669921875 394.161132812 140.836914062 398.494140625 158.50390625 c 0
 402.827148438 176.170898438 406.827148438 193.50390625 410.494140625 210.50390625 c 0
 414.161132812 227.50390625 417.328125 242.170898438 419.995117188 254.50390625 c 0
 422.662109375 266.836914062 423.995117188 273.669921875 423.995117188 275.002929688 c 2
 423.995117188 572.002929688 l 2
 423.995117188 574.669921875 423.495117188 579.669921875 422.495117188 587.002929688 c 0
 421.495117188 594.3359375 419.828125 602.002929688 417.495117188 610.002929688 c 0
 415.162109375 618.002929688 412.495117188 625.169921875 409.495117188 631.502929688 c 0
 406.495117188 637.8359375 402.995117188 641.668945312 398.995117188 643.001953125 c 0
 370.995117188 651.668945312 342.495117188 661.168945312 313.495117188 671.501953125 c 0
 284.495117188 681.834960938 255.995117188 693.001953125 227.995117188 705.001953125 c 1
 227.995117188 697.001953125 l 1
 235.995117188 666.001953125 l 2
 244.662109375 635.334960938 252.829101562 605.334960938 260.49609375 576.001953125 c 0
 268.163085938 546.668945312 274.99609375 517.168945312 280.99609375 487.501953125 c 0
 286.99609375 457.834960938 291.663085938 427.66796875 294.99609375 397.000976562 c 0
 298.329101562 366.333984375 299.99609375 334.666992188 299.99609375 302 c 0
 299.99609375 294 299.829101562 279.5 299.49609375 258.5 c 0
 299.163085938 237.5 298.330078125 215.666992188 296.997070312 193 c 0
 295.6640625 170.333007812 293.1640625 150.333007812 289.497070312 133 c 0
 285.830078125 115.666992188 280.997070312 107 274.997070312 107 c 2
 249.997070312 107 l 2
 245.330078125 107 242.663085938 107.333007812 241.99609375 108 c 0
 220.663085938 120 199.330078125 134 177.997070312 150 c 0
 156.6640625 166 139.331054688 182.666992188 125.998046875 200 c 0
 118.665039062 210 110.83203125 222.5 102.499023438 237.5 c 0
 94.166015625 252.5 85.3330078125 263.666992188 76 271 c 1
 73 271 l 1
 65 262.333007812 57.1669921875 250.166015625 49.5 234.499023438 c 0
 41.8330078125 218.83203125 35 201.83203125 29 183.499023438 c 0
 23 165.166015625 18.1669921875 146.833007812 14.5 128.5 c 0
 10.8330078125 110.166992188 9 94 9 80 c 0
EndSplineSet
EndChar

StartChar: K
Encoding: 75 75 45
Width: 480
GlyphClass: 2
Flags: W
LayerCount: 2
Fore
SplineSet
48 296 m 2
 47.994140625 117 l 2
 51.3271484375 77 54.994140625 48.6669921875 58.994140625 32 c 0
 62.994140625 15.3330078125 64.994140625 7.3330078125 64.994140625 8 c 1
 75.994140625 5 l 1
 225.994140625 44 l 1
 235.994140625 51 l 1
 232.661132812 58.3330078125 228.328125 68.666015625 222.995117188 81.9990234375 c 0
 217.662109375 95.33203125 212.495117188 109.499023438 207.495117188 124.499023438 c 0
 202.495117188 139.499023438 198.162109375 154.33203125 194.495117188 168.999023438 c 0
 190.828125 183.666015625 188.995117188 195.999023438 188.995117188 205.999023438 c 2
 188.995117188 209.999023438 l 2
 188.995117188 217.33203125 190.662109375 220.999023438 193.995117188 220.999023438 c 0
 197.328125 220.999023438 200.995117188 216.666015625 204.995117188 207.999023438 c 2
 220.995117188 184.999023438 l 2
 242.328125 155.666015625 265.328125 125.833007812 289.995117188 95.5 c 0
 314.662109375 65.1669921875 341.662109375 41 370.995117188 23 c 1
 380.995117188 27.6669921875 391.495117188 35 402.495117188 45 c 0
 413.495117188 55 423.828125 66.1669921875 433.495117188 78.5 c 0
 443.162109375 90.8330078125 451.329101562 103.333007812 457.99609375 116 c 0
 464.663085938 128.666992188 468.99609375 140 470.99609375 150 c 2
 471.99609375 156 l 2
 471.99609375 159.333007812 471.49609375 162 470.49609375 164 c 0
 469.49609375 166 467.329101562 168.666992188 463.99609375 172 c 0
 423.99609375 188.666992188 386.99609375 207 352.99609375 227 c 0
 318.99609375 247 283.99609375 269 247.99609375 293 c 1
 245.99609375 295 l 2
 240.663085938 299 234.163085938 303.833007812 226.49609375 309.5 c 0
 218.829101562 315.166992188 211.49609375 320.666992188 204.49609375 326 c 0
 197.49609375 331.333007812 191.49609375 335.833007812 186.49609375 339.5 c 0
 181.49609375 343.166992188 178.99609375 345.333984375 178.99609375 346.000976562 c 2
 180.99609375 356.000976562 l 1
 185.663085938 358.000976562 193.663085938 362.333984375 204.99609375 369.000976562 c 0
 216.329101562 375.66796875 228.329101562 383.000976562 240.99609375 391.000976562 c 0
 253.663085938 399.000976562 265.330078125 406.66796875 275.997070312 414.000976562 c 0
 286.6640625 421.333984375 293.997070312 426.666992188 297.997070312 430 c 0
 307.997070312 435.333007812 319.330078125 443.5 331.997070312 454.5 c 0
 344.6640625 465.5 356.997070312 477.5 368.997070312 490.5 c 0
 380.997070312 503.5 391.6640625 516.833007812 400.997070312 530.5 c 0
 410.330078125 544.166992188 416.663085938 556.333984375 419.99609375 567.000976562 c 2
 421.99609375 581.000976562 l 1
 416.663085938 589.66796875 409.99609375 600.334960938 401.99609375 613.001953125 c 0
 393.99609375 625.668945312 384.99609375 638.168945312 374.99609375 650.501953125 c 0
 364.99609375 662.834960938 354.49609375 673.66796875 343.49609375 683.000976562 c 0
 332.49609375 692.333984375 321.663085938 698.000976562 310.99609375 700.000976562 c 2
 305.99609375 700.000976562 l 2
 304.663085938 700.000976562 302.663085938 699.16796875 299.99609375 697.500976562 c 0
 297.329101562 695.833984375 295.329101562 694.333984375 293.99609375 693.000976562 c 0
 290.663085938 676.333984375 285.830078125 655.666992188 279.497070312 631 c 0
 273.1640625 606.333007812 264.6640625 581.833007812 253.997070312 557.5 c 0
 243.330078125 533.166992188 230.830078125 511 216.497070312 491 c 0
 202.1640625 471 185.331054688 457.333007812 165.998046875 450 c 1
 157.998046875 462 l 1
 155.498046875 470 l 2
 153.831054688 475.333007812 152.1640625 481.666015625 150.497070312 488.999023438 c 0
 148.830078125 496.33203125 147.163085938 504.33203125 145.49609375 512.999023438 c 0
 143.829101562 521.666015625 142.99609375 529.333007812 142.99609375 536 c 2
 143.99609375 554 l 2
 144.663085938 562 146.830078125 574.333007812 150.497070312 591 c 0
 154.1640625 607.666992188 158.331054688 625.166992188 162.998046875 643.5 c 0
 167.665039062 661.833007812 171.83203125 679.166015625 175.499023438 695.499023438 c 0
 179.166015625 711.83203125 181.333007812 723.33203125 182 729.999023438 c 1
 157 717.999023438 l 2
 155.666992188 716.666015625 151.666992188 709.999023438 145 697.999023438 c 0
 138.333007812 685.999023438 131 672.166015625 123 656.499023438 c 0
 115 640.83203125 107.5 624.999023438 100.5 608.999023438 c 0
 93.5 592.999023438 89 580.33203125 87 570.999023438 c 0
 85.6669921875 567.666015625 83.833984375 562.333007812 81.5009765625 555 c 0
 79.16796875 547.666992188 76.8349609375 539 74.501953125 529 c 0
 72.1689453125 519 69.6689453125 508.333007812 67.001953125 497 c 0
 64.3349609375 485.666992188 62.001953125 474.666992188 60.001953125 464 c 0
 58.6689453125 456.666992188 57.6689453125 450 57.001953125 444 c 0
 56.3349609375 438 55.66796875 432.333007812 55.0009765625 427 c 2
 55.0009765625 422 l 2
 55.0009765625 413.333007812 55.16796875 406.333007812 55.5009765625 401 c 0
 55.833984375 395.666992188 56.0009765625 390.666992188 56.0009765625 386 c 2
 56.0009765625 382 l 1
 44.66796875 366.666992188 31.66796875 353.166992188 17.0009765625 341.5 c 0
 2.333984375 329.833007812 -13.3330078125 319.666015625 -30 310.999023438 c 1
 -2 304.999023438 l 1
 40 304.999023438 l 2
 41.3330078125 304.999023438 43 303.83203125 45 301.499023438 c 0
 47 299.166015625 48 297.333007812 48 296 c 2
EndSplineSet
EndChar

StartChar: L
Encoding: 76 76 46
Width: 434
GlyphClass: 2
Flags: W
LayerCount: 2
Fore
SplineSet
152 19 m 1
 181.001953125 -30.0068359375 l 1
 181.001953125 29.9931640625 l 2
 181.001953125 31.326171875 182.001953125 31.9931640625 184.001953125 31.9931640625 c 2
 188.001953125 31.9931640625 l 1
 218.001953125 27.326171875 246.001953125 21.9931640625 272.001953125 15.9931640625 c 0
 298.001953125 9.9931640625 325.334960938 1.326171875 354.001953125 -10.0068359375 c 1
 355.001953125 -10.0068359375 l 2
 355.668945312 -10.0068359375 356.668945312 -7.83984375 358.001953125 -3.5068359375 c 0
 359.334960938 0.826171875 360.66796875 5.9931640625 362.000976562 11.9931640625 c 0
 363.333984375 17.9931640625 364.833984375 23.9931640625 366.500976562 29.9931640625 c 0
 368.16796875 35.9931640625 369.66796875 40.66015625 371.000976562 43.9931640625 c 0
 384.333984375 82.66015625 401.333984375 118.993164062 422.000976562 152.993164062 c 1
 422.000976562 154.993164062 l 1
 348.000976562 160.993164062 l 2
 334.000976562 160.993164062 319.000976562 160.326171875 303.000976562 158.993164062 c 0
 287.000976562 157.66015625 271.333984375 154.327148438 256.000976562 148.994140625 c 0
 253.333984375 148.327148438 248.333984375 146.994140625 241.000976562 144.994140625 c 0
 233.66796875 142.994140625 226.000976562 140.827148438 218.000976562 138.494140625 c 0
 210.000976562 136.161132812 202.500976562 133.994140625 195.500976562 131.994140625 c 0
 188.500976562 129.994140625 183.66796875 128.661132812 181.000976562 127.994140625 c 0
 177.66796875 127.994140625 175.834960938 129.161132812 175.501953125 131.494140625 c 0
 175.168945312 133.827148438 174.3359375 136.66015625 173.002929688 139.993164062 c 0
 173.002929688 141.993164062 172.669921875 145.326171875 172.002929688 149.993164062 c 0
 171.3359375 154.66015625 170.668945312 159.493164062 170.001953125 164.493164062 c 0
 169.334960938 169.493164062 168.66796875 173.826171875 168.000976562 177.493164062 c 0
 167.333984375 181.16015625 167.000976562 183.66015625 167.000976562 184.993164062 c 2
 167.000976562 224.993164062 l 2
 167.000976562 297.66015625 174.16796875 366.16015625 188.500976562 430.493164062 c 0
 202.833984375 494.826171875 226.000976562 559.326171875 258.000976562 623.993164062 c 1
 256.000976562 625.993164062 l 2
 252.66796875 627.326171875 247.16796875 629.326171875 239.500976562 631.993164062 c 0
 231.833984375 634.66015625 223.833984375 637.66015625 215.500976562 640.993164062 c 0
 207.16796875 644.326171875 199.16796875 647.493164062 191.500976562 650.493164062 c 0
 183.833984375 653.493164062 178.666992188 655.66015625 176 656.993164062 c 0
 170 658.993164062 161.5 662.326171875 150.5 666.993164062 c 0
 139.5 671.66015625 128.166992188 676.493164062 116.5 681.493164062 c 0
 104.833007812 686.493164062 93.666015625 690.826171875 82.9990234375 694.493164062 c 0
 72.33203125 698.16015625 63.9990234375 699.993164062 57.9990234375 699.993164062 c 0
 54.666015625 699.993164062 52.166015625 697.493164062 50.4990234375 692.493164062 c 0
 48.83203125 687.493164062 47.9990234375 683.326171875 47.9990234375 679.993164062 c 0
 46.666015625 676.66015625 45.3330078125 671.827148438 44 665.494140625 c 0
 42.6669921875 659.161132812 41.1669921875 652.828125 39.5 646.495117188 c 0
 37.8330078125 640.162109375 36.5 634.495117188 35.5 629.495117188 c 0
 34.5 624.495117188 33.6669921875 621.662109375 33 620.995117188 c 2
 28 558.995117188 l 1
 28 505.995117188 l 2
 28 377.995117188 54.6669921875 250.995117188 108 124.995117188 c 1
 109 120.995117188 l 2
 109 115.662109375 105 111.829101562 97 109.49609375 c 0
 89 107.163085938 83.3330078125 104.330078125 80 100.997070312 c 0
 63.3330078125 90.330078125 47.3330078125 78.330078125 32 64.9970703125 c 0
 16.6669921875 51.6640625 3.333984375 36.3310546875 -7.9990234375 18.998046875 c 1
 -7.9990234375 15.998046875 l 1
 15.333984375 25.998046875 39.1669921875 32.1650390625 63.5 34.498046875 c 0
 87.8330078125 36.8310546875 112.666015625 37.998046875 137.999023438 37.998046875 c 2
 141.999023438 37.998046875 l 2
 143.33203125 36.6650390625 144.83203125 33.83203125 146.499023438 29.4990234375 c 0
 148.166015625 25.166015625 149.333007812 22.666015625 150 21.9990234375 c 0
 150 20.666015625 150.333007812 19.8330078125 151 19.5 c 2
 152 19 l 1
EndSplineSet
EndChar

StartChar: M
Encoding: 77 77 47
Width: 549
GlyphClass: 2
Flags: W
LayerCount: 2
Fore
SplineSet
515 139 m 1
 515.000976562 155.999023438 l 2
 515.000976562 185.33203125 513.833984375 214.33203125 511.500976562 242.999023438 c 0
 509.16796875 271.666015625 506.66796875 300.166015625 504.000976562 328.499023438 c 0
 501.333984375 356.83203125 498.833984375 385.33203125 496.500976562 413.999023438 c 0
 494.16796875 442.666015625 493.000976562 471.666015625 493.000976562 500.999023438 c 0
 493.000976562 511.666015625 495.16796875 521.333007812 499.500976562 530 c 0
 503.833984375 538.666992188 508.833984375 547.166992188 514.500976562 555.5 c 0
 520.16796875 563.833007812 525.16796875 572 529.500976562 580 c 0
 533.833984375 588 536.000976562 596.666992188 536.000976562 606 c 0
 536.000976562 607.333007812 531.16796875 611.833007812 521.500976562 619.5 c 0
 511.833984375 627.166992188 500.666992188 635.666992188 488 645 c 0
 475.333007812 654.333007812 463 663.333007812 451 672 c 0
 439 680.666992188 430.666992188 687 426 691 c 0
 424 692.333007812 420.833007812 694.166015625 416.5 696.499023438 c 0
 412.166992188 698.83203125 409.666992188 699.999023438 409 699.999023438 c 0
 403.666992188 698.666015625 397.166992188 690.333007812 389.5 675 c 0
 381.833007812 659.666992188 373.5 640.666992188 364.5 618 c 0
 355.5 595.333007812 346.166992188 570.333007812 336.5 543 c 0
 326.833007812 515.666992188 317.833007812 489 309.5 463 c 0
 301.166992188 437 293.833984375 413.333007812 287.500976562 392 c 0
 281.16796875 370.666992188 276.66796875 355 274.000976562 345 c 1
 272.000976562 345 l 1
 269.333984375 355 264.833984375 370.5 258.500976562 391.5 c 0
 252.16796875 412.5 244.834960938 435.833007812 236.501953125 461.5 c 0
 228.168945312 487.166992188 219.168945312 513.833984375 209.501953125 541.500976562 c 0
 199.834960938 569.16796875 190.501953125 594.500976562 181.501953125 617.500976562 c 0
 172.501953125 640.500976562 164.001953125 659.66796875 156.001953125 675.000976562 c 0
 148.001953125 690.333984375 141.668945312 698.666992188 137.001953125 700 c 0
 136.334960938 700 133.834960938 698.833007812 129.501953125 696.5 c 0
 125.168945312 694.166992188 122.001953125 692.333984375 120.001953125 691.000976562 c 0
 114.668945312 687.000976562 106.001953125 680.66796875 94.001953125 672.000976562 c 0
 82.001953125 663.333984375 69.6689453125 654.333984375 57.001953125 645.000976562 c 0
 44.3349609375 635.66796875 33.16796875 627.16796875 23.5009765625 619.500976562 c 0
 13.833984375 611.833984375 9.0009765625 607.333984375 9.0009765625 606.000976562 c 0
 9.0009765625 596.66796875 11.333984375 588.000976562 16.0009765625 580.000976562 c 0
 20.66796875 572.000976562 25.66796875 563.833984375 31.0009765625 555.500976562 c 0
 36.333984375 547.16796875 41.333984375 538.66796875 46.0009765625 530.000976562 c 0
 50.66796875 521.333984375 53.0009765625 511.666992188 53.0009765625 501 c 0
 53.0009765625 442.333007812 49.5009765625 384.833007812 42.5009765625 328.5 c 0
 35.5009765625 272.166992188 32.0009765625 214.666992188 32.0009765625 156 c 2
 35.0009765625 93 l 2
 35.0009765625 87.6669921875 35.333984375 80.333984375 36.0009765625 71.0009765625 c 0
 36.66796875 61.66796875 37.5009765625 52.5009765625 38.5009765625 43.5009765625 c 0
 39.5009765625 34.5009765625 40.5009765625 26.66796875 41.5009765625 20.0009765625 c 0
 42.5009765625 13.333984375 43.0009765625 9.6669921875 43.0009765625 9 c 2
 52.0009765625 -0 l 1
 70.0009765625 7.3330078125 87.833984375 13.666015625 105.500976562 18.9990234375 c 0
 123.16796875 24.33203125 141.334960938 29.6650390625 160.001953125 34.998046875 c 2
 169.001953125 36.998046875 l 1
 170.001953125 55.998046875 l 2
 170.001953125 75.3310546875 168.668945312 94.6640625 166.001953125 113.997070312 c 0
 163.334960938 133.330078125 160.16796875 152.830078125 156.500976562 172.497070312 c 0
 152.833984375 192.1640625 149.666992188 211.6640625 147 230.997070312 c 0
 144.333007812 250.330078125 143 269.663085938 143 288.99609375 c 2
 145 351.99609375 l 1
 155 345.329101562 164.5 332.49609375 173.5 313.49609375 c 0
 182.5 294.49609375 191.333007812 272.329101562 200 246.99609375 c 0
 208.666992188 221.663085938 217 194.99609375 225 166.99609375 c 0
 233 138.99609375 240.666992188 112.99609375 248 88.99609375 c 0
 255.333007812 64.99609375 262.333007812 44.8291015625 269 28.49609375 c 0
 275.666992188 12.1630859375 282.333984375 2.6630859375 289.000976562 -0.00390625 c 1
 292.333984375 34.6630859375 297.166992188 67.1630859375 303.5 97.49609375 c 0
 309.833007812 127.829101562 316.666015625 157.99609375 323.999023438 187.99609375 c 2
 327.999023438 206.99609375 l 2
 333.33203125 219.663085938 338.83203125 233.830078125 344.499023438 249.497070312 c 0
 350.166015625 265.1640625 355.833007812 280.1640625 361.5 294.497070312 c 0
 367.166992188 308.830078125 373.333984375 321.830078125 380.000976562 333.497070312 c 0
 386.66796875 345.1640625 393.66796875 353.331054688 401.000976562 357.998046875 c 1
 403.000976562 304.998046875 l 2
 403.000976562 285.665039062 401.66796875 265.498046875 399.000976562 244.498046875 c 0
 396.333984375 223.498046875 393.166992188 202.165039062 389.5 180.498046875 c 0
 385.833007812 158.831054688 382.666015625 137.498046875 379.999023438 116.498046875 c 0
 377.33203125 95.498046875 375.999023438 75.3310546875 375.999023438 55.998046875 c 2
 376.999023438 36.998046875 l 1
 385.999023438 34.998046875 l 2
 404.666015625 29.6650390625 422.833007812 24.33203125 440.5 18.9990234375 c 0
 458.166992188 13.666015625 476 7.3330078125 494 0 c 1
 502 9 l 2
 502.666992188 9.6669921875 503.5 13.333984375 504.5 20.0009765625 c 0
 505.5 26.66796875 506.5 34.5009765625 507.5 43.5009765625 c 0
 508.5 52.5009765625 509.333007812 61.66796875 510 71.0009765625 c 0
 510.666992188 80.333984375 511 87.6669921875 511 93 c 2
 515 139 l 1
EndSplineSet
EndChar

StartChar: N
Encoding: 78 78 48
Width: 437
GlyphClass: 2
Flags: W
LayerCount: 2
Fore
SplineSet
53 503 m 2
 21.9970703125 156 l 1
 21.9970703125 101 l 1
 22.9970703125 93 l 2
 22.9970703125 87.6669921875 23.330078125 80.333984375 23.9970703125 71.0009765625 c 0
 24.6640625 61.66796875 25.4970703125 52.5009765625 26.4970703125 43.5009765625 c 0
 27.4970703125 34.5009765625 28.4970703125 26.66796875 29.4970703125 20.0009765625 c 0
 30.4970703125 13.333984375 30.9970703125 9.6669921875 30.9970703125 9 c 2
 39.9970703125 0 l 1
 59.330078125 8 78.830078125 14.8330078125 98.4970703125 20.5 c 0
 118.1640625 26.1669921875 137.997070312 31.6669921875 157.997070312 37 c 1
 158.997070312 56 l 1
 132.997070312 291 l 1
 144.997070312 380 l 1
 154.997070312 373.333007812 165.1640625 359.666015625 175.497070312 338.999023438 c 0
 185.830078125 318.33203125 195.997070312 294.33203125 205.997070312 266.999023438 c 0
 215.997070312 239.666015625 225.6640625 210.833007812 234.997070312 180.5 c 0
 244.330078125 150.166992188 253.330078125 122 261.997070312 96 c 0
 270.6640625 70 278.831054688 48.1669921875 286.498046875 30.5 c 0
 294.165039062 12.8330078125 301.33203125 2.666015625 307.999023438 -0.0009765625 c 1
 329.999023438 43.9990234375 347.999023438 89.33203125 361.999023438 135.999023438 c 0
 375.999023438 182.666015625 387.166015625 230.166015625 395.499023438 278.499023438 c 0
 403.83203125 326.83203125 409.499023438 375.999023438 412.499023438 425.999023438 c 0
 415.499023438 475.999023438 416.999023438 525.999023438 416.999023438 575.999023438 c 2
 416.999023438 672.999023438 l 2
 416.999023438 674.33203125 415.83203125 677.33203125 413.499023438 681.999023438 c 0
 411.166015625 686.666015625 409.333007812 689.666015625 408 690.999023438 c 2
 405 690.999023438 l 2
 395.666992188 690.999023438 385.333984375 689.83203125 374.000976562 687.499023438 c 0
 362.66796875 685.166015625 351.334960938 682.499023438 340.001953125 679.499023438 c 0
 328.668945312 676.499023438 317.501953125 673.499023438 306.501953125 670.499023438 c 0
 295.501953125 667.499023438 285.668945312 665.33203125 277.001953125 663.999023438 c 1
 282.334960938 633.33203125 287.66796875 600.999023438 293.000976562 566.999023438 c 0
 298.333984375 532.999023438 301.000976562 499.666015625 301.000976562 466.999023438 c 2
 301.000976562 443.999023438 l 1
 301.000976562 432.999023438 l 2
 301.000976562 426.33203125 300.66796875 422.665039062 300.000976562 421.998046875 c 0
 300.000976562 416.665039062 299.500976562 408.83203125 298.500976562 398.499023438 c 0
 297.500976562 388.166015625 296.500976562 377.499023438 295.500976562 366.499023438 c 0
 294.500976562 355.499023438 293.333984375 345.499023438 292.000976562 336.499023438 c 0
 290.66796875 327.499023438 289.66796875 321.666015625 289.000976562 318.999023438 c 1
 286.333984375 328.33203125 281.500976562 344.33203125 274.500976562 366.999023438 c 0
 267.500976562 389.666015625 259.16796875 414.999023438 249.500976562 442.999023438 c 0
 239.833984375 470.999023438 229.500976562 500.166015625 218.500976562 530.499023438 c 0
 207.500976562 560.83203125 196.833984375 588.499023438 186.500976562 613.499023438 c 0
 176.16796875 638.499023438 166.66796875 659.33203125 158.000976562 675.999023438 c 0
 149.333984375 692.666015625 142.333984375 701.333007812 137.000976562 702 c 0
 136.333984375 702 133.833984375 700.833007812 129.500976562 698.5 c 0
 125.16796875 696.166992188 122.000976562 694.333984375 120.000976562 693.000976562 c 0
 114.66796875 689.000976562 106.000976562 682.66796875 94.0009765625 674.000976562 c 0
 82.0009765625 665.333984375 69.66796875 656.333984375 57.0009765625 647.000976562 c 0
 44.333984375 637.66796875 33.1669921875 629.16796875 23.5 621.500976562 c 0
 13.8330078125 613.833984375 9 609.333984375 9 608.000976562 c 0
 9 598.66796875 11.3330078125 590.000976562 16 582.000976562 c 0
 20.6669921875 574.000976562 25.6669921875 565.833984375 31 557.500976562 c 0
 36.3330078125 549.16796875 41.3330078125 540.66796875 46 532.000976562 c 0
 50.6669921875 523.333984375 53 513.666992188 53 503 c 2
EndSplineSet
EndChar

